<svg width="53" height="53" viewBox="0 0 53 53" fill="none" xmlns="http://www.w3.org/2000/svg">
<path d="M46.6399 37C48.1525 33.936 49 30.4877 49 26.8337C49 14.2205 38.8678 4 26.3756 4C19.9337 4 14.1194 6.71752 10 11.0807L11.2498 4" stroke="black" stroke-width="1.5" stroke-linejoin="round"/>
<path d="M6.71561 15.7725C4.98199 18.9623 4.00049 22.6163 4.00049 26.4943C4.00049 38.9177 14.0715 48.994 26.5003 48.994C36.646 48.994 40.3586 44.4386 44.3859 40.646L43.4578 46.7643" stroke="black" stroke-width="1.5" stroke-linejoin="round"/>
<path d="M44.3862 40.646H38.7266" stroke="black" stroke-width="1.5" stroke-miterlimit="10"/>
<path d="M10 11L17 12" stroke="black" stroke-width="1.5" stroke-miterlimit="10"/>
<path d="M21.3472 38.1598C25.672 38.1598 29.1779 34.6539 29.1779 30.3292C29.1779 26.0044 25.672 22.4985 21.3472 22.4985C17.0225 22.4985 13.5166 26.0044 13.5166 30.3292C13.5166 34.6539 17.0225 38.1598 21.3472 38.1598Z" stroke="black" stroke-width="1.5" stroke-linecap="round" stroke-linejoin="round"/>
<path d="M21.3467 34.5381V35.6103" stroke="black" stroke-width="1.5" stroke-linecap="round" stroke-linejoin="round"/>
<path d="M21.3467 25.3579V26.3074" stroke="black" stroke-width="1.5" stroke-linecap="round" stroke-linejoin="round"/>
<path d="M23.8542 27.0061C23.8542 27.0061 20.1896 25.1338 19.3841 27.7582C18.5787 30.3827 22.0246 29.9559 23.4115 31.4708C24.4676 32.6284 23.9449 34.2126 22.2379 34.4207C20.531 34.6287 18.8667 34.1753 18.8667 34.1753" stroke="black" stroke-width="1.5" stroke-linecap="round" stroke-linejoin="round"/>
<path d="M29.8871 31.3215C30.0311 31.3322 30.1805 31.3322 30.3298 31.3322C34.6506 31.3322 38.1605 27.8276 38.1605 23.5015C38.1605 19.1755 34.6559 15.6709 30.3298 15.6709C26.5585 15.6709 23.406 18.3433 22.6646 21.8959" stroke="black" stroke-width="1.5" stroke-linecap="round" stroke-linejoin="round"/>
<path d="M30.3031 28.9265V22.8081L27.1079 18.498" stroke="black" stroke-width="1.5" stroke-linecap="round" stroke-linejoin="round"/>
<path d="M30.3032 22.8081L33.7118 18.498" stroke="black" stroke-width="1.5" stroke-linecap="round" stroke-linejoin="round"/>
<path d="M27.5503 24.0459H33.0552" stroke="black" stroke-width="1.5" stroke-linecap="round" stroke-linejoin="round"/>
<path d="M28.4785 26.1045H32.4098" stroke="black" stroke-width="1.5" stroke-linecap="round" stroke-linejoin="round"/>
</svg>
