<svg width="120" height="95" viewBox="0 0 120 95" fill="none" xmlns="http://www.w3.org/2000/svg">
<path d="M84.474 68.4468H83.8916C82.8951 68.4468 82.0873 67.6511 82.0873 66.6696V66.0475C82.0873 65.066 82.8951 64.2703 83.8916 64.2703H84.474C84.9251 64.2703 85.29 64.6298 85.29 65.0741V67.643C85.29 68.0873 84.9251 68.4468 84.474 68.4468Z" stroke="white" stroke-miterlimit="10"/>
<path d="M99.1464 64.2667V63.0348C99.1464 58.9836 95.8001 55.6836 91.6828 55.6836C87.5655 55.6836 84.2192 58.9795 84.2192 63.0348V64.2667" stroke="white" stroke-miterlimit="10"/>
<path d="M98.0765 64.02V66.9686C98.0765 68.7014 97.3589 70.2726 96.1983 71.4156C95.0378 72.5547 93.4425 73.2656 91.6833 73.2656C88.1688 73.2656 85.29 70.4341 85.29 66.9686V64.2583" stroke="white" stroke-miterlimit="10"/>
<path d="M105.6 80.7503C104.28 75.3419 97.7934 74.9017 95.825 74.6392L91.6011 77.3534L87.3649 74.6392C80.8855 75.0552 76.9077 76.4406 76.3008 80.504" stroke="white" stroke-linecap="round" stroke-linejoin="round"/>
<path d="M95.8287 71.751V74.639L91.6048 77.3533L87.3687 74.639V71.6016" stroke="white" stroke-miterlimit="10"/>
<path d="M83.6245 75.0508L88.2503 80.3542L91.6048 77.3531L94.8814 80.3138L99.6466 75.0347" stroke="white" stroke-miterlimit="10"/>
<path d="M91.8302 69.356H91.1494C90.581 69.356 90.1201 69.8099 90.1201 70.3698V70.3738C90.1201 70.9337 90.581 71.3876 91.1494 71.3876H91.8302C92.3986 71.3876 92.8595 70.9337 92.8595 70.3738V70.3698C92.8595 69.8099 92.3986 69.356 91.8302 69.356Z" stroke="white" stroke-miterlimit="10"/>
<path d="M92.8638 70.3695H97.7602C97.7602 70.3695 99.4661 70.4544 99.4661 68.4429" stroke="white" stroke-miterlimit="10"/>
<path d="M98.8389 64.2667H99.1834C100.114 64.2667 100.869 65.0099 100.869 65.9268V66.7831C100.869 67.7 100.114 68.4432 99.1834 68.4432H98.8389C98.4165 68.4432 98.0762 68.1079 98.0762 67.6919V65.014C98.0762 64.5979 98.4165 64.2627 98.8389 64.2627V64.2667Z" stroke="white" stroke-miterlimit="10"/>
<path d="M100.635 65.0824V63.3011C100.635 58.43 96.5877 54.4434 91.6421 54.4434C86.6965 54.4434 82.6489 58.43 82.6489 63.3011V64.7633" stroke="white" stroke-linecap="round" stroke-linejoin="round"/>
<path d="M83.5427 68.4106C82.9686 68.9963 82.6118 69.7961 82.6118 70.6766C82.6118 72.478 84.0963 73.9402 85.9253 73.9402C86.442 73.9402 86.9341 73.8231 87.3688 73.613" stroke="white" stroke-miterlimit="10"/>
<path d="M95.8286 73.6775C96.2305 73.8472 96.6734 73.9441 97.1368 73.9441C98.9658 73.9441 100.45 72.4819 100.45 70.6805C100.45 69.8 100.098 69.0002 99.5235 68.4146" stroke="white" stroke-miterlimit="10"/>
<path d="M85.1094 64.2664C85.1094 64.2664 91.601 63.8625 93.2537 60.9907C93.2537 60.9907 94.0697 64.7431 98.3264 63.9756" stroke="white" stroke-linecap="round" stroke-linejoin="round"/>
<path d="M91.2 87.875C101.804 87.875 110.4 78.8367 110.4 67.6875C110.4 56.5383 101.804 47.5 91.2 47.5C80.5961 47.5 72 56.5383 72 67.6875C72 78.8367 80.5961 87.875 91.2 87.875Z" stroke="white" stroke-width="2" stroke-miterlimit="10"/>
<path d="M39.6053 61.4025C39.6053 57.9247 36.743 55.1055 33.2121 55.1055C29.6812 55.1055 26.8188 57.9247 26.8188 61.4025V65.0579C26.8188 68.5356 29.6812 71.3548 33.2121 71.3548C36.743 71.3548 39.6053 68.5356 39.6053 65.0579V61.4025Z" stroke="white" stroke-miterlimit="10"/>
<path d="M19.1997 78.3749V77.1874C20.0814 73.5482 22.7224 73.1322 28.8942 72.7363L33.1304 75.4506L37.3543 72.7363C39.2407 72.9868 46.6796 72.7565 48.4553 77.5025C48.5496 77.7529 48.6275 78.0195 48.689 78.2982V78.4961" stroke="white" stroke-miterlimit="10"/>
<path d="M37.3541 69.8443V72.7322L33.1302 75.4465L28.894 72.7322V69.6948" stroke="white" stroke-miterlimit="10"/>
<path d="M25.1499 73.1481L29.7757 78.4474L33.1302 75.4464L36.4068 78.4071L41.172 73.1279" stroke="white" stroke-miterlimit="10"/>
<path d="M33.36 67.4492H32.6792C32.1107 67.4492 31.6499 67.9031 31.6499 68.463V68.4671C31.6499 69.027 32.1107 69.4809 32.6792 69.4809H33.36C33.9284 69.4809 34.3893 69.027 34.3893 68.4671V68.463C34.3893 67.9031 33.9284 67.4492 33.36 67.4492Z" stroke="white" stroke-miterlimit="10"/>
<path d="M34.3896 68.4628H39.2861C39.2861 68.4628 40.992 68.5476 40.992 66.5361" stroke="white" stroke-miterlimit="10"/>
<path d="M40.3643 62.3595H40.7088C41.6397 62.3595 42.3942 63.1027 42.3942 64.0196V64.8759C42.3942 65.7928 41.6397 66.5359 40.7088 66.5359H40.3643C39.9419 66.5359 39.6016 66.2007 39.6016 65.7847V63.1067C39.6016 62.6907 39.9419 62.3555 40.3643 62.3555V62.3595Z" stroke="white" stroke-miterlimit="10"/>
<path d="M26.0028 66.54H25.4205C24.4239 66.54 23.6161 65.7443 23.6161 64.7628V64.1408C23.6161 63.1593 24.4239 62.3636 25.4205 62.3636H26.0028C26.4539 62.3636 26.8188 62.7231 26.8188 63.1674V65.7363C26.8188 66.1806 26.4539 66.54 26.0028 66.54Z" stroke="white" stroke-miterlimit="10"/>
<path d="M42.1607 63.1757V61.3944C42.1607 56.5232 38.1131 52.5366 33.1675 52.5366C28.2219 52.5366 24.1743 56.5232 24.1743 61.3944V62.8566" stroke="white" stroke-linecap="round" stroke-linejoin="round"/>
<path d="M26.8188 61.4025H32.2443L33.2121 59.3062L34.389 61.4025H39.6012" stroke="white" stroke-miterlimit="10"/>
<path d="M31.6499 76.7754L33.1262 79.6876V85.7543" stroke="white" stroke-miterlimit="10"/>
<path d="M34.6028 76.7754L33.1265 79.6876V85.7543" stroke="white" stroke-miterlimit="10"/>
<path d="M35.3328 82.7733C35.3328 82.8247 35.2884 82.8792 35.2177 82.8792C35.1469 82.8792 35.1025 82.8247 35.1025 82.7733C35.1025 82.722 35.1469 82.6675 35.2177 82.6675C35.2884 82.6675 35.3328 82.722 35.3328 82.7733Z" fill="black" stroke="white"/>
<path d="M33.5999 85.5C44.2038 85.5 52.7999 76.4618 52.7999 65.3125C52.7999 54.1633 44.2038 45.125 33.5999 45.125C22.996 45.125 14.3999 54.1633 14.3999 65.3125C14.3999 76.4618 22.996 85.5 33.5999 85.5Z" stroke="white" stroke-width="2" stroke-miterlimit="10"/>
<path d="M68.8578 18.1559C68.8578 14.6781 65.9954 11.8589 62.4645 11.8589C58.9336 11.8589 56.0713 14.6781 56.0713 18.1559V21.8113C56.0713 25.289 58.9336 28.1082 62.4645 28.1082C65.9954 28.1082 68.8578 25.289 68.8578 21.8113V18.1559Z" stroke="white" stroke-miterlimit="10"/>
<path d="M56.0752 17.9783C56.4771 17.7441 56.9856 17.5785 57.5351 17.4694C58.9376 17.1907 60.3893 17.3684 61.7139 17.9056C64.1375 18.8912 66.3314 19.1295 68.8576 18.0793" stroke="white" stroke-miterlimit="10"/>
<path d="M77.9287 35.3788V34.9991C76.682 29.4857 68.5869 29.7523 66.6062 29.4897L62.3823 32.204L58.1461 29.4897C51.6791 29.9017 47.6767 31.3437 47.0615 35.3949L47.0697 35.6575" stroke="white" stroke-miterlimit="10"/>
<path d="M66.6059 26.5977V29.4897L62.382 32.204L58.1499 29.4897V26.4482" stroke="white" stroke-miterlimit="10"/>
<path d="M54.4019 29.9015L59.0317 35.2049L62.3821 32.2038L65.6628 35.1605L70.4239 29.8813" stroke="white" stroke-miterlimit="10"/>
<path d="M60.3647 34.0093L61.1439 36.6387H63.506L64.4943 34.1062" stroke="white" stroke-miterlimit="10"/>
<path d="M61.1437 36.6387L59.9873 42.5075" stroke="white" stroke-miterlimit="10"/>
<path d="M63.5063 36.6387L64.7612 42.5075" stroke="white" stroke-miterlimit="10"/>
<path d="M62.6119 24.2026H61.9312C61.3627 24.2026 60.9019 24.6565 60.9019 25.2165V25.2205C60.9019 25.7804 61.3627 26.2343 61.9312 26.2343H62.6119C63.1804 26.2343 63.6412 25.7804 63.6412 25.2205V25.2165C63.6412 24.6565 63.1804 24.2026 62.6119 24.2026Z" stroke="white" stroke-miterlimit="10"/>
<path d="M63.6411 25.2201H68.5375C68.5375 25.2201 70.2435 25.3049 70.2435 23.2935" stroke="white" stroke-miterlimit="10"/>
<path d="M69.6202 19.1129H69.9647C70.8955 19.1129 71.6501 19.8561 71.6501 20.773V21.6293C71.6501 22.5462 70.8955 23.2894 69.9647 23.2894H69.6202C69.1978 23.2894 68.8574 22.9541 68.8574 22.5381V19.8602C68.8574 19.4441 69.1978 19.1089 69.6202 19.1089V19.1129Z" stroke="white" stroke-miterlimit="10"/>
<path d="M55.2552 23.2935H54.6729C53.6764 23.2935 52.8685 22.4978 52.8685 21.5162V20.8942C52.8685 19.9127 53.6764 19.117 54.6729 19.117H55.2552C55.7063 19.117 56.0713 19.4765 56.0713 19.9208V22.4897C56.0713 22.934 55.7063 23.2935 55.2552 23.2935Z" stroke="white" stroke-miterlimit="10"/>
<path d="M71.4126 19.9291V18.1478C71.4126 13.2766 67.3651 9.29004 62.4195 9.29004C57.4738 9.29004 53.4263 13.2766 53.4263 18.1478V19.61" stroke="white" stroke-linecap="round" stroke-linejoin="round"/>
<path d="M62.3998 42.75C74.3292 42.75 83.9998 33.7117 83.9998 22.5625C83.9998 11.4133 74.3292 2.375 62.3998 2.375C50.4705 2.375 40.7998 11.4133 40.7998 22.5625C40.7998 33.7117 50.4705 42.75 62.3998 42.75Z" stroke="white" stroke-width="2" stroke-miterlimit="10"/>
<path d="M45.6001 83.125C51.0178 86.1671 54.7548 87.875 61.2001 87.875C68.2385 87.875 71.0227 86.7115 76.8001 83.125" stroke="white" stroke-width="2" stroke-linecap="round" stroke-linejoin="round" stroke-dasharray="3 5"/>
<path d="M36.0002 21.3752C30.0001 24.9377 25.2003 33.2502 25.2003 43.9377" stroke="white" stroke-width="2" stroke-linecap="round" stroke-linejoin="round" stroke-dasharray="3 5"/>
<path d="M101.708 48.3297C101.712 48.0643 101.711 47.7941 101.71 47.528C101.573 37.2002 96.3513 27.5587 87.8916 20.5454" stroke="white" stroke-width="2" stroke-linecap="round" stroke-linejoin="round" stroke-dasharray="3 5"/>
</svg>
