<svg width="50" height="40" viewBox="0 0 50 40" fill="none" xmlns="http://www.w3.org/2000/svg">
<path d="M35.1974 28.8197H34.9548C34.5396 28.8197 34.203 28.4847 34.203 28.0714V27.8095C34.203 27.3962 34.5396 27.0612 34.9548 27.0612H35.1974C35.3854 27.0612 35.5375 27.2126 35.5375 27.3996V28.4813C35.5375 28.6683 35.3854 28.8197 35.1974 28.8197Z" stroke="white" stroke-width="0.5" stroke-miterlimit="10"/>
<path d="M41.3111 27.0595V26.5408C41.3111 24.835 39.9168 23.4456 38.2012 23.4456C36.4857 23.4456 35.0914 24.8333 35.0914 26.5408V27.0595" stroke="white" stroke-width="0.5" stroke-miterlimit="10"/>
<path d="M40.8652 26.9558V28.1973C40.8652 28.9269 40.5662 29.5884 40.0826 30.0697C39.599 30.5493 38.9344 30.8486 38.2013 30.8486C36.737 30.8486 35.5375 29.6565 35.5375 28.1973V27.0561" stroke="white" stroke-width="0.5" stroke-miterlimit="10"/>
<path d="M44 34C43.4498 31.7228 40.7472 31.5374 39.9271 31.4269L38.1671 32.5697L36.402 31.4269C33.7023 31.602 32.0449 32.1854 31.792 33.8963" stroke="white" stroke-width="0.5" stroke-linecap="round" stroke-linejoin="round"/>
<path d="M39.9287 30.2109V31.4269L38.1688 32.5697L36.4037 31.4269V30.148" stroke="white" stroke-width="0.5" stroke-miterlimit="10"/>
<path d="M34.8436 31.6003L36.771 33.8333L38.1687 32.5697L39.534 33.8163L41.5195 31.5935" stroke="white" stroke-width="0.5" stroke-miterlimit="10"/>
<path d="M38.2627 29.2024H37.9791C37.7422 29.2024 37.5502 29.3935 37.5502 29.6293V29.631C37.5502 29.8667 37.7422 30.0578 37.9791 30.0578H38.2627C38.4996 30.0578 38.6916 29.8667 38.6916 29.631V29.6293C38.6916 29.3935 38.4996 29.2024 38.2627 29.2024Z" stroke="white" stroke-width="0.5" stroke-miterlimit="10"/>
<path d="M38.6934 29.6292H40.7335C40.7335 29.6292 41.4444 29.665 41.4444 28.818" stroke="white" stroke-width="0.5" stroke-miterlimit="10"/>
<path d="M41.1829 27.0595H41.3265C41.7143 27.0595 42.0287 27.3725 42.0287 27.7585V28.1191C42.0287 28.5051 41.7143 28.818 41.3265 28.818H41.1829C41.0069 28.818 40.8651 28.6769 40.8651 28.5017V27.3742C40.8651 27.199 41.0069 27.0578 41.1829 27.0578V27.0595Z" stroke="white" stroke-width="0.5" stroke-miterlimit="10"/>
<path d="M41.9313 27.4031V26.6531C41.9313 24.602 40.2449 22.9235 38.1842 22.9235C36.1235 22.9235 34.437 24.602 34.437 26.6531V27.2687" stroke="white" stroke-width="0.5" stroke-linecap="round" stroke-linejoin="round"/>
<path d="M34.8095 28.8044C34.5703 29.051 34.4216 29.3877 34.4216 29.7585C34.4216 30.517 35.0402 31.1326 35.8023 31.1326C36.0175 31.1326 36.2226 31.0833 36.4037 30.9949" stroke="white" stroke-width="0.5" stroke-miterlimit="10"/>
<path d="M39.9286 31.0221C40.096 31.0935 40.2806 31.1344 40.4737 31.1344C41.2357 31.1344 41.8543 30.5187 41.8543 29.7602C41.8543 29.3895 41.7073 29.0527 41.4681 28.8061" stroke="white" stroke-width="0.5" stroke-miterlimit="10"/>
<path d="M35.4623 27.0595C35.4623 27.0595 38.1671 26.8895 38.8557 25.6803C38.8557 25.6803 39.1958 27.2602 40.9694 26.9371" stroke="white" stroke-width="0.5" stroke-linecap="round" stroke-linejoin="round"/>
<path d="M38 37C42.4183 37 46 33.1944 46 28.5C46 23.8056 42.4183 20 38 20C33.5817 20 30 23.8056 30 28.5C30 33.1944 33.5817 37 38 37Z" stroke="white" stroke-miterlimit="10"/>
<path d="M16.5024 25.8538C16.5024 24.3894 15.3097 23.2024 13.8385 23.2024C12.3673 23.2024 11.1747 24.3894 11.1747 25.8538V27.3929C11.1747 28.8572 12.3673 30.0442 13.8385 30.0442C15.3097 30.0442 16.5024 28.8572 16.5024 27.3929V25.8538Z" stroke="white" stroke-width="0.5" stroke-miterlimit="10"/>
<path d="M8 33V32.5C8.36737 30.9677 9.4678 30.7925 12.0394 30.6259L13.8045 31.7687L15.5644 30.6259C16.3504 30.7313 19.45 30.6344 20.1898 32.6327C20.2291 32.7381 20.2616 32.8503 20.2872 32.9677V33.051" stroke="white" stroke-width="0.5" stroke-miterlimit="10"/>
<path d="M15.5645 29.4082V30.6242L13.8045 31.767L12.0394 30.6242V29.3453" stroke="white" stroke-width="0.5" stroke-miterlimit="10"/>
<path d="M10.4792 30.7993L12.4067 33.0306L13.8044 31.767L15.1696 33.0136L17.1551 30.7908" stroke="white" stroke-width="0.5" stroke-miterlimit="10"/>
<path d="M13.9001 28.3997H13.6165C13.3796 28.3997 13.1876 28.5908 13.1876 28.8265V28.8282C13.1876 29.064 13.3796 29.2551 13.6165 29.2551H13.9001C14.137 29.2551 14.329 29.064 14.329 28.8282V28.8265C14.329 28.5908 14.137 28.3997 13.9001 28.3997Z" stroke="white" stroke-width="0.5" stroke-miterlimit="10"/>
<path d="M14.3291 28.8265H16.3693C16.3693 28.8265 17.0801 28.8623 17.0801 28.0153" stroke="white" stroke-width="0.5" stroke-miterlimit="10"/>
<path d="M16.8185 26.2568H16.9621C17.35 26.2568 17.6644 26.5698 17.6644 26.9558V27.3163C17.6644 27.7024 17.35 28.0153 16.9621 28.0153H16.8185C16.6426 28.0153 16.5007 27.8742 16.5007 27.699V26.5715C16.5007 26.3963 16.6426 26.2551 16.8185 26.2551V26.2568Z" stroke="white" stroke-width="0.5" stroke-miterlimit="10"/>
<path d="M10.8347 28.017H10.592C10.1768 28.017 9.8402 27.682 9.8402 27.2687V27.0068C9.8402 26.5935 10.1768 26.2585 10.592 26.2585H10.8347C11.0226 26.2585 11.1747 26.4099 11.1747 26.5969V27.6786C11.1747 27.8656 11.0226 28.017 10.8347 28.017Z" stroke="white" stroke-width="0.5" stroke-miterlimit="10"/>
<path d="M17.5669 26.6003V25.8503C17.5669 23.7993 15.8805 22.1208 13.8198 22.1208C11.7591 22.1208 10.0726 23.7993 10.0726 25.8503V26.466" stroke="white" stroke-width="0.5" stroke-linecap="round" stroke-linejoin="round"/>
<path d="M11.1747 25.8538H13.4353L13.8385 24.9711L14.3289 25.8538H16.5007" stroke="white" stroke-width="0.5" stroke-miterlimit="10"/>
<path d="M13.1876 32.3265L13.8028 33.5527V36.1071" stroke="white" stroke-width="0.5" stroke-miterlimit="10"/>
<path d="M14.4179 32.3265L13.8027 33.5527V36.1071" stroke="white" stroke-width="0.5" stroke-miterlimit="10"/>
<path d="M14.4305 34.8521C14.4305 34.7146 14.5418 34.6072 14.6742 34.6072C14.8065 34.6072 14.9178 34.7146 14.9178 34.8521C14.9178 34.9895 14.8065 35.097 14.6742 35.097C14.5418 35.097 14.4305 34.9895 14.4305 34.8521Z" fill="black" stroke="white"/>
<path d="M14 36C18.4183 36 22 32.1944 22 27.5C22 22.8056 18.4183 19 14 19C9.58172 19 6 22.8056 6 27.5C6 32.1944 9.58172 36 14 36Z" stroke="white" stroke-miterlimit="10"/>
<path d="M28.6909 7.64456C28.6909 6.18025 27.4982 4.99319 26.027 4.99319C24.5558 4.99319 23.3632 6.18025 23.3632 7.64456V9.18367C23.3632 10.648 24.5558 11.835 26.027 11.835C27.4982 11.835 28.6909 10.648 28.6909 9.18367V7.64456Z" stroke="white" stroke-width="0.5" stroke-miterlimit="10"/>
<path d="M23.3647 7.56972C23.5322 7.47109 23.7441 7.40136 23.973 7.35544C24.5574 7.23809 25.1623 7.31292 25.7142 7.53911C26.724 7.95408 27.6382 8.05442 28.6907 7.61224" stroke="white" stroke-width="0.5" stroke-miterlimit="10"/>
<path d="M32.4703 14.8962V14.7364C31.9509 12.415 28.5779 12.5272 27.7526 12.4167L25.9927 13.5595L24.2276 12.4167C21.533 12.5901 19.8653 13.1973 19.609 14.9031L19.6124 15.0136" stroke="white" stroke-width="0.5" stroke-miterlimit="10"/>
<path d="M27.7526 11.199V12.4167L25.9926 13.5595L24.2292 12.4167V11.136" stroke="white" stroke-width="0.5" stroke-miterlimit="10"/>
<path d="M22.6676 12.5901L24.5967 14.8231L25.9927 13.5595L27.3597 14.8044L29.3435 12.5816" stroke="white" stroke-width="0.5" stroke-miterlimit="10"/>
<path d="M25.1521 14.3197L25.4768 15.4269H26.461L26.8728 14.3605" stroke="white" stroke-width="0.5" stroke-miterlimit="10"/>
<path d="M25.4767 15.4268L24.9949 17.8979" stroke="white" stroke-width="0.5" stroke-miterlimit="10"/>
<path d="M26.4609 15.4268L26.9838 17.8979" stroke="white" stroke-width="0.5" stroke-miterlimit="10"/>
<path d="M26.0883 10.1905H25.8046C25.5677 10.1905 25.3757 10.3816 25.3757 10.6173V10.619C25.3757 10.8548 25.5677 11.0459 25.8046 11.0459H26.0883C26.3251 11.0459 26.5171 10.8548 26.5171 10.619V10.6173C26.5171 10.3816 26.3251 10.1905 26.0883 10.1905Z" stroke="white" stroke-width="0.5" stroke-miterlimit="10"/>
<path d="M26.5172 10.6191H28.5574C28.5574 10.6191 29.2682 10.6548 29.2682 9.80783" stroke="white" stroke-width="0.5" stroke-miterlimit="10"/>
<path d="M29.0085 8.04763H29.152C29.5399 8.04763 29.8543 8.36055 29.8543 8.74661V9.10715C29.8543 9.49321 29.5399 9.80613 29.152 9.80613H29.0085C28.8325 9.80613 28.6907 9.66498 28.6907 9.48981V8.36226C28.6907 8.18709 28.8325 8.04593 29.0085 8.04593V8.04763Z" stroke="white" stroke-width="0.5" stroke-miterlimit="10"/>
<path d="M23.0231 9.80783H22.7805C22.3653 9.80783 22.0287 9.4728 22.0287 9.05953V8.79763C22.0287 8.38436 22.3653 8.04933 22.7805 8.04933H23.0231C23.2111 8.04933 23.3632 8.20069 23.3632 8.38776V9.4694C23.3632 9.65647 23.2111 9.80783 23.0231 9.80783Z" stroke="white" stroke-width="0.5" stroke-miterlimit="10"/>
<path d="M29.7553 8.39115V7.64115C29.7553 5.59013 28.0688 3.91156 26.0081 3.91156C23.9475 3.91156 22.261 5.59013 22.261 7.64115V8.2568" stroke="white" stroke-width="0.5" stroke-linecap="round" stroke-linejoin="round"/>
<path d="M26 18C30.9706 18 35 14.1944 35 9.5C35 4.80558 30.9706 1 26 1C21.0294 1 17 4.80558 17 9.5C17 14.1944 21.0294 18 26 18Z" stroke="white" stroke-miterlimit="10"/>
<path d="M19 35C21.2574 36.2809 22.8145 37 25.5 37C28.4327 37 29.5928 36.5101 32 35" stroke="white" stroke-linecap="round" stroke-linejoin="round" stroke-dasharray="1.5 2"/>
<path d="M15 8.99999C12.4999 10.5 10.5 14 10.5 18.5" stroke="white" stroke-linecap="round" stroke-linejoin="round" stroke-dasharray="1.5 2"/>
<path d="M42.3784 20.3493C42.38 20.2376 42.3797 20.1238 42.3791 20.0118C42.3223 15.6632 40.1465 11.6036 36.6216 8.65067" stroke="white" stroke-linecap="round" stroke-linejoin="round" stroke-dasharray="1.5 2"/>
</svg>
