<svg width="43" height="48" viewBox="0 0 43 48" fill="none" xmlns="http://www.w3.org/2000/svg">
<g clip-path="url(#clip0_426_106)">
<path d="M12.2168 45.2075V38.3382C12.3226 36.0753 13.0534 34.2862 14.9585 33.379L20.0084 31.0254V36.0451" stroke="black" stroke-width="1.5" stroke-linecap="round" stroke-linejoin="round"/>
<path d="M40.9845 47.0724V38.3383C40.8786 36.0754 40.1479 34.2863 38.2428 33.3791L33.1929 31.1313V36.1762" stroke="black" stroke-width="1.5" stroke-linecap="round" stroke-linejoin="round"/>
<path d="M11.9497 47.188H42.4962" stroke="black" stroke-width="1.5" stroke-linecap="round" stroke-linejoin="round"/>
<path d="M20.0083 32.8901C22.3216 34.2811 29.8461 34.4171 33.1976 32.6733" stroke="black" stroke-width="1.5" stroke-linecap="round" stroke-linejoin="round"/>
<path d="M35.9395 36.312H17.7507C16.9847 36.312 16.39 36.9823 16.4857 37.7433L17.655 47.188H36.2167L37.2297 37.7484C37.3104 36.9823 36.7106 36.312 35.9395 36.312Z" stroke="black" stroke-width="1.5" stroke-linecap="round" stroke-linejoin="round"/>
<path d="M26.8577 43.3781C27.8152 43.3781 28.5914 42.6019 28.5914 41.6444C28.5914 40.6868 27.8152 39.9106 26.8577 39.9106C25.9002 39.9106 25.124 40.6868 25.124 41.6444C25.124 42.6019 25.9002 43.3781 26.8577 43.3781Z" stroke="black" stroke-width="1.5" stroke-linecap="round" stroke-linejoin="round"/>
<path d="M24 27.729C23.1886 29.1704 21.853 30.2691 20.0034 31.0251" stroke="black" stroke-width="1.5" stroke-linecap="round" stroke-linejoin="round"/>
<path d="M33.1927 31.1309C31.6153 30.4757 29.4985 29.372 29.0601 27.729" stroke="black" stroke-width="1.5" stroke-linecap="round" stroke-linejoin="round"/>
<path d="M20.5529 17.3874V22.5633C20.5529 24.6548 21.8431 26.449 23.6675 27.1848C23.3147 29.3217 21.2937 30.8992 18.9855 30.5414C17.2971 30.2793 15.9263 28.9387 15.6239 27.2554C15.4173 26.1013 15.6995 25.0177 16.2942 24.171C16.2942 24.171 16.3144 24.1357 16.3245 24.1206C16.3849 24.05 16.4353 23.9795 16.4857 23.914C17.8566 22.0946 18.2295 20.1946 18.2295 18.2089C18.1489 17.7452 18.1086 17.2664 18.1086 16.7775C18.1086 16.5961 18.1086 16.4147 18.1287 16.2383C18.1287 16.1627 18.1388 16.0972 18.1489 16.0266C18.5269 11.6369 22.211 8.19971 26.6965 8.19971C31.1819 8.19971 34.861 11.6419 35.2441 16.0266C35.2541 16.0921 35.2592 16.1576 35.2642 16.2231C35.2793 16.4046 35.2844 16.5911 35.2844 16.7775C35.2844 17.2815 35.2441 17.7754 35.1533 18.2592C35.1533 20.1694 35.5112 21.8728 36.4536 23.4453C37.4263 24.3423 37.9706 25.688 37.7489 27.1546C37.4868 28.9236 36.0605 30.3549 34.2966 30.6321C31.953 30.9949 29.9068 29.4024 29.5238 27.2403C31.4138 26.5296 32.7544 24.7002 32.7544 22.5633V17.3874" stroke="black" stroke-width="1.5" stroke-miterlimit="10"/>
<path d="M32.7596 17.3872V22.5631C32.7596 24.7 31.419 26.5245 29.529 27.2401C28.9847 27.4467 28.39 27.5576 27.7701 27.5576H25.5526C24.8873 27.5576 24.2523 27.4266 23.6727 27.1897C21.8483 26.4489 20.5581 24.6547 20.5581 22.5682V17.3922" stroke="black" stroke-width="1.5" stroke-miterlimit="10"/>
<path d="M31.7566 9.84766C28.6622 15.0185 24.1162 17.5334 18.1138 17.3822" stroke="black" stroke-width="1.5" stroke-linecap="round" stroke-linejoin="round"/>
<path d="M29.5791 16.0264C31.338 17.2763 33.2179 17.7802 35.2641 17.3418" stroke="black" stroke-width="1.5" stroke-linecap="round" stroke-linejoin="round"/>
<path d="M29.5391 24.1204C29.5391 24.1204 32.7595 23.3141 32.7595 20.0986" stroke="black" stroke-width="1.5" stroke-linecap="round" stroke-linejoin="round"/>
<path d="M28.3849 23.042H27.0443C26.4069 23.042 25.8901 23.5587 25.8901 24.1961V24.2112C25.8901 24.8486 26.4069 25.3654 27.0443 25.3654H28.3849C29.0223 25.3654 29.539 24.8486 29.539 24.2112V24.1961C29.539 23.5587 29.0223 23.042 28.3849 23.042Z" stroke="black" stroke-width="1.5" stroke-linecap="round" stroke-linejoin="round"/>
<path d="M14.1518 15.3412H7.92257C3.82517 15.3412 0.503906 12.02 0.503906 7.92257C0.503906 3.82517 3.82517 0.503906 7.92257 0.503906C12.02 0.503906 15.3463 3.82517 15.3463 7.92257C15.3463 10.2711 14.2526 12.3677 12.5491 13.7285L14.3131 14.928C14.4945 15.0288 14.4441 15.3412 14.1569 15.3412H14.1518Z" stroke="black" stroke-width="1.5" stroke-linecap="round" stroke-linejoin="round"/>
<path d="M5.38232 5.71533H10.4675" stroke="black" stroke-width="1.5" stroke-linecap="round" stroke-linejoin="round"/>
<path d="M5.38232 10.1299H10.4675" stroke="black" stroke-width="1.5" stroke-linecap="round" stroke-linejoin="round"/>
<path d="M4.38477 7.8623H11.4607" stroke="black" stroke-width="1.5" stroke-linecap="round" stroke-linejoin="round"/>
</g>
<defs>
<clipPath id="clip0_426_106">
<rect width="43" height="47.6921" fill="white"/>
</clipPath>
</defs>
</svg>
