<svg width="50" height="40" viewBox="0 0 50 40" fill="none" xmlns="http://www.w3.org/2000/svg">
<g clip-path="url(#clip0_332_162)">
<path d="M16.9519 26.292L18.0502 23.5232C18.0731 23.4711 18.1504 23.4711 18.1734 23.5232L19.2633 26.292" stroke="white" stroke-linecap="round" stroke-linejoin="round"/>
<path d="M17.2943 25.6028H18.925" stroke="white" stroke-linecap="round" stroke-linejoin="round"/>
<path d="M20.4827 26.292V23.4891L22.4579 26.2339C22.4955 26.284 22.533 26.26 22.533 26.1978L22.5059 23.4831" stroke="white" stroke-linecap="round" stroke-linejoin="round"/>
<path d="M24.0677 23.4831V26.292" stroke="white" stroke-linecap="round" stroke-linejoin="round"/>
<path d="M25.642 23.5192L24.1616 24.8255L25.7464 26.292" stroke="white" stroke-linecap="round" stroke-linejoin="round"/>
<path d="M15.3379 24.1302C15.3379 24.4869 15.0373 24.7774 14.6635 24.7774C14.4798 24.7774 13.8137 24.7794 13.8137 24.7794V23.4831H14.6635C15.0352 23.4831 15.3379 23.7716 15.3379 24.1302Z" stroke="white" stroke-linecap="round" stroke-linejoin="round"/>
<path d="M15.601 25.5327C15.601 25.9494 15.2481 26.288 14.8138 26.288C14.5988 26.288 13.8158 26.292 13.8158 26.292V24.7774H14.8138C15.2481 24.7774 15.601 25.116 15.601 25.5327Z" stroke="white" stroke-linecap="round" stroke-linejoin="round"/>
<path d="M23.9111 11.5903H3.21937C2.54705 11.5903 2 12.1132 2 12.7603V14.0486C2 14.6937 2.54496 15.2186 3.21937 15.2186H26.2015" stroke="white" stroke-linecap="round" stroke-linejoin="round"/>
<path d="M31.0916 23.0403H36.3407V22.9327" stroke="white" stroke-linecap="round" stroke-linejoin="round"/>
<path d="M26.0806 15.2166H3.21948V23.0403H9.39984" stroke="white" stroke-linecap="round" stroke-linejoin="round"/>
<path d="M12.3396 21.7901L12.3354 19.8287C12.3354 18.9812 11.6192 18.294 10.736 18.294H9.33082C8.44762 18.294 7.73145 18.9812 7.73145 19.8287V23.0403" stroke="white" stroke-linecap="round" stroke-linejoin="round"/>
<path d="M22.082 21.6739V19.8287C22.082 18.9812 21.3658 18.294 20.4826 18.294H19.0774C18.1942 18.294 17.478 18.9812 17.478 19.8287V21.744" stroke="white" stroke-linecap="round" stroke-linejoin="round"/>
<path d="M30.8556 23.0403H31.8286V21" stroke="white" stroke-linecap="round" stroke-linejoin="round"/>
<path d="M28.8241 18.294C27.9409 18.294 27.2247 18.9812 27.2247 19.8287V21.744" stroke="white" stroke-linecap="round" stroke-linejoin="round"/>
<path d="M8.95499 23.0403H3.21937C2.54705 23.0403 2 23.5632 2 24.2104V25.4986C2 26.1437 2.54496 26.6687 3.21937 26.6687H9.58765" stroke="white" stroke-linecap="round" stroke-linejoin="round"/>
<path d="M30.6823 26.6667H36.3406C37.0129 26.6667 37.56 26.1438 37.56 25.4966V24.2084C37.56 23.5632 37.015 23.0383 36.3406 23.0383H31.0915" stroke="white" stroke-linecap="round" stroke-linejoin="round"/>
<path d="M12.3354 35.2317V32.3887C12.3354 31.5412 11.6192 30.854 10.736 30.854H9.33082C8.44762 30.854 7.73145 31.5412 7.73145 32.3887V35.2317H12.3354Z" stroke="white" stroke-linecap="round" stroke-linejoin="round"/>
<path d="M9.58776 26.6667H3.21948V35.2317H36.3429V26.6667H30.6845" stroke="white" stroke-linecap="round" stroke-linejoin="round"/>
<path d="M22.082 35.2317V32.3887C22.082 31.5412 21.3658 30.854 20.4826 30.854H19.0774C18.1942 30.854 17.478 31.5412 17.478 32.3887V35.2317H22.082Z" stroke="white" stroke-linecap="round" stroke-linejoin="round"/>
<path d="M31.8287 35.2317V32.3887C31.8287 31.5412 31.1125 30.854 30.2293 30.854H28.8241C27.9409 30.854 27.2247 31.5412 27.2247 32.3887V35.2317H31.8287Z" stroke="white" stroke-linecap="round" stroke-linejoin="round"/>
<path d="M36.3428 35.2317H3.21937C2.54705 35.2317 2 35.7546 2 36.4017V38.4293C2 39.0744 2.54496 39.5993 3.21937 39.5993H36.3428C37.0151 39.5993 37.5621 39.0764 37.5621 38.4293V36.4017C37.5621 35.7566 37.0172 35.2317 36.3428 35.2317Z" stroke="white" stroke-linecap="round" stroke-linejoin="round"/>
<path d="M29.3961 21.8603H10.6107C10.0457 21.8603 9.58765 22.2998 9.58765 22.842V26.9331C9.58765 27.4753 10.0457 27.9149 10.6107 27.9149H29.3961C29.9612 27.9149 30.4192 27.4753 30.4192 26.9331V22.842C30.4192 22.2998 29.9612 21.8603 29.3961 21.8603Z" stroke="white" stroke-linecap="round" stroke-linejoin="round"/>
<path d="M34.6254 9.23758L34.2538 9.58983C33.8511 9.93838 33.3161 10.1505 32.7286 10.1505C31.4816 10.1505 30.47 9.19148 30.47 8.00934C30.47 7.50772 30.6412 7.03745 30.9466 6.6723L31.4271 6.21678" stroke="white" stroke-miterlimit="10" stroke-linejoin="round"/>
<path d="M46.794 2.12265H37.1116C36.3587 2.12634 35.6545 2.33842 35.0125 2.81791L31.0828 6.5432" stroke="white" stroke-miterlimit="10" stroke-linejoin="round"/>
<path d="M34.3491 9.50131L37.5299 6.48604" stroke="white" stroke-miterlimit="10" stroke-linejoin="round"/>
<path d="M25.8379 11.9762L23.4042 9.66913C22.8653 9.15828 22.8653 8.32839 23.4042 7.81755L30.1937 1.38313C30.7326 0.872289 31.608 0.872289 32.1469 1.38313L34.3491 3.47077" stroke="white" stroke-miterlimit="10" stroke-linejoin="round"/>
<path d="M37.1444 6.15363L44.3252 12.9278C44.8641 13.4387 44.8641 14.2686 44.3252 14.7794L37.5357 21.2157C36.9968 21.7265 36.1214 21.7265 35.5825 21.2157L34.8607 20.5315" stroke="white" stroke-miterlimit="10" stroke-linejoin="round"/>
<path d="M27.1919 14.5895C28.0418 14.5895 28.7307 13.9364 28.7307 13.1307C28.7307 12.325 28.0418 11.6719 27.1919 11.6719C26.342 11.6719 25.6531 12.325 25.6531 13.1307C25.6531 13.9364 26.342 14.5895 27.1919 14.5895Z" stroke="white" stroke-miterlimit="10" stroke-linejoin="round"/>
<path d="M29.359 16.6439C30.2089 16.6439 30.8978 15.9908 30.8978 15.1851C30.8978 14.3795 30.2089 13.7264 29.359 13.7264C28.5091 13.7264 27.8202 14.3795 27.8202 15.1851C27.8202 15.9908 28.5091 16.6439 29.359 16.6439Z" stroke="white" stroke-miterlimit="10" stroke-linejoin="round"/>
<path d="M31.5243 18.6983C32.3742 18.6983 33.0631 18.0452 33.0631 17.2396C33.0631 16.4339 32.3742 15.7808 31.5243 15.7808C30.6744 15.7808 29.9855 16.4339 29.9855 17.2396C29.9855 18.0452 30.6744 18.6983 31.5243 18.6983Z" stroke="white" stroke-miterlimit="10" stroke-linejoin="round"/>
<path d="M33.6915 20.7528C34.5414 20.7528 35.2304 20.0997 35.2304 19.294C35.2304 18.4884 34.5414 17.8353 33.6915 17.8353C32.8417 17.8353 32.1527 18.4884 32.1527 19.294C32.1527 20.0997 32.8417 20.7528 33.6915 20.7528Z" stroke="white" stroke-miterlimit="10" stroke-linejoin="round"/>
<path d="M30.5361 8.74888C29.9525 9.44414 29.6042 10.3238 29.6042 11.2791C29.6042 13.5254 31.5263 15.3474 33.8958 15.3474C36.2654 15.3474 38.1874 13.5254 38.1874 11.2791C38.1874 9.83696 37.3957 8.56999 36.2031 7.84891" stroke="white" stroke-miterlimit="10" stroke-linejoin="round"/>
<path d="M35.2206 9.89412L35.6116 9.52344" stroke="white" stroke-linecap="round" stroke-linejoin="round"/>
<path d="M32.0632 12.8873L32.5048 12.4686" stroke="white" stroke-linecap="round" stroke-linejoin="round"/>
<path d="M31.9718 11.5982C31.9718 11.5982 32.4387 13.1897 33.6526 12.7637C34.6643 12.4078 34.2402 11.5281 34.0709 11.2441C33.9989 11.1224 33.9386 10.9951 33.8978 10.8605C33.7908 10.5046 33.7285 9.92732 34.3491 9.71708C35.1039 9.46073 35.3899 10.0749 35.5144 10.4326" stroke="white" stroke-linecap="round" stroke-linejoin="round"/>
<path d="M43.4498 12.0979L44.4401 11.1592H46.9185" stroke="white" stroke-miterlimit="10" stroke-linejoin="round"/>
</g>
<defs>
<clipPath id="clip0_332_162">
<rect width="50" height="40" fill="white"/>
</clipPath>
</defs>
</svg>
