<svg width="126" height="84" viewBox="0 0 126 84" fill="none" xmlns="http://www.w3.org/2000/svg">
<path d="M76.9634 59.7249C76.9634 59.7249 80.2747 64.0564 87.6263 64.0564C94.978 64.0564 98.3381 59.7249 98.3381 59.7249L98.387 59.6797H98.3835C106.426 60.1474 117.38 61.9645 120.185 69.0155C120.185 69.0155 121.802 71.4934 121.802 81.1405H116.672L53.4473 81.0866V75.3606C54.9643 65.2666 60.5757 60.7004 76.9634 59.7249Z" stroke="black" stroke-width="2" stroke-linecap="round" stroke-linejoin="round"/>
<path d="M87.6243 55.4455C96.5411 55.4455 103.77 48.2373 103.77 39.3456C103.77 30.4538 96.5411 23.2456 87.6243 23.2456C78.7075 23.2456 71.479 30.4538 71.479 39.3456C71.479 48.2373 78.7075 55.4455 87.6243 55.4455Z" stroke="black" stroke-width="2" stroke-linecap="round" stroke-linejoin="round"/>
<path d="M18.8806 19.4551H16.5248C16.2638 19.4551 16.0522 19.6661 16.0522 19.9263V28.1145C16.0522 28.3748 16.2638 28.5858 16.5248 28.5858H18.8806C19.1416 28.5858 19.3531 28.3748 19.3531 28.1145V19.9263C19.3531 19.6661 19.1416 19.4551 18.8806 19.4551Z" stroke="black" stroke-width="0.75" stroke-linecap="round" stroke-linejoin="round"/>
<path d="M17.7036 28.5854V31.851" stroke="black" stroke-width="0.75" stroke-linecap="round" stroke-linejoin="round"/>
<path d="M17.7036 16.353V19.236" stroke="black" stroke-width="0.75" stroke-linecap="round" stroke-linejoin="round"/>
<path d="M13.8044 17.1719H11.4486C11.1876 17.1719 10.9761 17.3829 10.9761 17.6431V21.3747C10.9761 21.6349 11.1876 21.8459 11.4486 21.8459H13.8044C14.0654 21.8459 14.277 21.6349 14.277 21.3747V17.6431C14.277 17.3829 14.0654 17.1719 13.8044 17.1719Z" stroke="black" stroke-width="0.75" stroke-linecap="round" stroke-linejoin="round"/>
<path d="M12.626 21.8457V24.8278" stroke="black" stroke-width="0.75" stroke-linecap="round" stroke-linejoin="round"/>
<path d="M12.626 14.459V16.9542" stroke="black" stroke-width="0.75" stroke-linecap="round" stroke-linejoin="round"/>
<path d="M59.5027 23.4409H57.1469C56.8859 23.4409 56.6743 23.6519 56.6743 23.9121V27.6437C56.6743 27.904 56.8859 28.1149 57.1469 28.1149H59.5027C59.7636 28.1149 59.9752 27.904 59.9752 27.6437V23.9121C59.9752 23.6519 59.7636 23.4409 59.5027 23.4409Z" stroke="black" stroke-width="0.75" stroke-linecap="round" stroke-linejoin="round"/>
<path d="M58.3262 28.1143V31.0981" stroke="black" stroke-width="0.75" stroke-linecap="round" stroke-linejoin="round"/>
<path d="M58.3262 20.728V23.2233" stroke="black" stroke-width="0.75" stroke-linecap="round" stroke-linejoin="round"/>
<path d="M54.425 17.1304H52.0692C51.8082 17.1304 51.5967 17.3413 51.5967 17.6016V25.7898C51.5967 26.0501 51.8082 26.261 52.0692 26.261H54.425C54.686 26.261 54.8976 26.0501 54.8976 25.7898V17.6016C54.8976 17.3413 54.686 17.1304 54.425 17.1304Z" stroke="black" stroke-width="0.75" stroke-linecap="round" stroke-linejoin="round"/>
<path d="M53.248 26.2607V29.5263" stroke="black" stroke-width="0.75" stroke-linecap="round" stroke-linejoin="round"/>
<path d="M53.248 14.0298V16.9128" stroke="black" stroke-width="0.75" stroke-linecap="round" stroke-linejoin="round"/>
<path d="M49.3469 14.8472H46.9911C46.7301 14.8472 46.5186 15.0581 46.5186 15.3184V19.05C46.5186 19.3102 46.7301 19.5212 46.9911 19.5212H49.3469C49.6079 19.5212 49.8195 19.3102 49.8195 19.05V15.3184C49.8195 15.0581 49.6079 14.8472 49.3469 14.8472Z" stroke="black" stroke-width="0.75" stroke-linecap="round" stroke-linejoin="round"/>
<path d="M48.1699 19.5215V22.5053" stroke="black" stroke-width="0.75" stroke-linecap="round" stroke-linejoin="round"/>
<path d="M48.1699 12.1362V14.6297" stroke="black" stroke-width="0.75" stroke-linecap="round" stroke-linejoin="round"/>
<path d="M29.0364 29.0137H26.6806C26.4196 29.0137 26.208 29.2246 26.208 29.4849V37.6731C26.208 37.9334 26.4196 38.1443 26.6806 38.1443H29.0364C29.2973 38.1443 29.5089 37.9334 29.5089 37.6731V29.4849C29.5089 29.2246 29.2973 29.0137 29.0364 29.0137Z" stroke="black" stroke-width="0.75" stroke-linecap="round" stroke-linejoin="round"/>
<path d="M27.8594 38.144V41.4113" stroke="black" stroke-width="0.75" stroke-linecap="round" stroke-linejoin="round"/>
<path d="M27.8594 25.9131V28.7961" stroke="black" stroke-width="0.75" stroke-linecap="round" stroke-linejoin="round"/>
<path d="M69.6584 23.2456H67.3026C67.0416 23.2456 66.8301 23.4566 66.8301 23.7168V31.9051C66.8301 32.1653 67.0416 32.3763 67.3026 32.3763H69.6584C69.9194 32.3763 70.131 32.1653 70.131 31.9051V23.7168C70.131 23.4566 69.9194 23.2456 69.6584 23.2456Z" stroke="black" stroke-width="0.75" stroke-linecap="round" stroke-linejoin="round"/>
<path d="M68.4795 32.376V35.6415" stroke="black" stroke-width="0.75" stroke-linecap="round" stroke-linejoin="round"/>
<path d="M68.4795 20.145V23.028" stroke="black" stroke-width="0.75" stroke-linecap="round" stroke-linejoin="round"/>
<path d="M44.2693 17.6675H41.9135C41.6525 17.6675 41.4409 17.8785 41.4409 18.1387V37.6729C41.4409 37.9331 41.6525 38.1441 41.9135 38.1441H44.2693C44.5302 38.1441 44.7418 37.9331 44.7418 37.6729V18.1387C44.7418 17.8785 44.5302 17.6675 44.2693 17.6675Z" stroke="black" stroke-width="0.75" stroke-linecap="round" stroke-linejoin="round"/>
<path d="M43.0923 38.144V41.4113" stroke="black" stroke-width="0.75" stroke-linecap="round" stroke-linejoin="round"/>
<path d="M43.0923 14.5669V17.4499" stroke="black" stroke-width="0.75" stroke-linecap="round" stroke-linejoin="round"/>
<path d="M23.9587 26.7305H21.6029C21.3419 26.7305 21.1304 26.9414 21.1304 27.2017V30.9333C21.1304 31.1935 21.3419 31.4045 21.6029 31.4045H23.9587C24.2197 31.4045 24.4313 31.1935 24.4313 30.9333V27.2017C24.4313 26.9414 24.2197 26.7305 23.9587 26.7305Z" stroke="black" stroke-width="0.75" stroke-linecap="round" stroke-linejoin="round"/>
<path d="M22.7817 31.4058V34.3879" stroke="black" stroke-width="0.75" stroke-linecap="round" stroke-linejoin="round"/>
<path d="M22.7817 24.0195V26.513" stroke="black" stroke-width="0.75" stroke-linecap="round" stroke-linejoin="round"/>
<path d="M34.114 37.3042H31.7582C31.4972 37.3042 31.2856 37.5152 31.2856 37.7754V41.507C31.2856 41.7672 31.4972 41.9782 31.7582 41.9782H34.114C34.375 41.9782 34.5865 41.7672 34.5865 41.507V37.7754C34.5865 37.5152 34.375 37.3042 34.114 37.3042Z" stroke="black" stroke-width="0.75" stroke-linecap="round" stroke-linejoin="round"/>
<path d="M32.937 41.9785V44.9624" stroke="black" stroke-width="0.75" stroke-linecap="round" stroke-linejoin="round"/>
<path d="M32.937 34.5933V37.0868" stroke="black" stroke-width="0.75" stroke-linecap="round" stroke-linejoin="round"/>
<path d="M39.1916 34.1172H36.8358C36.5749 34.1172 36.3633 34.3282 36.3633 34.5884V38.32C36.3633 38.5802 36.5749 38.7912 36.8358 38.7912H39.1916C39.4526 38.7912 39.6642 38.5802 39.6642 38.32V34.5884C39.6642 34.3282 39.4526 34.1172 39.1916 34.1172Z" stroke="black" stroke-width="0.75" stroke-linecap="round" stroke-linejoin="round"/>
<path d="M38.0146 38.7915V41.7754" stroke="black" stroke-width="0.75" stroke-linecap="round" stroke-linejoin="round"/>
<path d="M38.0146 31.4062V33.8998" stroke="black" stroke-width="0.75" stroke-linecap="round" stroke-linejoin="round"/>
<path d="M64.5808 20.751H62.225C61.964 20.751 61.7524 20.962 61.7524 21.2222V24.9538C61.7524 25.214 61.964 25.425 62.225 25.425H64.5808C64.8418 25.425 65.0533 25.214 65.0533 24.9538V21.2222C65.0533 20.962 64.8418 20.751 64.5808 20.751Z" stroke="black" stroke-width="0.75" stroke-linecap="round" stroke-linejoin="round"/>
<path d="M63.4038 25.4243V28.4064" stroke="black" stroke-width="0.75" stroke-linecap="round" stroke-linejoin="round"/>
<path d="M63.4038 18.0381V20.5316" stroke="black" stroke-width="0.75" stroke-linecap="round" stroke-linejoin="round"/>
<path d="M90.2852 23.0871V10.5066C90.2852 6.28121 86.8501 2.85742 82.6145 2.85742H11.8709C7.63537 2.85742 4.2002 6.28295 4.2002 10.5066V57.6049C4.2002 61.8303 7.63537 65.2541 11.8709 65.2541H57.7819" stroke="black" stroke-width="2" stroke-linecap="round" stroke-linejoin="round"/>
<path d="M51.6548 75.9326H30.3812C28.9391 75.9326 27.769 77.0994 27.769 78.5374C27.769 79.9754 28.9391 81.1422 30.3812 81.1422H51.7001" stroke="black" stroke-width="2" stroke-linecap="round" stroke-linejoin="round"/>
<path d="M39.6086 65.2544C39.6086 65.2544 43.3489 75.9326 35.2754 75.9326" stroke="black" stroke-width="2" stroke-linecap="round" stroke-linejoin="round"/>
<path d="M54.9883 65.2544C54.9883 65.2544 54.2716 67.2975 54.1426 69.598" stroke="black" stroke-width="2" stroke-linecap="round" stroke-linejoin="round"/>
<path d="M75.057 53.394H6.86279V12.326C6.86279 8.98738 9.57605 6.28174 12.924 6.28174H81.5647C84.9127 6.28174 87.6259 8.98738 87.6259 12.326V23.0877" stroke="black" stroke-width="0.5" stroke-miterlimit="10"/>
<path d="M62.9243 10.7429C62.9243 11.282 63.362 11.7184 63.9026 11.7184C64.4431 11.7184 64.8808 11.282 64.8808 10.7429C64.8808 9.74134 63.9026 9.7796 63.9026 9.7796C63.362 9.7796 62.9243 9.34315 62.9243 8.8041C62.9243 8.26506 63.362 7.82861 63.9026 7.82861C64.4431 7.82861 64.8808 8.26506 64.8808 8.8041" stroke="black" stroke-width="0.5" stroke-linecap="round" stroke-linejoin="round"/>
<path d="M63.9043 7.14893V12.2924" stroke="black" stroke-width="0.5" stroke-linecap="round" stroke-linejoin="round"/>
<path d="M70.1523 7.82715H70.1505C69.4504 7.82715 68.8828 8.39312 68.8828 9.09129V10.3502C68.8828 11.0484 69.4504 11.6144 70.1505 11.6144H70.1523C70.8524 11.6144 71.42 11.0484 71.42 10.3502V9.09129C71.42 8.39312 70.8524 7.82715 70.1523 7.82715Z" stroke="black" stroke-width="0.5" stroke-miterlimit="10"/>
<path d="M73.4618 7.82715H73.4601C72.7599 7.82715 72.1924 8.39312 72.1924 9.09129V10.3502C72.1924 11.0484 72.7599 11.6144 73.4601 11.6144H73.4618C74.162 11.6144 74.7295 11.0484 74.7295 10.3502V9.09129C74.7295 8.39312 74.162 7.82715 73.4618 7.82715Z" stroke="black" stroke-width="0.5" stroke-miterlimit="10"/>
<path d="M76.7709 7.82715H76.7692C76.069 7.82715 75.5015 8.39312 75.5015 9.09129V10.3502C75.5015 11.0484 76.069 11.6144 76.7692 11.6144H76.7709C77.471 11.6144 78.0386 11.0484 78.0386 10.3502V9.09129C78.0386 8.39312 77.471 7.82715 76.7709 7.82715Z" stroke="black" stroke-width="0.5" stroke-miterlimit="10"/>
<path d="M80.081 7.82715H80.0792C79.3791 7.82715 78.8115 8.39312 78.8115 9.09129V10.3502C78.8115 11.0484 79.3791 11.6144 80.0792 11.6144H80.081C80.7811 11.6144 81.3487 11.0484 81.3487 10.3502V9.09129C81.3487 8.39312 80.7811 7.82715 80.081 7.82715Z" stroke="black" stroke-width="0.5" stroke-miterlimit="10"/>
<path d="M83.3905 7.82715H83.3888C82.6887 7.82715 82.1211 8.39312 82.1211 9.09129V10.3502C82.1211 11.0484 82.6887 11.6144 83.3888 11.6144H83.3905C84.0907 11.6144 84.6582 11.0484 84.6582 10.3502V9.09129C84.6582 8.39312 84.0907 7.82715 83.3905 7.82715Z" stroke="black" stroke-width="0.5" stroke-miterlimit="10"/>
<path d="M66.3242 8.53332L67.3687 7.87256V11.4911" stroke="black" stroke-width="0.5" stroke-linecap="round" stroke-linejoin="round"/>
<path d="M66.4048 11.4907H68.2967" stroke="black" stroke-width="0.5" stroke-linecap="round" stroke-linejoin="round"/>
<path d="M87.5019 13.1606H61.4521V6.28174H81.132" stroke="black" stroke-width="0.5" stroke-miterlimit="10"/>
<path d="M104.582 18.3704L104.753 20.9317L104.366 22.8722L102.829 22.3836C102.829 22.3836 102.938 20.457 102.428 18.1913C102.277 17.8105 102.169 17.4123 102.109 17.0036C101.996 16.2385 102.052 15.4404 102.303 14.6579C103.185 11.9036 106.167 10.3699 108.929 11.2498C110.31 11.6897 111.384 12.653 112.005 13.8511C112.624 15.0492 112.788 16.4802 112.347 17.8574C112.066 18.7338 111.574 19.485 110.943 20.0762C110.781 20.2274 110.61 20.3683 110.43 20.4987C108.577 22.1019 107.464 23.8616 107.464 23.8616L105.797 23.3313L106.626 21.5942L108.153 19.4989L108.894 18.3825" stroke="black" stroke-width="0.5" stroke-miterlimit="10"/>
<path d="M108.155 19.4951L106.626 21.5905L105.797 23.3276L104.366 22.872L104.753 20.9314L104.582 18.3701L108.155 19.4951Z" stroke="black" stroke-width="0.5" stroke-miterlimit="10"/>
<path d="M108.895 18.3789L108.155 19.4953L104.582 18.3702L104.474 17.0122" stroke="black" stroke-width="0.5" stroke-miterlimit="10"/>
<path d="M104.474 17.0122L105.555 17.3565L105.989 17.1339L105.839 17.6034L106.469 17.28L106.279 17.8729L106.9 17.4156L107.163 17.972L107.189 17.5669L107.717 18.2277L107.782 18.0242L108.895 18.3789" stroke="black" stroke-width="0.5" stroke-miterlimit="10"/>
<path d="M107.345 23.8127L102.878 22.3904C102.752 22.3501 102.616 22.4197 102.576 22.546L102.375 23.1721C102.335 23.2983 102.405 23.4334 102.531 23.4737L106.998 24.896C107.125 24.9364 107.26 24.8667 107.3 24.7405L107.501 24.1143C107.541 23.9881 107.471 23.8531 107.345 23.8127Z" stroke="black" stroke-width="0.5" stroke-miterlimit="10"/>
<path d="M106.998 24.8957L102.531 23.4734C102.405 23.4331 102.269 23.5027 102.229 23.629L102.029 24.2551C101.988 24.3814 102.058 24.5164 102.185 24.5567L106.651 25.9791C106.778 26.0194 106.913 25.9497 106.954 25.8235L107.154 25.1973C107.195 25.0711 107.125 24.9361 106.998 24.8957Z" stroke="black" stroke-width="0.5" stroke-miterlimit="10"/>
<path d="M106.652 25.9812L102.185 24.5588C102.059 24.5185 101.923 24.5882 101.883 24.7144L101.682 25.3406C101.642 25.4668 101.712 25.6018 101.838 25.6421L106.305 27.0645C106.432 27.1048 106.567 27.0352 106.608 26.9089L106.808 26.2828C106.848 26.1565 106.779 26.0215 106.652 25.9812Z" stroke="black" stroke-width="0.5" stroke-miterlimit="10"/>
<path d="M105.111 26.6834L102.938 25.9915C102.821 25.9541 102.695 26.0188 102.658 26.1359L102.422 26.873C102.384 26.9901 102.449 27.1153 102.566 27.1527L104.739 27.8446C104.857 27.882 104.982 27.8174 105.02 27.7003L105.256 26.9631C105.293 26.846 105.228 26.7208 105.111 26.6834Z" stroke="black" stroke-width="0.5" stroke-miterlimit="10"/>
<path d="M109.412 9.73493L110.621 5.96338" stroke="black" stroke-width="0.5" stroke-linecap="round" stroke-linejoin="round"/>
<path d="M113.375 12.5623L116.246 10.4287" stroke="black" stroke-width="0.5" stroke-linecap="round" stroke-linejoin="round"/>
<path d="M114.323 16.4191L117.076 16.3096" stroke="black" stroke-width="0.5" stroke-linecap="round" stroke-linejoin="round"/>
<path d="M112.975 20.4448L114.345 21.3229" stroke="black" stroke-width="0.5" stroke-linecap="round" stroke-linejoin="round"/>
<path d="M105.205 9.66686L104.584 6.50391" stroke="black" stroke-width="0.5" stroke-linecap="round" stroke-linejoin="round"/>
<path d="M101.719 12.018L99.3823 10.0444" stroke="black" stroke-width="0.5" stroke-linecap="round" stroke-linejoin="round"/>
<path d="M100.216 15.9372L98.1284 15.7407" stroke="black" stroke-width="0.5" stroke-linecap="round" stroke-linejoin="round"/>
</svg>
