<svg width="60" height="34" viewBox="0 0 60 34" fill="none" xmlns="http://www.w3.org/2000/svg">
<path d="M24.7097 28.188L4 28.1701V25.6243C4.6406 21.3694 6.91181 19.3202 13.3447 18.7475C13.9629 18.6938 14.5766 18.8728 15.0604 19.2575C15.7727 19.8258 17.1211 20.5909 19.1817 20.5909C21.2424 20.5909 22.6266 19.8034 23.3478 19.2307C23.8272 18.8459 24.4409 18.6669 25.0546 18.7251C27.0929 18.9086 29.3641 19.3202 31.1022 20.224" stroke="black" stroke-width="1.5" stroke-linecap="round" stroke-linejoin="round"/>
<path d="M19.1813 16.7609C23.1423 16.7609 26.3533 13.5539 26.3533 9.59775C26.3533 5.64163 23.1423 2.43457 19.1813 2.43457C15.2203 2.43457 12.0093 5.64163 12.0093 9.59775C12.0093 13.5539 15.2203 16.7609 19.1813 16.7609Z" stroke="black" stroke-width="1.5" stroke-linecap="round" stroke-linejoin="round"/>
<path d="M38.9058 21.5933C39.0357 21.5933 39.1701 21.5933 39.3089 21.5933H39.6763" stroke="black" stroke-width="1.5" stroke-linecap="round" stroke-linejoin="round"/>
<path d="M45.5982 21.5889C49.1685 21.7947 54.038 22.6045 55.2833 25.7409C55.2833 25.7409 56.0001 26.8416 56.0001 31.1368H53.7199L41.0737 31.1278H41.0647L25.6411 31.1144V28.5686C26.3086 24.1257 28.7545 22.09 35.8459 21.6291" stroke="black" stroke-width="1.5" stroke-linecap="round" stroke-linejoin="round"/>
<path d="M38.9058 21.5889L40.8186 23.6873L42.7314 21.5933L38.9058 21.5889Z" stroke="black" stroke-width="1.5" stroke-linecap="round" stroke-linejoin="round"/>
<path d="M38.8521 27.1053L40.8186 23.687L42.9823 27.1053" stroke="black" stroke-width="1.5" stroke-linecap="round" stroke-linejoin="round"/>
<path d="M40.8185 19.7048C44.7795 19.7048 47.9905 16.4977 47.9905 12.5416C47.9905 8.58548 44.7795 5.37842 40.8185 5.37842C36.8575 5.37842 33.6465 8.58548 33.6465 12.5416C33.6465 16.4977 36.8575 19.7048 40.8185 19.7048Z" stroke="black" stroke-width="1.5" stroke-linecap="round" stroke-linejoin="round"/>
<path d="M35.4162 21.656L33.248 25.3964L41.0696 31.1368L47.9908 25.3964L45.5986 21.5889L41.0696 31.1368L35.8418 21.6247" stroke="black" stroke-width="1.5" stroke-linecap="round" stroke-linejoin="round"/>
</svg>
