<svg width="50" height="40" viewBox="0 0 50 40" fill="none" xmlns="http://www.w3.org/2000/svg">
<g clip-path="url(#clip0_332_133)">
<path d="M30.3957 7.08393V5.551V4.01807C30.3957 3.66709 30.1101 3.38322 29.757 3.38322H13.1887C12.8356 3.38322 12.55 3.66709 12.55 4.01807V18.1644" stroke="white" stroke-width="0.5" stroke-linecap="round" stroke-linejoin="round"/>
<path d="M12.55 35.3289V36.392C12.55 36.743 12.8356 37.0269 13.1887 37.0269H29.757C30.1101 37.0269 30.3957 36.743 30.3957 36.392V21.1238" stroke="white" stroke-width="0.5" stroke-linecap="round" stroke-linejoin="round"/>
<path d="M32.6699 6.76848V3.8075C32.6699 2.25666 31.3368 1 29.6917 1H13.1192C11.474 1 10.1409 2.25666 10.1409 3.8075V18.7563" stroke="white" stroke-linecap="round" stroke-linejoin="round"/>
<path d="M10.1598 34.1451V36.6312C10.1598 38.3 11.5201 39.6523 13.199 39.6523H29.5718C31.2506 39.6523 32.6109 38.3 32.6109 36.6312V21.1238" stroke="white" stroke-linecap="round" stroke-linejoin="round"/>
<path d="M8.99708 9.28628H9.56791V14.0213H8.99708C8.65773 14.0213 8.38416 13.8298 8.38416 13.5963V9.71309C8.38416 9.47779 8.66036 9.2881 8.99708 9.2881V9.28628Z" stroke="white" stroke-width="0.5" stroke-miterlimit="10" stroke-linejoin="round"/>
<path d="M8.99708 15.2051H9.56791V18.7563H8.99708C8.65773 18.7563 8.38416 18.5365 8.38416 18.2684V15.695C8.38416 15.4249 8.66036 15.2071 8.99708 15.2071V15.2051Z" stroke="white" stroke-width="0.5" stroke-miterlimit="10" stroke-linejoin="round"/>
<path d="M35.9457 19.7964H24.9404C24.2699 19.7964 23.7262 19.2296 23.7262 18.5305V9.59617C23.7262 8.89709 24.2699 8.33023 24.9404 8.33023H39.3346C40.0051 8.33023 40.5488 8.89709 40.5488 9.59617V14.3922" stroke="white" stroke-linecap="round" stroke-linejoin="round"/>
<path d="M30.5658 10.563H25.969C25.9182 10.563 25.8771 10.6059 25.8771 10.6588V15.5656C25.8771 15.6185 25.9182 15.6615 25.969 15.6615H30.5658C30.6166 15.6615 30.6577 15.6185 30.6577 15.5656V10.6588C30.6577 10.6059 30.6166 10.563 30.5658 10.563Z" stroke="white" stroke-width="0.5" stroke-miterlimit="10"/>
<path d="M28.269 12.9593C28.6629 12.9593 28.9823 12.6264 28.9823 12.2156C28.9823 11.8049 28.6629 11.4719 28.269 11.4719C27.875 11.4719 27.5557 11.8049 27.5557 12.2156C27.5557 12.6264 27.875 12.9593 28.269 12.9593Z" stroke="white" stroke-width="0.5" stroke-miterlimit="10"/>
<path d="M26.4114 15.6615C26.4653 14.6418 27.2721 13.827 28.2675 13.827C29.263 13.827 30.073 14.6434 30.1268 15.6615" stroke="white" stroke-width="0.5" stroke-miterlimit="10"/>
<path d="M32.3475 11.3794H38.6451" stroke="white" stroke-width="0.5" stroke-linecap="round" stroke-linejoin="round"/>
<path d="M32.3475 13.3461H38.6451" stroke="white" stroke-width="0.5" stroke-linecap="round" stroke-linejoin="round"/>
<path d="M32.3475 15.3855H37.4294" stroke="white" stroke-width="0.5" stroke-linecap="round" stroke-linejoin="round"/>
<path d="M25.8771 17.5538H36.3641" stroke="white" stroke-width="0.5" stroke-linecap="round" stroke-linejoin="round"/>
<path d="M40.8356 23.77C43.1801 23.77 45.0807 21.8644 45.0807 19.5136C45.0807 17.1629 43.1801 15.2572 40.8356 15.2572C38.4911 15.2572 36.5906 17.1629 36.5906 19.5136C36.5906 21.8644 38.4911 23.77 40.8356 23.77Z" stroke="white" stroke-linecap="round" stroke-linejoin="round"/>
<path d="M38.4591 19.7407L39.9862 21.5765L42.7131 18.1644" stroke="white" stroke-width="0.5" stroke-linecap="round" stroke-linejoin="round"/>
<path d="M11.8111 33.6568C7.42632 31.1464 5.26771 27.2327 5.39563 22.0271L5.4205 21.0191L12.527 19.2155L19.4275 20.9969L19.5447 21.8902C19.5856 22.205 20.4792 29.6439 13.2181 33.6688L12.5128 34.059L11.8128 33.6585L11.8111 33.6568Z" stroke="white" stroke-width="0.5" stroke-linecap="round" stroke-linejoin="round"/>
<path d="M12.5235 32.5034C19.065 28.879 18.1625 22.0579 18.1625 22.0579L12.5235 20.6016L6.78849 22.0579C6.67479 26.7348 8.52959 30.2172 12.5235 32.5034Z" stroke="white" stroke-width="0.5" stroke-linecap="round" stroke-linejoin="round"/>
<path d="M14.2557 25.607H10.7984C10.5639 25.607 10.3738 25.7902 10.3738 26.016V28.4426C10.3738 28.6685 10.5639 28.8516 10.7984 28.8516H14.2557C14.4902 28.8516 14.6803 28.6685 14.6803 28.4426V26.016C14.6803 25.7902 14.4902 25.607 14.2557 25.607Z" stroke="white" stroke-width="0.5" stroke-linecap="round" stroke-linejoin="round"/>
<path d="M12.5378 23.2335C13.3763 23.2335 14.0568 23.8889 14.0568 24.6967V25.6053H11.017V24.6967C11.017 23.8889 11.6974 23.2335 12.536 23.2335H12.5378Z" stroke="white" stroke-width="0.5" stroke-linecap="round" stroke-linejoin="round"/>
<path d="M12.5236 26.6817V27.6349" stroke="white" stroke-width="0.5" stroke-linecap="round" stroke-linejoin="round"/>
</g>
<defs>
<clipPath id="clip0_332_133">
<rect width="50" height="40" fill="white"/>
</clipPath>
</defs>
</svg>
