<svg width="50" height="40" viewBox="0 0 50 40" fill="none" xmlns="http://www.w3.org/2000/svg">
<g clip-path="url(#clip0_332_51)">
<path d="M31.6218 12.7085C31.6218 8.45123 27.9037 5 23.3172 5C18.7307 5 15.0126 8.45123 15.0126 12.7085V17.186C15.0126 21.4434 18.7307 24.8946 23.3172 24.8946C27.9037 24.8946 31.6218 21.4434 31.6218 17.186V12.7085Z" stroke="#292D30" stroke-width="1.5" stroke-miterlimit="10"/>
<path d="M3.32024 34.1339L3.31073 33.8143C4.10962 28.853 9.30809 27.091 17.7135 26.5842H28.702C30.4995 26.8085 36.1849 26.7167 39.9948 28.9501C39.9948 28.9501 41.8228 29.8612 41.9521 30.6716" stroke="#292D30" stroke-width="1.5" stroke-linecap="round" stroke-linejoin="round"/>
<path d="M3.31073 33.8143V35.8659L30.878 35.8889" stroke="#292D30" stroke-width="1.5" stroke-linecap="round" stroke-linejoin="round"/>
<path d="M46.6394 22.4399V21.8619" stroke="#292D30" stroke-linecap="round" stroke-linejoin="round"/>
<path d="M46.6394 27.0946V26.5247" stroke="#292D30" stroke-linecap="round" stroke-linejoin="round"/>
<path d="M45.4879 26.1596C45.4879 26.1596 47.1922 27.054 47.7997 25.827C48.3044 24.8048 47.2316 24.4316 46.8579 24.3363C46.6984 24.2957 46.5433 24.2389 46.3991 24.1659C46.0167 23.9671 45.3022 23.6507 45.619 23.0301C46.0036 22.2736 47.2534 22.6306 47.6511 22.8192" stroke="#292D30" stroke-linecap="round" stroke-linejoin="round"/>
<path d="M39.7653 19.2699V18.6918" stroke="#292D30" stroke-linecap="round" stroke-linejoin="round"/>
<path d="M39.7653 23.9246V23.3546" stroke="#292D30" stroke-linecap="round" stroke-linejoin="round"/>
<path d="M38.6138 22.9896C38.6138 22.9896 40.3182 23.884 40.9256 22.6569C41.4303 21.6347 40.3575 21.2615 39.9838 21.1662C39.8243 21.1256 39.6692 21.0689 39.525 20.9958C39.1426 20.7971 38.4281 20.4807 38.7449 19.8601C39.1295 19.1035 40.3793 19.4605 40.777 19.6491" stroke="#292D30" stroke-linecap="round" stroke-linejoin="round"/>
<path d="M43.5301 14.0371V13.4591" stroke="#292D30" stroke-linecap="round" stroke-linejoin="round"/>
<path d="M43.5301 18.6918V18.1219" stroke="#292D30" stroke-linecap="round" stroke-linejoin="round"/>
<path d="M42.3786 17.7568C42.3786 17.7568 44.0829 18.6513 44.6904 17.4242C45.1951 16.402 44.1223 16.0288 43.7486 15.9335C43.5891 15.8929 43.434 15.8361 43.2898 15.7631C42.9074 15.5643 42.1929 15.2479 42.5097 14.6273C42.8943 13.8708 44.1441 14.2278 44.5418 14.4164" stroke="#292D30" stroke-linecap="round" stroke-linejoin="round"/>
<path d="M47.2949 30.9989H36.4747C35.222 30.9989 34.2066 31.9414 34.2066 33.1042V37.4891C34.2066 38.6518 35.222 39.5944 36.4747 39.5944H47.2949C48.5475 39.5944 49.563 38.6518 49.563 37.4891V33.1042C49.563 31.9414 48.5475 30.9989 47.2949 30.9989Z" stroke="#292D30" stroke-width="1.5" stroke-linecap="round" stroke-linejoin="round"/>
<mask id="path-14-inside-1_332_51" fill="white">
<path d="M37.0668 36.6352H36.0661V33.6254H37.1105C37.4252 33.6254 37.6939 33.6862 37.919 33.8059C38.1419 33.9256 38.3145 34.098 38.4347 34.3211C38.5548 34.5442 38.6138 34.8119 38.6138 35.1242C38.6138 35.4366 38.5527 35.7083 38.4325 35.9335C38.3123 36.1586 38.1375 36.333 37.9059 36.4547C37.6765 36.5764 37.3968 36.6372 37.0668 36.6372V36.6352ZM36.4594 36.3127H37.0428C37.3116 36.3127 37.5323 36.2641 37.7092 36.1687C37.8862 36.0734 38.0173 35.9355 38.1025 35.759C38.1899 35.5826 38.2315 35.3696 38.2315 35.1262C38.2315 34.8829 38.1878 34.674 38.1025 34.4975C38.0173 34.3211 37.8884 34.1872 37.7202 34.0919C37.5497 33.9965 37.3378 33.9499 37.0843 33.9499H36.4572V36.3127H36.4594Z"/>
</mask>
<path d="M37.0668 36.6352H38.0668V35.6352H37.0668V36.6352ZM36.0661 36.6352H35.0661V37.6352H36.0661V36.6352ZM36.0661 33.6254V32.6254H35.0661V33.6254H36.0661ZM37.919 33.8059L38.392 32.9248L38.3885 32.9229L37.919 33.8059ZM37.9059 36.4547L37.4408 35.5695L37.4373 35.5713L37.9059 36.4547ZM37.0668 36.6372H36.0668V37.6372H37.0668V36.6372ZM38.1025 35.759L37.2064 35.3152L37.2021 35.3242L38.1025 35.759ZM37.7202 34.0919L38.2131 33.2218L38.2083 33.2191L37.7202 34.0919ZM36.4572 33.9499V32.9499H35.4572V33.9499H36.4572ZM36.4572 36.3127H35.4572V37.3127H36.4572V36.3127ZM37.0668 35.6352H36.0661V37.6352H37.0668V35.6352ZM37.0661 36.6352V33.6254H35.0661V36.6352H37.0661ZM36.0661 34.6254H37.1105V32.6254H36.0661V34.6254ZM37.1105 34.6254C37.2959 34.6254 37.3967 34.6607 37.4495 34.6888L38.3885 32.9229C37.9912 32.7117 37.5544 32.6254 37.1105 32.6254V34.6254ZM37.446 34.6869C37.4959 34.7138 37.527 34.7446 37.5543 34.7953L39.3151 33.8468C39.102 33.4513 38.7878 33.1374 38.392 32.9249L37.446 34.6869ZM37.5543 34.7953C37.5786 34.8404 37.6138 34.9365 37.6138 35.1242H39.6138C39.6138 34.6873 39.5311 34.2479 39.3151 33.8468L37.5543 34.7953ZM37.6138 35.1242C37.6138 35.3075 37.5781 35.4105 37.5503 35.4625L39.3147 36.4044C39.5273 36.0061 39.6138 35.5656 39.6138 35.1242H37.6138ZM37.5503 35.4625C37.525 35.5099 37.496 35.5404 37.4408 35.5695L38.371 37.34C38.779 37.1256 39.0996 36.8073 39.3147 36.4044L37.5503 35.4625ZM37.4373 35.5713C37.386 35.5985 37.2765 35.6372 37.0668 35.6372V37.6372C37.517 37.6372 37.9669 37.5543 38.3745 37.3381L37.4373 35.5713ZM38.0668 36.6372V36.6352H36.0668V36.6372H38.0668ZM36.4594 37.3127H37.0428V35.3127H36.4594V37.3127ZM37.0428 37.3127C37.4285 37.3127 37.8232 37.2432 38.1834 37.0492L37.2351 35.2883C37.2413 35.285 37.1946 35.3127 37.0428 35.3127V37.3127ZM38.1834 37.0492C38.5454 36.8542 38.8259 36.5606 39.003 36.1939L37.2021 35.3242C37.203 35.3221 37.208 35.3132 37.2181 35.3027C37.2281 35.2922 37.2358 35.2879 37.2351 35.2883L38.1834 37.0492ZM38.9986 36.2029C39.172 35.8528 39.2315 35.4782 39.2315 35.1262H37.2315C37.2315 35.2611 37.2079 35.3123 37.2065 35.3152L38.9986 36.2029ZM39.2315 35.1262C39.2315 34.7634 39.1661 34.4002 39.003 34.0626L37.2021 34.9324C37.2095 34.9477 37.2315 35.0023 37.2315 35.1262H39.2315ZM39.003 34.0626C38.8258 33.6956 38.551 33.4132 38.2131 33.2218L37.2272 34.9619C37.231 34.9641 37.2254 34.9614 37.2167 34.9521C37.2127 34.9479 37.2091 34.9435 37.2063 34.9394C37.2036 34.9354 37.2022 34.9328 37.2021 34.9324L39.003 34.0626ZM38.2083 33.2191C37.8484 33.0178 37.4556 32.9499 37.0843 32.9499V34.9499C37.22 34.9499 37.2511 34.9753 37.232 34.9646L38.2083 33.2191ZM37.0843 32.9499H36.4572V34.9499H37.0843V32.9499ZM35.4572 33.9499V36.3127H37.4572V33.9499H35.4572ZM36.4572 37.3127H36.4594V35.3127H36.4572V37.3127Z" fill="#292D30" mask="url(#path-14-inside-1_332_51)"/>
<mask id="path-16-inside-2_332_51" fill="white">
<path d="M39.0486 36.6352V33.6254H41.0064V33.9479H39.4419V34.964H40.9059V35.2865H39.4419V36.3087H41.0326V36.6312H39.0508L39.0486 36.6352Z"/>
</mask>
<path d="M39.0486 36.6352H38.0486L39.9292 37.1092L39.0486 36.6352ZM39.0486 33.6254V32.6254H38.0486V33.6254H39.0486ZM41.0064 33.6254H42.0064V32.6254H41.0064V33.6254ZM41.0064 33.9479V34.9479H42.0064V33.9479H41.0064ZM39.4419 33.9479V32.9479H38.4419V33.9479H39.4419ZM39.4419 34.964H38.4419V35.964H39.4419V34.964ZM40.9059 34.964H41.9059V33.964H40.9059V34.964ZM40.9059 35.2865V36.2865H41.9059V35.2865H40.9059ZM39.4419 35.2865V34.2865H38.4419V35.2865H39.4419ZM39.4419 36.3087H38.4419V37.3087H39.4419V36.3087ZM41.0326 36.3087H42.0326V35.3087H41.0326V36.3087ZM41.0326 36.6312V37.6312H42.0326V36.6312H41.0326ZM39.0508 36.6312V35.6312H38.4534L38.1703 36.1572L39.0508 36.6312ZM40.0486 36.6352V33.6254H38.0486V36.6352H40.0486ZM39.0486 34.6254H41.0064V32.6254H39.0486V34.6254ZM40.0064 33.6254V33.9479H42.0064V33.6254H40.0064ZM41.0064 32.9479H39.4419V34.9479H41.0064V32.9479ZM38.4419 33.9479V34.964H40.4419V33.9479H38.4419ZM39.4419 35.964H40.9059V33.964H39.4419V35.964ZM39.9059 34.964V35.2865H41.9059V34.964H39.9059ZM40.9059 34.2865H39.4419V36.2865H40.9059V34.2865ZM38.4419 35.2865V36.3087H40.4419V35.2865H38.4419ZM39.4419 37.3087H41.0326V35.3087H39.4419V37.3087ZM40.0326 36.3087V36.6312H42.0326V36.3087H40.0326ZM41.0326 35.6312H39.0508V37.6312H41.0326V35.6312ZM38.1703 36.1572L38.1681 36.1613L39.9292 37.1092L39.9314 37.1051L38.1703 36.1572Z" fill="#292D30" mask="url(#path-16-inside-2_332_51)"/>
<mask id="path-18-inside-3_332_51" fill="white">
<path d="M41.4915 33.6254H41.9613L43.0625 36.1241H43.0997L44.2009 33.6254H44.6707V36.6352H44.3036V34.3474H44.2709L43.257 36.6352H42.903L41.8892 34.3474H41.8564V36.6352H41.4893V33.6254H41.4915Z"/>
</mask>
<path d="M41.9613 33.6254L42.8764 33.2221L42.6134 32.6254H41.9613V33.6254ZM43.0625 36.1241L42.1475 36.5274L42.4105 37.1241H43.0625V36.1241ZM43.0997 36.1241V37.1241H43.7518L44.0148 36.5274L43.0997 36.1241ZM44.2009 33.6254V32.6254H43.5488L43.2859 33.2221L44.2009 33.6254ZM44.6707 33.6254H45.6707V32.6254H44.6707V33.6254ZM44.6707 36.6352V37.6352H45.6707V36.6352H44.6707ZM44.3036 36.6352H43.3036V37.6352H44.3036V36.6352ZM44.3036 34.3474H45.3036V33.3474H44.3036V34.3474ZM44.2709 34.3474V33.3474H43.6202L43.3566 33.9423L44.2709 34.3474ZM43.257 36.6352V37.6352H43.9076L44.1713 37.0404L43.257 36.6352ZM42.903 36.6352L41.9888 37.0404L42.2524 37.6352H42.903V36.6352ZM41.8892 34.3474L42.8034 33.9423L42.5398 33.3474H41.8892V34.3474ZM41.8564 34.3474V33.3474H40.8564V34.3474H41.8564ZM41.8564 36.6352V37.6352H42.8564V36.6352H41.8564ZM41.4893 36.6352H40.4893V37.6352H41.4893V36.6352ZM41.4893 33.6254V32.6254H40.4893V33.6254H41.4893ZM41.4915 34.6254H41.9613V32.6254H41.4915V34.6254ZM41.0462 34.0287L42.1475 36.5274L43.9776 35.7208L42.8764 33.2221L41.0462 34.0287ZM43.0625 37.1241H43.0997V35.1241H43.0625V37.1241ZM44.0148 36.5274L45.116 34.0287L43.2859 33.2221L42.1846 35.7208L44.0148 36.5274ZM44.2009 34.6254H44.6707V32.6254H44.2009V34.6254ZM43.6707 33.6254V36.6352H45.6707V33.6254H43.6707ZM44.6707 35.6352H44.3036V37.6352H44.6707V35.6352ZM45.3036 36.6352V34.3474H43.3036V36.6352H45.3036ZM44.3036 33.3474H44.2709V35.3474H44.3036V33.3474ZM43.3566 33.9423L42.3428 36.2301L44.1713 37.0404L45.1851 34.7526L43.3566 33.9423ZM43.257 35.6352H42.903V37.6352H43.257V35.6352ZM43.8173 36.2301L42.8034 33.9423L40.9749 34.7526L41.9888 37.0404L43.8173 36.2301ZM41.8892 33.3474H41.8564V35.3474H41.8892V33.3474ZM40.8564 34.3474V36.6352H42.8564V34.3474H40.8564ZM41.8564 35.6352H41.4893V37.6352H41.8564V35.6352ZM42.4893 36.6352V33.6254H40.4893V36.6352H42.4893ZM41.4893 34.6254H41.4915V32.6254H41.4893V34.6254Z" fill="#292D30" mask="url(#path-18-inside-3_332_51)"/>
<mask id="path-20-inside-4_332_51" fill="white">
<path d="M47.9701 35.1303C47.9701 35.4487 47.909 35.7225 47.7844 35.9538C47.6599 36.185 47.4916 36.3634 47.2753 36.4892C47.059 36.6149 46.8143 36.6778 46.5368 36.6778C46.2593 36.6778 46.0146 36.6149 45.7982 36.4892C45.5819 36.3634 45.4137 36.185 45.2891 35.9538C45.1646 35.7225 45.1034 35.4487 45.1034 35.1303C45.1034 34.8119 45.1646 34.5381 45.2891 34.3069C45.4137 34.0756 45.5819 33.8972 45.7982 33.7714C46.0146 33.6457 46.2593 33.5828 46.5368 33.5828C46.8143 33.5828 47.059 33.6457 47.2753 33.7714C47.4916 33.8972 47.6599 34.0756 47.7844 34.3069C47.909 34.5381 47.9701 34.8119 47.9701 35.1303ZM47.59 35.1303C47.59 34.8687 47.5441 34.6496 47.4501 34.4711C47.3562 34.2927 47.2294 34.1568 47.0721 34.0635C46.9126 33.9722 46.7356 33.9256 46.539 33.9256C46.3423 33.9256 46.1653 33.9722 46.0058 34.0635C45.8463 34.1547 45.7218 34.2906 45.6278 34.4711C45.5338 34.6496 45.488 34.8707 45.488 35.1303C45.488 35.3899 45.5338 35.611 45.6278 35.7895C45.7218 35.9679 45.8463 36.1038 46.0058 36.1971C46.1653 36.2884 46.3423 36.335 46.539 36.335C46.7356 36.335 46.9126 36.2884 47.0721 36.1971C47.2316 36.1059 47.3562 35.97 47.4501 35.7895C47.5441 35.611 47.59 35.3899 47.59 35.1303Z"/>
</mask>
<path d="M47.0721 34.0635L47.5822 33.2033L47.5755 33.1994L47.5687 33.1955L47.0721 34.0635ZM45.6278 34.4711L46.5127 34.937L46.5148 34.9328L45.6278 34.4711ZM46.0058 36.1971L45.5009 37.0604L45.5092 37.0651L46.0058 36.1971ZM47.4501 35.7895L46.5652 35.3236L46.5631 35.3278L47.4501 35.7895ZM46.9701 35.1303C46.9701 35.3203 46.9342 35.4236 46.904 35.4795L48.6648 36.428C48.8838 36.0215 48.9701 35.5771 48.9701 35.1303H46.9701ZM46.904 35.4795C46.8603 35.5607 46.8177 35.5985 46.7727 35.6247L47.7779 37.3537C48.1656 37.1284 48.4595 36.8092 48.6648 36.428L46.904 35.4795ZM46.7727 35.6247C46.7241 35.653 46.6559 35.6778 46.5368 35.6778V37.6778C46.9726 37.6778 47.3939 37.5769 47.7779 37.3537L46.7727 35.6247ZM46.5368 35.6778C46.4176 35.6778 46.3495 35.653 46.3008 35.6247L45.2957 37.3537C45.6796 37.5769 46.1009 37.6778 46.5368 37.6778V35.6778ZM46.3008 35.6247C46.2558 35.5985 46.2133 35.5607 46.1695 35.4795L44.4087 36.428C44.6141 36.8092 44.908 37.1284 45.2957 37.3537L46.3008 35.6247ZM46.1695 35.4795C46.1394 35.4236 46.1034 35.3203 46.1034 35.1303H44.1034C44.1034 35.5771 44.1898 36.0215 44.4087 36.428L46.1695 35.4795ZM46.1034 35.1303C46.1034 34.9403 46.1394 34.837 46.1695 34.7811L44.4087 33.8326C44.1898 34.2391 44.1034 34.6835 44.1034 35.1303H46.1034ZM46.1695 34.7811C46.2133 34.6999 46.2558 34.6621 46.3008 34.636L45.2957 32.9069C44.908 33.1322 44.6141 33.4514 44.4087 33.8326L46.1695 34.7811ZM46.3008 34.636C46.3495 34.6077 46.4176 34.5828 46.5368 34.5828V32.5828C46.1009 32.5828 45.6796 32.6837 45.2957 32.9069L46.3008 34.636ZM46.5368 34.5828C46.6559 34.5828 46.7241 34.6077 46.7727 34.636L47.7779 32.9069C47.3939 32.6837 46.9726 32.5828 46.5368 32.5828V34.5828ZM46.7727 34.636C46.8177 34.6621 46.8603 34.6999 46.904 34.7811L48.6648 33.8326C48.4595 33.4514 48.1656 33.1322 47.7779 32.9069L46.7727 34.636ZM46.904 34.7811C46.9342 34.837 46.9701 34.9403 46.9701 35.1303H48.9701C48.9701 34.6835 48.8838 34.2391 48.6648 33.8326L46.904 34.7811ZM48.59 35.1303C48.59 34.756 48.5247 34.3658 48.335 34.0053L46.5652 34.937C46.5634 34.9335 46.59 34.9813 46.59 35.1303H48.59ZM48.335 34.0053C48.1626 33.6779 47.9121 33.399 47.5822 33.2033L46.562 34.9236C46.5603 34.9226 46.5582 34.9211 46.556 34.9194C46.5539 34.9177 46.5526 34.9163 46.5521 34.9158C46.5508 34.9144 46.5561 34.9196 46.5652 34.937L48.335 34.0053ZM47.5687 33.1955C47.2514 33.0139 46.902 32.9256 46.539 32.9256V34.9256C46.5574 34.9256 46.566 34.9276 46.5679 34.9281C46.5696 34.9286 46.5714 34.9291 46.5755 34.9314L47.5687 33.1955ZM46.539 32.9256C46.1759 32.9256 45.8265 33.0139 45.5092 33.1955L46.5024 34.9314C46.5065 34.9291 46.5084 34.9286 46.51 34.9281C46.5119 34.9276 46.5205 34.9256 46.539 34.9256V32.9256ZM45.5092 33.1955C45.1608 33.3949 44.9105 33.6834 44.7408 34.0094L46.5148 34.9328C46.5256 34.9122 46.5307 34.9082 46.5265 34.9127C46.5245 34.9148 46.5212 34.9181 46.5165 34.9219C46.5118 34.9256 46.5069 34.9289 46.5024 34.9314L45.5092 33.1955ZM44.7429 34.0053C44.5529 34.3662 44.488 34.7588 44.488 35.1303H46.488C46.488 34.9826 46.5148 34.933 46.5127 34.937L44.7429 34.0053ZM44.488 35.1303C44.488 35.5018 44.5529 35.8944 44.7429 36.2553L46.5127 35.3236C46.5148 35.3276 46.488 35.278 46.488 35.1303H44.488ZM44.7429 36.2553C44.9127 36.5779 45.1606 36.8612 45.5009 37.0603L46.5107 35.3339C46.5134 35.3355 46.5166 35.3377 46.5199 35.3403C46.5231 35.3429 46.5254 35.3452 46.5265 35.3464C46.529 35.3491 46.5234 35.3439 46.5127 35.3236L44.7429 36.2553ZM45.5092 37.0651C45.8265 37.2467 46.1759 37.335 46.539 37.335V35.335C46.5205 35.335 46.5119 35.333 46.51 35.3325C46.5084 35.332 46.5065 35.3315 46.5024 35.3292L45.5092 37.0651ZM46.539 37.335C46.902 37.335 47.2514 37.2467 47.5687 37.0651L46.5755 35.3292C46.5714 35.3315 46.5696 35.332 46.5679 35.3325C46.566 35.333 46.5574 35.335 46.539 35.335V37.335ZM47.5687 37.0651C47.9171 36.8658 48.1675 36.5772 48.3371 36.2512L46.5631 35.3278C46.5524 35.3484 46.5472 35.3524 46.5514 35.3479C46.5534 35.3458 46.5568 35.3425 46.5614 35.3387C46.5661 35.335 46.571 35.3317 46.5755 35.3292L47.5687 37.0651ZM48.335 36.2553C48.525 35.8944 48.59 35.5018 48.59 35.1303H46.59C46.59 35.278 46.5631 35.3276 46.5652 35.3236L48.335 36.2553Z" fill="#292D30" mask="url(#path-20-inside-4_332_51)"/>
</g>
<defs>
<clipPath id="clip0_332_51">
<rect width="50" height="40" fill="white"/>
</clipPath>
</defs>
</svg>
