<svg width="45" height="43" viewBox="0 0 45 43" fill="none" xmlns="http://www.w3.org/2000/svg">
<g clip-path="url(#clip0_426_39)">
<path d="M21.0391 39.9246V13.9277" stroke="black" stroke-linecap="round" stroke-linejoin="round"/>
<path d="M23.4756 13.9131V39.9242" stroke="black" stroke-linecap="round" stroke-linejoin="round"/>
<path d="M21.0391 7.3615V2.59668H23.4757V7.33768" stroke="black" stroke-linecap="round" stroke-linejoin="round"/>
<path d="M24.6209 0.357422H19.8984C19.7032 0.357422 19.5449 0.517418 19.5449 0.714784V2.23953C19.5449 2.43689 19.7032 2.59689 19.8984 2.59689H24.6209C24.8161 2.59689 24.9743 2.43689 24.9743 2.23953V0.714784C24.9743 0.517418 24.8161 0.357422 24.6209 0.357422Z" stroke="black" stroke-linecap="round" stroke-linejoin="round"/>
<path d="M25.0075 13.8942L19.5121 13.918C18.8852 13.918 18.4375 13.3081 18.626 12.703L20.0635 8.12397C20.186 7.73802 20.5395 7.47119 20.9448 7.47119H23.6077C24.013 7.47119 24.3712 7.73802 24.489 8.12874L25.8841 12.6791C26.0679 13.2795 25.6249 13.8846 25.0075 13.8894V13.8942Z" stroke="black" stroke-linecap="round" stroke-linejoin="round"/>
<path d="M15.044 29.6802H1.48464C0.859938 29.6802 0.353516 30.1922 0.353516 30.8237V31.386C0.353516 32.0176 0.859938 32.5295 1.48464 32.5295H15.044C15.6687 32.5295 16.1752 32.0176 16.1752 31.386V30.8237C16.1752 30.1922 15.6687 29.6802 15.044 29.6802Z" stroke="black" stroke-linecap="round" stroke-linejoin="round"/>
<path d="M43.1666 20.2793H29.6072C28.9825 20.2793 28.4761 20.7913 28.4761 21.4229V21.9851C28.4761 22.6167 28.9825 23.1287 29.6072 23.1287H43.1666C43.7913 23.1287 44.2977 22.6167 44.2977 21.9851V21.4229C44.2977 20.7913 43.7913 20.2793 43.1666 20.2793Z" stroke="black" stroke-linecap="round" stroke-linejoin="round"/>
<path d="M25.9499 10.497L42.2287 4.76973L41.5595 2.82568L25.3467 8.53394" stroke="black" stroke-linecap="round" stroke-linejoin="round"/>
<path d="M18.461 10.9541L2.78076 16.4718L3.45001 18.4158L17.6928 13.4032" stroke="black" stroke-width="1.1" stroke-linecap="round" stroke-linejoin="round"/>
<path d="M1.15525 15.228L1.15079 15.2296C0.560802 15.4372 0.248982 16.089 0.454323 16.6855L1.56199 19.903C1.76733 20.4995 2.41207 20.8147 3.00207 20.6072L3.00652 20.6056C3.59651 20.398 3.90833 19.7462 3.70299 19.1497L2.59532 15.9321C2.38998 15.3357 1.74524 15.0204 1.15525 15.228Z" stroke="black" stroke-width="1.1" stroke-linecap="round" stroke-linejoin="round"/>
<path d="M42.0381 0.724106L42.0336 0.725673C41.4436 0.933271 41.1318 1.5851 41.3371 2.18158L42.4448 5.39912C42.6501 5.99559 43.2949 6.31084 43.8849 6.10324L43.8893 6.10168C44.4793 5.89408 44.7911 5.24225 44.5858 4.64577L43.4781 1.42823C43.2728 0.831757 42.6281 0.516508 42.0381 0.724106Z" stroke="black" stroke-width="1.1" stroke-linecap="round" stroke-linejoin="round"/>
<path d="M0.546875 30.1851L8.26682 16.7197L15.9066 30.0898" stroke="black" stroke-width="1.1" stroke-linecap="round" stroke-linejoin="round"/>
<path d="M28.561 20.9843L30.7243 17.0676L35.4892 8.44805L36.3847 6.82324L37.2849 8.44805L42.0167 17.0104L44.18 20.9176" stroke="black" stroke-width="1.1" stroke-linecap="round" stroke-linejoin="round"/>
<path d="M11.8769 39.9243H32.6472C33.5616 39.9243 34.3062 40.6772 34.3062 41.6015V42.3591H10.2227V41.6015C10.2227 40.6772 10.9673 39.9243 11.8816 39.9243H11.8769Z" stroke="black" stroke-width="1.1" stroke-linecap="round" stroke-linejoin="round"/>
</g>
<defs>
<clipPath id="clip0_426_39">
<rect width="45" height="42.7119" fill="white"/>
</clipPath>
</defs>
</svg>
