<svg width="50" height="40" viewBox="0 0 50 40" fill="none" xmlns="http://www.w3.org/2000/svg">
<g clip-path="url(#clip0_332_106)">
<path d="M17.6797 37.8132V31.2401C17.7825 29.0756 18.4921 27.3627 20.3428 26.4962L25.2509 24.2454V29.0474" stroke="#292D30" stroke-width="1.5" stroke-linecap="round" stroke-linejoin="round"/>
<path d="M45.6336 39.5992V31.2401C45.5308 29.0756 44.8212 27.3627 42.9705 26.4962L38.0624 24.345V29.1703" stroke="#292D30" stroke-width="1.5" stroke-linecap="round" stroke-linejoin="round"/>
<path d="M17.4218 39.7071H47.0967" stroke="#292D30" stroke-width="1.5" stroke-linecap="round" stroke-linejoin="round"/>
<path d="M25.2493 26.0265C27.4977 27.3593 34.8094 27.4888 38.0607 25.819" stroke="#292D30" stroke-width="1.5" stroke-linecap="round" stroke-linejoin="round"/>
<path d="M40.7306 29.3014H23.0581C22.3131 29.3014 21.7367 29.9437 21.8294 30.6708L22.9671 39.7071H41.0019L41.9879 30.6757C42.0688 29.9404 41.484 29.2997 40.7339 29.2997L40.7306 29.3014Z" stroke="#292D30" stroke-width="1.5" stroke-linecap="round" stroke-linejoin="round"/>
<path d="M31.9052 36.0653C32.8361 36.0653 33.5907 35.3222 33.5907 34.4055C33.5907 33.4887 32.8361 32.7456 31.9052 32.7456C30.9743 32.7456 30.2197 33.4887 30.2197 34.4055C30.2197 35.3222 30.9743 36.0653 31.9052 36.0653Z" stroke="#292D30" stroke-width="1.5" stroke-linecap="round" stroke-linejoin="round"/>
<path d="M29.131 21.0884C28.3405 22.4644 27.0478 23.5168 25.2493 24.2438" stroke="#292D30" stroke-width="1.5" stroke-linecap="round" stroke-linejoin="round"/>
<path d="M38.0624 24.3434C36.5303 23.7143 34.474 22.6619 34.0493 21.0884" stroke="#292D30" stroke-width="1.5" stroke-linecap="round" stroke-linejoin="round"/>
<path d="M25.7818 11.1923V16.1437C25.7818 18.1438 27.0359 19.8601 28.8107 20.5672C28.4685 22.6121 26.5032 24.1226 24.2598 23.779C22.6199 23.5284 21.2849 22.2453 20.995 20.6369C20.7961 19.5348 21.0692 18.4973 21.644 17.6873H21.649C21.6574 17.6691 21.6675 17.6525 21.681 17.6392C21.74 17.5728 21.7889 17.5064 21.8378 17.44C23.1727 15.6971 23.5317 13.8829 23.5317 11.9807C23.4559 11.5375 23.4154 11.0778 23.4154 10.613C23.4154 10.4404 23.4205 10.2628 23.434 10.0951C23.439 10.0237 23.4424 9.95735 23.4525 9.89095C23.8216 5.6915 27.3966 2.39999 31.7553 2.39999C36.114 2.39999 39.6889 5.6915 40.058 9.89095C40.0664 9.95237 40.0715 10.0154 40.0766 10.0818C40.09 10.2545 40.0951 10.4354 40.0951 10.613C40.0951 11.096 40.0546 11.5691 39.9687 12.0289C39.9737 13.8564 40.3142 15.4847 41.2311 16.9885C42.175 17.845 42.7042 19.1347 42.4919 20.5356C42.2357 22.227 40.8519 23.5998 39.136 23.862C36.8606 24.2106 34.8701 22.6868 34.5009 20.6153C36.3381 19.9348 37.641 18.1869 37.641 16.142V11.1906" stroke="#292D30" stroke-width="1.5" stroke-miterlimit="10"/>
<path d="M37.6377 11.1923V16.1436C37.6377 18.1869 36.3348 19.9348 34.4976 20.617C33.9666 20.8162 33.3919 20.9224 32.7902 20.9224H30.6344C29.9872 20.9224 29.372 20.7979 28.8107 20.5688C27.0359 19.8617 25.7819 18.1438 25.7819 16.1453V11.1939" stroke="#292D30" stroke-width="1.5" stroke-miterlimit="10"/>
<path d="M36.6668 3.98184C33.6615 8.93155 29.2438 11.335 23.4137 11.1923" stroke="#292D30" stroke-width="1.5" stroke-linecap="round" stroke-linejoin="round"/>
<path d="M34.5515 9.89096C36.2589 11.0861 38.0894 11.5674 40.0732 11.1491" stroke="#292D30" stroke-width="1.5" stroke-linecap="round" stroke-linejoin="round"/>
<path d="M34.511 17.6392C34.511 17.6392 37.6376 16.8673 37.6376 13.79" stroke="#292D30" stroke-width="1.5" stroke-linecap="round" stroke-linejoin="round"/>
<path d="M33.3919 16.6034H32.0873C31.4683 16.6034 30.9664 17.0976 30.9664 17.7072V17.7205C30.9664 18.3301 31.4683 18.8243 32.0873 18.8243H33.3919C34.0109 18.8243 34.5127 18.3301 34.5127 17.7205V17.7072C34.5127 17.0976 34.0109 16.6034 33.3919 16.6034Z" stroke="#292D30" stroke-width="1.5" stroke-linecap="round" stroke-linejoin="round"/>
<path d="M15.4946 20.8H10.2485C6.7984 20.8 4 18.1146 4 14.8007C4 11.4868 6.79986 8.8 10.2485 8.8C13.6972 8.8 16.5 11.4854 16.5 14.7993C16.5 16.7004 15.5794 18.3938 14.1429 19.4938L15.6276 20.4661C15.7825 20.5489 15.7372 20.8 15.4946 20.8Z" stroke="#292D30" stroke-width="1.5" stroke-linecap="round" stroke-linejoin="round"/>
<path d="M6.63823 14.6893C6.63823 14.572 6.69566 14.4917 6.73797 14.4555C6.7787 14.4206 6.81469 14.4144 6.83312 14.4144C6.85156 14.4144 6.88755 14.4206 6.92828 14.4555C6.97059 14.4917 7.02802 14.572 7.02802 14.6893C7.02802 14.8067 6.97059 14.887 6.92828 14.9232C6.88755 14.958 6.85156 14.9642 6.83312 14.9642C6.81469 14.9642 6.7787 14.958 6.73797 14.9232C6.69566 14.887 6.63823 14.8067 6.63823 14.6893Z" fill="#292D30" stroke="#292D30" stroke-width="1.5"/>
<path d="M12.6722 14.6893C12.6722 14.572 12.7296 14.4917 12.7719 14.4555C12.8126 14.4206 12.8486 14.4144 12.8671 14.4144C12.8855 14.4144 12.9215 14.4206 12.9622 14.4555C13.0045 14.4917 13.062 14.572 13.062 14.6893C13.062 14.8067 13.0045 14.887 12.9622 14.9232C12.9215 14.958 12.8855 14.9642 12.8671 14.9642C12.8486 14.9642 12.8126 14.958 12.7719 14.9232C12.7296 14.887 12.6722 14.8067 12.6722 14.6893Z" fill="#292D30" stroke="#292D30" stroke-width="1.5"/>
<path d="M9.65599 14.6893C9.65599 14.572 9.71342 14.4917 9.75573 14.4555C9.79646 14.4206 9.83245 14.4144 9.85088 14.4144C9.86932 14.4144 9.90531 14.4206 9.94604 14.4555C9.98835 14.4917 10.0458 14.572 10.0458 14.6893C10.0458 14.8067 9.98835 14.887 9.94604 14.9232C9.90531 14.958 9.86932 14.9642 9.85088 14.9642C9.83245 14.9642 9.79646 14.958 9.75573 14.9232C9.71342 14.887 9.65599 14.8067 9.65599 14.6893Z" fill="#292D30" stroke="#292D30" stroke-width="1.5"/>
</g>
<defs>
<clipPath id="clip0_332_106">
<rect width="50" height="40" fill="white"/>
</clipPath>
</defs>
</svg>
