<svg width="50" height="40" viewBox="0 0 50 40" fill="none" xmlns="http://www.w3.org/2000/svg">
<g clip-path="url(#clip0_332_75)">
<path d="M12.2452 3.70296C12.2452 1.12946 10.8413 0.487671 9.11002 0.487671C7.37869 0.487671 5.97485 1.43136 5.97485 3.70296C5.97485 5.47843 7.37869 6.91824 9.11002 6.91824C10.8413 6.91824 12.2452 5.47843 12.2452 3.70296Z" stroke="#0070E7" stroke-width="1.5" stroke-miterlimit="10"/>
<path d="M4.56417 12.7471L3.13515 19.7984C2.28551 21.9686 0.366401 20.7336 0.460295 19.6168C0.460295 19.6168 1.23664 13.543 1.60764 11.5417C1.94658 9.69862 2.96568 9.40517 3.59775 9.13917C4.23211 8.87316 8.16881 8.29471 8.16881 8.29471V6.77257" stroke="#0070E7" stroke-width="1.5" stroke-linecap="round" stroke-linejoin="round"/>
<path d="M10.0513 6.77257V8.19126C10.0513 8.19126 10.8986 8.23137 12.1055 8.32637C14.5009 8.51427 17.5468 9.76196 20.4323 4.84508C20.9751 3.83384 23.4163 4.75853 22.7316 6.31022C21.03 9.9034 18.4583 11.7697 14.3154 11.8752C13.8208 11.9322 13.6651 12.2742 13.6628 12.7492V18.9729H4.56415V12.7492" stroke="#0070E7" stroke-width="1.5" stroke-miterlimit="10"/>
<path d="M4.56415 18.9708V33.7869H7.99015L9.10773 23.9996L10.1635 33.7869H13.7063L13.6628 18.9708H4.56415Z" stroke="#0070E7" stroke-width="1.5" stroke-linecap="round" stroke-linejoin="round"/>
<path d="M35.412 22.2853C35.412 19.7118 34.0081 19.07 32.2768 19.07C30.5455 19.07 29.1417 20.0137 29.1417 22.2853C29.1417 24.0608 30.5455 25.5006 32.2768 25.5006C34.0081 25.5006 35.412 24.0608 35.412 22.2853Z" stroke="#0070E7" stroke-width="1.5" stroke-miterlimit="10"/>
<path d="M27.731 31.3316L26.302 38.3829C25.4523 40.5531 23.5332 39.3181 23.6271 38.2013C23.6271 38.2013 24.4035 32.1275 24.7745 30.1261C25.1134 28.2831 26.1325 27.9897 26.7646 27.7237C27.3989 27.4577 31.3356 26.8792 31.3356 26.8792V25.3571" stroke="#0070E7" stroke-width="1.5" stroke-linecap="round" stroke-linejoin="round"/>
<path d="M33.2204 25.3549V26.7736C33.2204 26.7736 34.0677 26.8137 35.2746 26.9087C35.2746 26.9087 37.1571 27.4534 37.7914 27.7215C38.4258 27.9897 39.4426 28.281 39.7815 30.124C40.1502 32.1254 40.9289 38.1992 40.9289 38.1992C41.0228 39.3181 39.1059 40.551 38.254 38.3807L36.825 31.3295C36.825 31.3295 36.8319 30.8566 36.8296 31.3295V37.5532H27.731V31.3295" stroke="#0070E7" stroke-width="1.5" stroke-miterlimit="10"/>
<path d="M48.2687 0.527786H16.6308C15.9908 0.527786 15.472 1.00605 15.472 1.59603C15.472 2.186 15.9908 2.66427 16.6308 2.66427H48.2687C48.9087 2.66427 49.4275 2.186 49.4275 1.59603C49.4275 1.00605 48.9087 0.527786 48.2687 0.527786Z" stroke="#0070E7" stroke-width="1.5" stroke-linecap="round" stroke-linejoin="round"/>
<path d="M35.1074 23.6681H48.2687C48.9076 23.6681 49.4275 23.191 49.4275 22.5999C49.4275 22.0109 48.9099 21.5316 48.2687 21.5316H36.154" stroke="#0070E7" stroke-width="1.5" stroke-linecap="round" stroke-linejoin="round"/>
<path d="M28.6333 21.5338H16.6308C15.9918 21.5338 15.472 22.0109 15.472 22.602C15.472 23.191 15.9896 23.6702 16.6308 23.6702H29.002" stroke="#0070E7" stroke-width="1.5" stroke-linecap="round" stroke-linejoin="round"/>
<path d="M28.5531 21.5338H17.114V11.8077" stroke="#0070E7" stroke-width="1.5" stroke-linecap="round" stroke-linejoin="round"/>
<path d="M17.114 8.10683V2.66428H48.0534V21.5338H36.3509" stroke="#0070E7" stroke-width="1.5" stroke-linecap="round" stroke-linejoin="round"/>
<path d="M43.1045 8.52061L43.8534 5.93445L34.5028 13.467L30.7608 7.32359L20.7828 13.7879" stroke="#0070E7" stroke-width="1.5" stroke-linecap="round" stroke-linejoin="round"/>
<path d="M40.8121 5.81622L43.8533 5.93445" stroke="#0070E7" stroke-width="1.5" stroke-linecap="round" stroke-linejoin="round"/>
<path d="M21.4446 16.1229H24.6118" stroke="#0070E7" stroke-width="1.5" stroke-linecap="round" stroke-linejoin="round"/>
<path d="M21.4446 18.4662H24.6118" stroke="#0070E7" stroke-width="1.5" stroke-linecap="round" stroke-linejoin="round"/>
<path d="M27.4172 16.1229H30.5867" stroke="#0070E7" stroke-width="1.5" stroke-linecap="round" stroke-linejoin="round"/>
<path d="M27.4172 13.7816H30.5867" stroke="#0070E7" stroke-width="1.5" stroke-linecap="round" stroke-linejoin="round"/>
<path d="M27.4172 11.4403H30.5867" stroke="#0070E7" stroke-width="1.5" stroke-linecap="round" stroke-linejoin="round"/>
<path d="M27.4172 18.4662H30.5867" stroke="#0070E7" stroke-width="1.5" stroke-linecap="round" stroke-linejoin="round"/>
<path d="M32.8127 16.1229H35.98" stroke="#0070E7" stroke-width="1.5" stroke-linecap="round" stroke-linejoin="round"/>
<path d="M32.8127 18.4662H35.98" stroke="#0070E7" stroke-width="1.5" stroke-linecap="round" stroke-linejoin="round"/>
<path d="M42.6831 13.1082C42.264 12.6838 41.4419 12.6521 40.8212 12.935C40.2373 13.201 40.0289 13.8808 40.3815 14.3854C40.6357 14.7464 41.0709 14.9449 41.5838 15.0779C42.7152 15.4072 42.935 15.9329 42.8022 16.4902C42.6648 17.094 42.0991 17.4086 41.3296 17.436C40.7411 17.4402 40.2533 17.3115 39.8846 17.0307" stroke="#0070E7" stroke-width="1.5" stroke-linecap="round" stroke-linejoin="round"/>
<path d="M41.4694 11.4403V12.7514" stroke="#0070E7" stroke-width="1.5" stroke-linecap="round" stroke-linejoin="round"/>
<path d="M41.4694 17.436V18.747" stroke="#0070E7" stroke-width="1.5" stroke-linecap="round" stroke-linejoin="round"/>
</g>
<defs>
<clipPath id="clip0_332_75">
<rect width="50" height="40" fill="white"/>
</clipPath>
</defs>
</svg>
