<svg width="50" height="40" viewBox="0 0 50 40" fill="none" xmlns="http://www.w3.org/2000/svg">
<path d="M27.0596 4.45401H13.575C13.2606 4.45401 13.006 4.71974 13.006 5.0479V35.3112C13.006 35.6394 13.2606 35.9051 13.575 35.9051H26.9741C26.9741 35.9051 27.9567 35.9604 27.9567 35.1668" stroke="white" stroke-linecap="round" stroke-linejoin="round"/>
<path d="M28.8965 19.838V18.5718M30.7676 19.05V17.7838" stroke="white" stroke-linecap="round" stroke-linejoin="round"/>
<path d="M30.1336 2.63491C29.6671 2.2372 29.0724 2 28.4231 2H13.4005C11.9053 2 10.6937 3.26446 10.6937 4.82498V35.5342C10.6937 37.0947 11.9053 38.3592 13.4005 38.3592H28.4231C29.9183 38.3592 31.1299 37.0947 31.1299 35.5342" stroke="white" stroke-linecap="round" stroke-linejoin="round"/>
<path d="M10.3606 10.4624H10.6955V14.6375H10.3606C10.1623 14.6375 10 14.4699 10 14.2612V10.837C10 10.6301 10.1606 10.4607 10.3606 10.4607V10.4624Z" stroke="white" stroke-linecap="round" stroke-linejoin="round"/>
<path d="M10.3606 16.3461H10.6955V19.0729H10.3606C10.1623 19.0729 10 18.9053 10 18.6966V16.7206C10 16.5137 10.1606 16.3443 10.3606 16.3443V16.3461Z" stroke="white" stroke-linecap="round" stroke-linejoin="round"/>
<path d="M30.7292 15.0559C32.8241 15.0559 34.5223 13.4089 34.5223 11.3773C34.5223 9.34572 32.8241 7.69878 30.7292 7.69878C28.6344 7.69878 26.9362 9.34572 26.9362 11.3773C26.9362 13.4089 28.6344 15.0559 30.7292 15.0559Z" stroke="white" stroke-width="0.3" stroke-linecap="round" stroke-linejoin="round"/>
<path d="M30.7292 6.92041C31.6229 6.92041 32.3475 6.05026 32.3475 4.97687C32.3475 3.90349 31.6229 3.03334 30.7292 3.03334C29.8354 3.03334 29.1108 3.90349 29.1108 4.97687C29.1108 6.05026 29.8354 6.92041 30.7292 6.92041Z" stroke="white" stroke-width="0.3" stroke-linecap="round" stroke-linejoin="round"/>
<path d="M26.191 8.62199C26.191 8.62199 25.6329 4.87023 29.1929 4.36246" stroke="white" stroke-width="0.3" stroke-linecap="round" stroke-linejoin="round"/>
<path d="M32.2653 4.36246C32.2653 4.36246 35.2656 4.71583 35.2656 8.20495C35.2656 9.5659 34.8552 10.5639 34.5221 11.051" stroke="white" stroke-width="0.3" stroke-linecap="round" stroke-linejoin="round"/>
<path d="M29.1289 4.6808L28.5002 5.8969L29.1929 6.05449L28.7957 6.60046L30.1054 7.74811" stroke="white" stroke-width="0.3" stroke-linecap="round" stroke-linejoin="round"/>
<path d="M29.7148 6.49222L30.3878 7.69877" stroke="white" stroke-width="0.3" stroke-linecap="round" stroke-linejoin="round"/>
<path d="M31.842 6.38875L31.0771 7.69876" stroke="white" stroke-width="0.3" stroke-linecap="round" stroke-linejoin="round"/>
<path d="M32.3474 4.72536L32.8135 5.93191L32.3031 6.02741L32.6248 6.59249L31.3528 7.7481" stroke="white" stroke-width="0.3" stroke-linecap="round" stroke-linejoin="round"/>
<path d="M29.027 7.04457C29.027 7.04457 28.2392 7.41704 28.0341 8.14607" stroke="white" stroke-width="0.3" stroke-linecap="round" stroke-linejoin="round"/>
<path d="M33.6047 8.97854C33.6047 8.97854 33.4094 7.41225 32.4673 7.05411" stroke="white" stroke-width="0.3" stroke-linecap="round" stroke-linejoin="round"/>
<path d="M28.446 7.46956L28.5002 8.05851" stroke="white" stroke-width="0.3" stroke-linecap="round" stroke-linejoin="round"/>
<path d="M32.9782 7.42819L32.9497 8.39439" stroke="white" stroke-width="0.3" stroke-linecap="round" stroke-linejoin="round"/>
<path d="M38.1953 15.5289C38.6398 14.7768 38.2217 13.7345 37.2614 13.2007C36.3012 12.667 35.1624 12.8439 34.718 13.5959C34.2735 14.3479 34.6916 15.3903 35.6519 15.924C36.6121 16.4578 37.7509 16.2809 38.1953 15.5289Z" stroke="white" stroke-width="0.3" stroke-linecap="round" stroke-linejoin="round"/>
<path d="M35.4512 8.9292C35.4512 8.9292 39.085 10.3252 37.7687 13.5739" stroke="white" stroke-width="0.3" stroke-linecap="round" stroke-linejoin="round"/>
<path d="M36.2406 16.159C36.2406 16.159 34.4319 18.5084 31.3101 16.7734C30.0922 16.0969 29.4029 15.2548 29.1321 14.7327" stroke="white" stroke-width="0.3" stroke-linecap="round" stroke-linejoin="round"/>
<path d="M37.5159 13.3622L36.7412 12.2273L36.2553 12.7335L35.9648 12.1254L34.2858 12.6571" stroke="white" stroke-width="0.3" stroke-linecap="round" stroke-linejoin="round"/>
<path d="M35.6039 12.9532L34.1891 12.9197" stroke="white" stroke-width="0.3" stroke-linecap="round" stroke-linejoin="round"/>
<path d="M34.6388 14.7964L33.8477 13.5007" stroke="white" stroke-width="0.3" stroke-linecap="round" stroke-linejoin="round"/>
<path d="M35.8747 16.0475L34.565 15.839L34.7324 15.3631L34.0676 15.3535L33.6655 13.7076" stroke="white" stroke-width="0.3" stroke-linecap="round" stroke-linejoin="round"/>
<path d="M35.4529 12.1016C35.4529 12.1016 35.512 11.2532 34.9622 10.7183" stroke="white" stroke-width="0.3" stroke-linecap="round" stroke-linejoin="round"/>
<path d="M31.4465 14.9906C31.4465 14.9906 32.945 15.605 33.7329 14.9906" stroke="white" stroke-width="0.3" stroke-linecap="round" stroke-linejoin="round"/>
<path d="M35.361 11.4012L34.8079 11.1529" stroke="white" stroke-width="0.3" stroke-linecap="round" stroke-linejoin="round"/>
<path d="M33.1452 15.2357L32.2933 14.7295" stroke="white" stroke-width="0.3" stroke-linecap="round" stroke-linejoin="round"/>
<path d="M25.8193 15.9364C26.7782 15.4003 27.1937 14.357 26.7474 13.6061C26.301 12.8551 25.1618 12.6809 24.2029 13.2169C23.244 13.7529 22.8285 14.7963 23.2749 15.5472C23.7212 16.2982 24.8604 16.4724 25.8193 15.9364Z" stroke="white" stroke-width="0.3" stroke-linecap="round" stroke-linejoin="round"/>
<path d="M30.534 16.5664C30.534 16.5664 27.4614 18.9095 25.2292 16.1717" stroke="white" stroke-width="0.3" stroke-linecap="round" stroke-linejoin="round"/>
<path d="M23.6945 13.5915C23.6945 13.5915 22.5128 10.8934 25.6296 9.15048C26.8442 8.4708 27.9422 8.3164 28.5429 8.35301" stroke="white" stroke-width="0.3" stroke-linecap="round" stroke-linejoin="round"/>
<path d="M25.5459 16.0682L26.9459 15.9886L26.7391 15.3281L27.4268 15.3886L27.7994 13.7156" stroke="white" stroke-width="0.3" stroke-linecap="round" stroke-linejoin="round"/>
<path d="M26.8721 14.6707L27.6123 13.5023" stroke="white" stroke-width="0.3" stroke-linecap="round" stroke-linejoin="round"/>
<path d="M25.7167 12.9345L27.2694 12.9229" stroke="white" stroke-width="0.3" stroke-linecap="round" stroke-linejoin="round"/>
<path d="M23.9784 13.34L24.8237 12.3467L25.1634 12.7271L25.5065 12.1748L27.1757 12.6667" stroke="white" stroke-width="0.3" stroke-linecap="round" stroke-linejoin="round"/>
<path d="M27.7074 14.9715C27.7074 14.9715 28.4329 15.4474 29.1879 15.2564" stroke="white" stroke-width="0.3" stroke-linecap="round" stroke-linejoin="round"/>
<path d="M27.1494 10.1612C27.1494 10.1612 25.8479 11.1083 25.9989 12.0777" stroke="white" stroke-width="0.3" stroke-linecap="round" stroke-linejoin="round"/>
<path d="M28.3773 15.2485L28.8779 14.9094" stroke="white" stroke-width="0.3" stroke-linecap="round" stroke-linejoin="round"/>
<path d="M26.076 11.4617L26.9558 11.0033" stroke="white" stroke-width="0.3" stroke-linecap="round" stroke-linejoin="round"/>
<path d="M31.9503 9.51019H30.0514L29.7149 11.285C29.7149 11.285 30.7604 10.4589 31.4596 11.1768C32.1588 11.8946 31.7189 12.9436 31.0772 13.1887C30.3583 13.4625 29.4917 13.3033 29.408 12.3419" stroke="white" stroke-width="0.7" stroke-miterlimit="10"/>
<path d="M30.7303 23.4537C31.6242 23.4537 32.3487 22.5836 32.3487 21.5102C32.3487 20.4368 31.6242 19.5667 30.7303 19.5667C29.8365 19.5667 29.1119 20.4368 29.1119 21.5102C29.1119 22.5836 29.8365 23.4537 30.7303 23.4537Z" stroke="white" stroke-width="0.3" stroke-linecap="round" stroke-linejoin="round"/>
<path d="M26.1918 25.1553C26.1918 25.1553 25.6338 21.4036 29.1939 20.8958" stroke="white" stroke-width="0.3" stroke-linecap="round" stroke-linejoin="round"/>
<path d="M32.2667 20.8958C32.2667 20.8958 35.2672 21.2492 35.2672 24.7383C35.2672 26.0992 34.8568 27.0973 34.5236 27.5843" stroke="white" stroke-width="0.3" stroke-linecap="round" stroke-linejoin="round"/>
<path d="M29.13 21.2126L28.5013 22.4302L29.194 22.5862L28.7968 23.1338L30.1066 24.2815" stroke="white" stroke-width="0.3" stroke-linecap="round" stroke-linejoin="round"/>
<path d="M29.7159 23.0255L30.3889 24.2321" stroke="white" stroke-width="0.3" stroke-linecap="round" stroke-linejoin="round"/>
<path d="M31.8433 22.9205L31.0784 24.2321" stroke="white" stroke-width="0.3" stroke-linecap="round" stroke-linejoin="round"/>
<path d="M32.3486 21.2587L32.8147 22.4652L32.3042 22.5608L32.6259 23.1242L31.3539 24.2814" stroke="white" stroke-width="0.3" stroke-linecap="round" stroke-linejoin="round"/>
<path d="M29.0282 23.5763C29.0282 23.5763 28.2403 23.9488 28.0352 24.6778" stroke="white" stroke-width="0.3" stroke-linecap="round" stroke-linejoin="round"/>
<path d="M33.606 25.5103C33.606 25.5103 33.4107 23.944 32.4685 23.5858" stroke="white" stroke-width="0.3" stroke-linecap="round" stroke-linejoin="round"/>
<path d="M28.447 24.0013L28.5012 24.5918" stroke="white" stroke-width="0.3" stroke-linecap="round" stroke-linejoin="round"/>
<path d="M32.9794 23.9599L32.9509 24.9277" stroke="white" stroke-width="0.3" stroke-linecap="round" stroke-linejoin="round"/>
<path d="M38.1952 32.0612C38.6396 31.3092 38.2215 30.2669 37.2612 29.7331C36.3009 29.1993 35.1621 29.3763 34.7176 30.1283C34.2732 30.8803 34.6913 31.9227 35.6516 32.4564C36.6119 32.9902 37.7507 32.8133 38.1952 32.0612Z" stroke="white" stroke-width="0.3" stroke-linecap="round" stroke-linejoin="round"/>
<path d="M35.4525 25.4625C35.4525 25.4625 39.0865 26.8585 37.7701 30.1073" stroke="white" stroke-width="0.3" stroke-linecap="round" stroke-linejoin="round"/>
<path d="M36.2421 32.6907C36.2421 32.6907 34.4333 35.0401 31.3114 33.3051C30.0935 32.6286 29.4041 31.7866 29.1333 31.2645" stroke="white" stroke-width="0.3" stroke-linecap="round" stroke-linejoin="round"/>
<path d="M37.5173 29.894L36.7426 28.759L36.2568 29.2652L35.9662 28.6588L34.2871 29.1904" stroke="white" stroke-width="0.3" stroke-linecap="round" stroke-linejoin="round"/>
<path d="M35.6052 29.4865L34.1903 29.4531" stroke="white" stroke-width="0.3" stroke-linecap="round" stroke-linejoin="round"/>
<path d="M34.64 31.3281L33.8489 30.0325" stroke="white" stroke-width="0.3" stroke-linecap="round" stroke-linejoin="round"/>
<path d="M35.876 32.5809L34.5662 32.3723L34.7336 31.8948L34.0689 31.8853L33.6667 30.2394" stroke="white" stroke-width="0.3" stroke-linecap="round" stroke-linejoin="round"/>
<path d="M35.4542 28.6333C35.4542 28.6333 35.5132 27.7849 34.9634 27.2501" stroke="white" stroke-width="0.3" stroke-linecap="round" stroke-linejoin="round"/>
<path d="M31.4475 31.5223C31.4475 31.5223 32.9461 32.1368 33.7339 31.5223" stroke="white" stroke-width="0.3" stroke-linecap="round" stroke-linejoin="round"/>
<path d="M35.3623 27.9329L34.8092 27.6846" stroke="white" stroke-width="0.3" stroke-linecap="round" stroke-linejoin="round"/>
<path d="M33.1463 31.7675L32.2944 31.2613" stroke="white" stroke-width="0.3" stroke-linecap="round" stroke-linejoin="round"/>
<path d="M25.8194 32.4683C26.7784 31.9322 27.1939 30.8889 26.7475 30.1379C26.3012 29.387 25.1619 29.2127 24.203 29.7488C23.2441 30.2848 22.8285 31.3281 23.2749 32.0791C23.7213 32.8301 24.8605 33.0043 25.8194 32.4683Z" stroke="white" stroke-width="0.3" stroke-linecap="round" stroke-linejoin="round"/>
<path d="M30.5349 33.0998C30.5349 33.0998 27.4623 35.4428 25.23 32.705" stroke="white" stroke-width="0.3" stroke-linecap="round" stroke-linejoin="round"/>
<path d="M23.6954 30.1232C23.6954 30.1232 22.5136 27.4252 25.6306 25.6822C26.8452 25.0025 27.9433 24.8481 28.544 24.8847" stroke="white" stroke-width="0.3" stroke-linecap="round" stroke-linejoin="round"/>
<path d="M25.5469 32.6L26.947 32.5204L26.7402 31.8598L27.4279 31.9219L27.8005 30.2473" stroke="white" stroke-width="0.3" stroke-linecap="round" stroke-linejoin="round"/>
<path d="M26.873 31.2024L27.6133 30.0341" stroke="white" stroke-width="0.3" stroke-linecap="round" stroke-linejoin="round"/>
<path d="M25.7175 29.4674L27.2703 29.4562" stroke="white" stroke-width="0.3" stroke-linecap="round" stroke-linejoin="round"/>
<path d="M23.9794 29.8733L24.8247 28.88L25.1644 29.2605L25.5075 28.7081L27.1768 29.1984" stroke="white" stroke-width="0.3" stroke-linecap="round" stroke-linejoin="round"/>
<path d="M27.7085 31.5048C27.7085 31.5048 28.434 31.9808 29.189 31.7898" stroke="white" stroke-width="0.3" stroke-linecap="round" stroke-linejoin="round"/>
<path d="M27.1503 26.693C27.1503 26.693 25.8487 27.6401 25.9997 28.6094" stroke="white" stroke-width="0.3" stroke-linecap="round" stroke-linejoin="round"/>
<path d="M28.3781 31.7802L28.8787 31.4412" stroke="white" stroke-width="0.3" stroke-linecap="round" stroke-linejoin="round"/>
<path d="M26.077 27.9934L26.9568 27.535" stroke="white" stroke-width="0.3" stroke-linecap="round" stroke-linejoin="round"/>
<path d="M31.4607 30.1232L31.6363 26.2234H31.354L29.4155 28.8514V29.1904H32.2092" stroke="white" stroke-width="0.7" stroke-miterlimit="10"/>
<path d="M30.7302 31.5892C32.8252 31.5892 34.5235 29.9423 34.5235 27.9106C34.5235 25.879 32.8252 24.2321 30.7302 24.2321C28.6353 24.2321 26.937 25.879 26.937 27.9106C26.937 29.9423 28.6353 31.5892 30.7302 31.5892Z" stroke="white" stroke-width="0.3" stroke-linecap="round" stroke-linejoin="round"/>
</svg>
