<svg width="35" height="45" viewBox="0 0 35 45" fill="none" xmlns="http://www.w3.org/2000/svg">
<g clip-path="url(#clip0_426_131)">
<path d="M8.39746 16.0537L8.42901 16.1799C8.60254 16.9266 9.27036 17.4577 10.0381 17.4577H25.1613C25.5925 17.4577 25.9448 17.81 25.9448 18.2412V28.0324C25.9448 28.4636 25.5925 28.8159 25.1613 28.8159H10.4956C9.33872 28.8159 8.39746 27.8746 8.39746 26.7178V16.0537Z" stroke="black" stroke-width="1.25" stroke-linecap="round" stroke-linejoin="round"/>
<path d="M12.3413 14.4658H10.2432C9.40182 14.5079 8.47634 14.9233 8.39746 15.975C8.39746 15.975 8.39746 16.0223 8.39746 16.0539" stroke="black" stroke-width="1.25" stroke-miterlimit="10"/>
<path d="M25.9396 18.357V15.3124C25.9396 14.8444 25.561 14.4658 25.093 14.4658H22.6636" stroke="black" stroke-width="1.25" stroke-miterlimit="10"/>
<path d="M21.8487 23.1105C22.325 23.1105 22.7111 22.7244 22.7111 22.2481C22.7111 21.7718 22.325 21.3857 21.8487 21.3857C21.3724 21.3857 20.9863 21.7718 20.9863 22.2481C20.9863 22.7244 21.3724 23.1105 21.8487 23.1105Z" stroke="black" stroke-width="0.5" stroke-miterlimit="10"/>
<path d="M21.7017 24.231C20.6079 24.231 19.7192 23.3423 19.7192 22.2485C19.7192 21.1548 20.6079 20.2661 21.7017 20.2661H25.9399V24.231H21.7017Z" stroke="black" stroke-width="1.25" stroke-miterlimit="10"/>
<path d="M13.3934 17.4003C13.2882 17.2741 13.2198 17.1742 13.2198 17.1742C12.6624 16.3486 12.3364 15.3548 12.3364 14.2873C12.3364 11.4372 14.6501 9.12354 17.5002 9.12354C20.3502 9.12354 22.6639 11.4372 22.6639 14.2873C22.6639 15.36 22.3379 16.3591 21.7753 17.1847C21.7753 17.1847 21.7017 17.2899 21.6018 17.4213" stroke="black" stroke-width="1.25" stroke-miterlimit="10"/>
<path d="M15.1179 17.4262C14.9549 17.2895 14.8603 17.1896 14.8603 17.1896C14.0873 16.4797 13.6035 15.4595 13.6035 14.3237C13.6035 12.173 15.3493 10.4272 17.5 10.4272C19.6507 10.4272 21.3965 12.173 21.3965 14.3237C21.3965 15.4385 20.9285 16.4481 20.1765 17.158C20.1765 17.158 20.0346 17.2737 19.8137 17.4209" stroke="black" stroke-width="0.75" stroke-miterlimit="10" stroke-linecap="round"/>
<path d="M16.5273 15.239C16.5273 15.7753 16.9638 16.2118 17.5001 16.2118C18.0365 16.2118 18.473 15.7753 18.473 15.239C18.473 14.2399 17.5001 14.2767 17.5001 14.2767C16.9638 14.2767 16.5273 13.8402 16.5273 13.3039C16.5273 12.7675 16.9638 12.3311 17.5001 12.3311C18.0365 12.3311 18.473 12.7675 18.473 13.3039" stroke="black" stroke-width="0.75" stroke-miterlimit="10" stroke-linecap="round"/>
<path d="M17.5 11.6577V16.7794" stroke="black" stroke-width="0.75" stroke-miterlimit="10" stroke-linecap="round"/>
<path fill-rule="evenodd" clip-rule="evenodd" d="M16.5009 43.5503C1.1306 36.0623 0.541654 27.7908 0.525879 26.8759V5.92109L2.6976 5.81592C6.81494 5.6161 11.863 3.97021 16.2012 1.40937L16.7376 1.09386L17.5 0.620605L18.2625 1.09386L18.7989 1.40937C23.1318 3.97021 28.1799 5.62136 32.3025 5.81592L34.4742 5.92109V26.9337C34.4321 27.8487 33.6381 36.0991 18.5097 43.545L17.5106 44.0393L16.5062 43.5503H16.5009Z" stroke="black" stroke-width="1.25" stroke-miterlimit="10"/>
<path fill-rule="evenodd" clip-rule="evenodd" d="M17.5001 41.4994C31.8556 34.4373 32.1921 26.8336 32.1921 26.8336V8.09266C28.548 7.91913 23.1529 6.63082 17.6368 3.37061H17.3581C11.8421 6.63082 6.44693 7.91913 2.80811 8.09266V26.8336C2.80811 26.8336 2.94482 34.411 17.5001 41.4994Z" stroke="black" stroke-width="1.25" stroke-miterlimit="10"/>
</g>
<defs>
<clipPath id="clip0_426_131">
<rect width="35" height="44.6229" fill="white"/>
</clipPath>
</defs>
</svg>
