<svg width="55" height="54" viewBox="0 0 55 54" fill="none" xmlns="http://www.w3.org/2000/svg">
<g clip-path="url(#clip0_426_144)">
<path d="M33.446 27.2153H29.048C28.5603 27.2153 28.165 27.6106 28.165 28.0983V43.427C28.165 43.9146 28.5603 44.3099 29.048 44.3099H33.446C33.9336 44.3099 34.3289 43.9146 34.3289 43.427V28.0983C34.3289 27.6106 33.9336 27.2153 33.446 27.2153Z" stroke="black" stroke-width="1.25" stroke-linecap="round" stroke-linejoin="round"/>
<path d="M31.2441 44.3096V50.4232" stroke="black" stroke-width="1.25" stroke-linecap="round" stroke-linejoin="round"/>
<path d="M31.2441 21.4146V26.8073" stroke="black" stroke-width="1.25" stroke-linecap="round" stroke-linejoin="round"/>
<path d="M5.83953 6.36475H1.44154C0.953904 6.36475 0.558594 6.76006 0.558594 7.2477V22.5764C0.558594 23.064 0.953904 23.4593 1.44154 23.4593H5.83953C6.32717 23.4593 6.72248 23.064 6.72248 22.5764V7.2477C6.72248 6.76006 6.32717 6.36475 5.83953 6.36475Z" stroke="black" stroke-width="1.25" stroke-linecap="round" stroke-linejoin="round"/>
<path d="M3.6377 23.4595V29.5731" stroke="black" stroke-width="1.25" stroke-linecap="round" stroke-linejoin="round"/>
<path d="M3.6377 0.558594V5.95689" stroke="black" stroke-width="1.25" stroke-linecap="round" stroke-linejoin="round"/>
<path d="M24.2419 22.9453H19.8439C19.3562 22.9453 18.9609 23.3406 18.9609 23.8283V30.8136C18.9609 31.3013 19.3562 31.6966 19.8439 31.6966H24.2419C24.7295 31.6966 25.1248 31.3013 25.1248 30.8136V23.8283C25.1248 23.3406 24.7295 22.9453 24.2419 22.9453Z" stroke="black" stroke-width="1.25" stroke-linecap="round" stroke-linejoin="round"/>
<path d="M22.0459 31.6968V35.7539" stroke="black" stroke-width="1.25" stroke-linecap="round" stroke-linejoin="round"/>
<path d="M22.0459 17.8657V22.5375" stroke="black" stroke-width="1.25" stroke-linecap="round" stroke-linejoin="round"/>
<path d="M15.0436 20.1401H10.6456C10.158 20.1401 9.7627 20.5354 9.7627 21.0231V26.4214C9.7627 26.909 10.158 27.3043 10.6456 27.3043H15.0436C15.5313 27.3043 15.9266 26.909 15.9266 26.4214V21.0231C15.9266 20.5354 15.5313 20.1401 15.0436 20.1401Z" stroke="black" stroke-width="1.25" stroke-linecap="round" stroke-linejoin="round"/>
<path d="M12.8418 27.3042V31.3613" stroke="black" stroke-width="1.25" stroke-linecap="round" stroke-linejoin="round"/>
<path d="M12.8418 15.0659V19.7321" stroke="black" stroke-width="1.25" stroke-linecap="round" stroke-linejoin="round"/>
<path d="M41.3923 41.8789H36.9943C36.5066 41.8789 36.1113 42.2742 36.1113 42.7619V52.0161C36.1113 52.5037 36.5066 52.899 36.9943 52.899H41.3923C41.8799 52.899 42.2752 52.5037 42.2752 52.0161V42.7619C42.2752 42.2742 41.8799 41.8789 41.3923 41.8789Z" stroke="black" stroke-width="1.25" stroke-linecap="round" stroke-linejoin="round"/>
<path d="M39.1963 36.8047V41.4709" stroke="black" stroke-width="1.25" stroke-linecap="round" stroke-linejoin="round"/>
<path d="M17.7876 53.1001H54.4412" stroke="black" stroke-width="1.25" stroke-linecap="round" stroke-linejoin="round"/>
</g>
<defs>
<clipPath id="clip0_426_144">
<rect width="55" height="53.6588" fill="white"/>
</clipPath>
</defs>
</svg>
