<svg width="16" height="16" viewBox="0 0 16 16" fill="none" xmlns="http://www.w3.org/2000/svg">
<path d="M8 0C3.58862 0 0 3.58862 0 8C0 12.4114 3.58862 16 8 16C12.4114 16 16 12.4114 16 8C16 3.58862 12.4114 0 8 0Z" fill="#00B2DD"/>
<path d="M6.44629 11.8459C6.36035 11.9448 6.24317 12 6.12139 12C5.99962 12 5.88244 11.9448 5.7965 11.8459L3.20197 8.87523C2.93268 8.56696 2.93268 8.0672 3.20197 7.75946L3.52686 7.38754C3.79614 7.07927 4.23224 7.07927 4.50153 7.38754L6.12139 9.24189L10.4985 4.2312C10.7678 3.92293 11.2043 3.92293 11.4731 4.2312L11.798 4.60312C12.0673 4.91139 12.0673 5.41115 11.798 5.71889L6.44629 11.8459Z" fill="white"/>
</svg>
