<?xml version="1.0" standalone="no"?>
<!DOCTYPE svg PUBLIC "-//W3C//DTD SVG 1.1//EN" "http://www.w3.org/Graphics/SVG/1.1/DTD/svg11.dtd" >
<svg xmlns="http://www.w3.org/2000/svg">
<metadata>Generated by IcoMoon</metadata>
<defs>
<font id="icomoon" horiz-adv-x="1024">
<font-face units-per-em="1024" ascent="960" descent="-64" />
<missing-glyph horiz-adv-x="1024" />
<glyph unicode="&#x20;" horiz-adv-x="512" d="" />
<glyph unicode="&#xe900;" glyph-name="quick-trade" horiz-adv-x="1075" d="M698.066 800.906c0-109.905 89.226-199.001 199.296-199.001 12.119 0.059 24.207 1.223 36.111 3.476v-394.53c0-165.975-97.905-264.172-264.125-264.172h-362.035c-166.657 0-264.563 98.196-264.563 264.172v361.507c0 165.979 97.906 265.046 264.563 265.046h394.234c-2.34-12.025-3.507-24.248-3.482-36.498zM594.504 298.189l141.42 182.49v0.871c12.109 16.266 9.021 39.207-6.963 51.706-7.736 5.968-17.562 8.553-27.238 7.161-9.677-1.391-18.376-6.641-24.105-14.548l-119.229-153.378-135.763 106.887c-7.751 6.037-17.611 8.705-27.355 7.398-9.743-1.311-18.548-6.482-24.426-14.35l-146.206-188.572c-5.139-6.405-7.906-14.387-7.833-22.595-0.848-16.589 9.627-31.657 25.487-36.664s33.105 1.311 41.959 15.37l122.274 158.162 135.766-106.455c7.716-6.226 17.644-9.047 27.494-7.818 9.846 1.229 18.765 6.405 24.719 14.336zM908.733 688.951c68.321 0 123.709 55.388 123.709 123.712s-55.388 123.712-123.709 123.712c-68.326 0-123.715-55.388-123.715-123.712s55.388-123.712 123.715-123.712z" />
<glyph unicode="&#xe901;" glyph-name="angle-right" horiz-adv-x="614" d="M48.075-15.336c-29.982 30.002-29.965 78.629 0.038 108.612l355.237 354.991-355.237 354.99c-30.003 29.983-30.020 78.609-0.038 108.612s78.609 30.020 108.612 0.038l409.6-409.316c14.414-14.405 22.513-33.947 22.513-54.324 0-20.379-8.099-39.921-22.513-54.325l-409.6-409.315c-30.003-29.982-78.63-29.965-108.612 0.038z" />
<glyph unicode="&#xe902;" glyph-name="eye" horiz-adv-x="1390" d="M698.553 582.607c-89.576 0-153.55-65.221-153.55-135.607 0-70.315 63.963-135.548 153.55-135.548 89.612 0 153.612 65.254 153.612 135.548 0 70.365-64.015 135.607-153.612 135.607zM435.289 447c0 140.077 122.612 245.321 263.264 245.321 140.63 0 263.327-105.223 263.327-245.321 0-140.048-122.712-245.265-263.327-245.265-140.641 0-263.264 105.237-263.264 245.265zM250.285 764.293c106.549 99.956 254.419 181.993 443.447 181.993 188.831 0 339.652-81.861 449.93-181.251 109.67-98.845 181.928-217.245 215.589-298.277 5.844-14.070 5.573-29.938-0.746-43.802-36.374-79.773-111.726-196.535-222.040-294.056-110.709-97.872-260.052-179.185-442.732-179.185-182.897 0-329.269 81.503-436.252 179.909-106.447 97.916-176.909 215.108-209.899 295.197-5.262 12.773-5.51 27.061-0.696 40.011 30.245 81.347 97.589 200.196 203.4 299.461zM157.753 446.708c30.803-66.429 89.44-158.549 174.002-236.334 92.845-85.402 213.903-150.945 361.977-150.945 148.288 0 272.851 65.733 370.065 151.669 87.611 77.452 150.228 169.010 184.32 235.602-31.656 66.883-91.472 158.933-177.913 236.837-95.781 86.325-221.528 153.035-376.472 153.035-154.743 0-276.969-66.535-368.382-152.294-83.395-78.235-139.218-170.851-167.597-237.57z" />
<glyph unicode="&#xe903;" glyph-name="logout" d="M716.8 874.667h-110.933c-136.533 0-221.867-85.333-221.867-221.867v-172.8h266.667c17.493 0 32-14.507 32-32s-14.507-32-32-32h-266.667v-172.8c0-136.533 85.333-221.867 221.867-221.867h110.507c136.533 0 221.867 85.333 221.867 221.867v409.6c0.427 136.533-84.907 221.867-221.44 221.867zM194.557 480.009l88.32 88.318c6.4 6.4 9.387 14.507 9.387 22.613s-2.987 16.64-9.387 22.613c-12.373 12.373-32.853 12.373-45.227 0l-142.933-142.932c-12.373-12.373-12.373-32.853 0-45.227l142.933-142.933c12.373-12.373 32.853-12.373 45.227 0s12.373 32.853 0 45.227l-88.32 88.32h189.44v64h-189.44z" />
<glyph unicode="&#xe904;" glyph-name="research" d="M512 935.619c-282.819 0-487.619-229.181-487.619-487.619 0-82.895 24.381-165.79 63.39-243.81 9.752-9.752 9.752-29.257 4.876-43.886l-34.133-107.276c-9.752-24.381 14.629-43.886 39.010-39.010l97.524 29.257c24.381 9.752 48.762-4.876 73.143-19.505 73.143-43.886 160.914-63.39 238.933-63.39 243.81 0 487.619 185.295 487.619 487.619 4.876 263.314-204.8 487.619-482.743 487.619zM287.695 384.61c-34.133 0-63.39 29.257-63.39 63.39s29.257 63.39 63.39 63.39c34.133 0 63.39-29.257 63.39-63.39s-29.257-63.39-63.39-63.39zM512 384.61c-34.133 0-63.39 29.257-63.39 63.39s29.257 63.39 63.39 63.39c34.133 0 63.39-29.257 63.39-63.39s-29.257-63.39-63.39-63.39zM736.305 384.61c-34.133 0-63.39 29.257-63.39 63.39s29.257 63.39 63.39 63.39c34.133 0 63.39-29.257 63.39-63.39s-29.257-63.39-63.39-63.39z" />
<glyph unicode="&#xe905;" glyph-name="search" horiz-adv-x="977" d="M423.194 66.569c233.721 0 423.194 190.659 423.194 425.849 0 235.194-189.473 425.854-423.194 425.854-233.723 0-423.194-190.661-423.194-425.854 0-235.19 189.47-425.849 423.194-425.849zM912.226-20.080c-16.435 0.531-32.070 7.298-43.757 18.935l-100.222 117.146c-21.49 19.651-23.245 53.043-3.938 74.868 9.034 9.142 21.318 14.28 34.132 14.28s25.107-5.139 34.141-14.28l126.040-100.85c18.153-18.581 23.752-46.173 14.299-70.428-9.453-24.264-32.2-40.662-58.065-41.872l-2.63 2.202z" />
<glyph unicode="&#xe906;" glyph-name="tools" horiz-adv-x="973" d="M902.185 354.893c17.7-9.405 31.36-24.248 40.965-39.096 18.714-30.679 17.193-68.285-1.009-101.443l-35.405-59.382c-18.708-31.672-53.606-51.466-89.508-51.466-17.7 0-37.422 4.951-53.606 14.848-13.148 8.412-28.319 11.382-44.503 11.382-50.068 0-92.042-41.073-93.558-90.061 0-56.909-46.525-101.448-104.684-101.448h-68.777c-58.659 0-105.187 44.539-105.187 101.448-1.011 48.988-42.985 90.061-93.051 90.061-16.689 0-31.86-2.97-44.503-11.382-16.183-9.897-36.411-14.848-53.606-14.848-36.411 0-71.305 19.794-90.017 51.466l-34.894 59.382c-18.711 32.164-19.723 70.764-1.011 101.443 8.091 14.848 23.263 29.691 40.457 39.096 14.16 6.927 23.263 18.309 31.86 31.667 25.286 42.557 10.115 98.476-32.871 123.714-50.066 28.206-66.249 91.052-37.423 140.042l33.883 58.392c29.332 48.99 92.040 66.31 142.611 37.608 43.997-23.753 101.143-7.918 126.934 34.145 8.092 13.856 12.643 28.701 11.631 43.547-1.011 19.299 4.552 37.608 14.16 52.454 18.712 30.681 52.592 50.474 89.513 51.464h71.305c37.422 0 71.306-20.783 90.015-51.464 9.108-14.845 15.171-33.155 13.655-52.454-1.009-14.845 3.543-29.691 11.633-43.547 25.789-42.062 82.939-57.897 127.437-34.145 50.068 28.701 113.28 11.382 142.106-37.608l33.884-58.392c29.332-48.99 13.148-111.836-37.422-140.042-42.988-25.238-58.158-81.156-32.369-123.714 8.095-13.358 17.198-24.74 31.355-31.667zM343.369 432.589c0-77.691 64.223-139.551 143.622-139.551s142.104 61.86 142.104 139.551c0 77.689-62.705 140.039-142.104 140.039s-143.622-62.349-143.622-140.039z" />
<glyph unicode="&#xe907;" glyph-name="trader" horiz-adv-x="1075" d="M306.669 936.375h462.299c168.468 0 263.48-95.451 263.48-263.919v-461.86c0-168.463-95.012-263.916-263.48-263.916h-462.299c-168.468 0-263.919 95.452-263.919 263.916v461.86c0 168.468 95.451 263.919 263.919 263.919zM539.331 734.039c-22.436 0-40.908-18.474-40.908-41.347v-502.325c0-22.436 18.472-40.909 40.908-40.909 22.871 0 41.344 18.473 41.344 40.909v502.325c0 22.873-18.473 41.347-41.344 41.347zM308.408 571.727c-22.433 0-40.908-18.474-40.908-41.35v-340.016c0-22.431 18.474-40.904 40.908-40.904 22.873 0 41.347 18.473 41.347 40.904v340.016c0 22.875-18.474 41.35-41.347 41.35zM725.837 350.909c0 22.876 18.473 41.349 41.349 41.349 22.436 0 40.909-18.473 40.909-41.349v-160.548c0-22.431-18.473-40.909-41.349-40.909-22.436 0-40.909 18.478-40.909 40.909v160.548z" />
<glyph unicode="&#xe908;" glyph-name="up" horiz-adv-x="1536" d="M944.375 839.065c2.057 36.702 33.479 64.787 70.182 62.729l355.75-19.947c33.997-1.906 61.071-29.153 62.761-63.156l17.92-361.197c1.823-36.714-26.46-67.955-63.181-69.777-36.71-1.822-67.953 26.464-69.775 63.179l-10.578 213.119-456.12-448.027c-13.432-13.193-31.824-20.082-50.619-18.956-18.794 1.125-36.233 10.158-47.996 24.861l-192.627 240.775c-75.019-75.998-168.613-170.691-250.751-253.537-51.387-51.831-98.345-99.079-133.48-134.227-33.035-33.047-59.641-59.512-66.714-65.4-28.251-23.518-70.22-19.682-93.739 8.57-23.519 28.251-19.682 70.22 8.569 93.739-0.308-0.256 0.166 0.202 1.618 1.606 2.169 2.097 6.52 6.304 13.705 13.389 10.507 10.36 24.932 24.721 42.415 42.21 34.939 34.951 81.743 82.045 133.094 133.838 102.683 103.568 223.328 225.711 303.1 306.592 13.351 13.536 31.854 20.718 50.84 19.731 18.987-0.986 36.646-10.044 48.523-24.89l193.356-241.687 401.903 394.764-205.425 11.518c-36.702 2.058-64.787 33.48-62.729 70.182z" />
<glyph unicode="&#xe909;" glyph-name="accounts" horiz-adv-x="1132" d="M1104.648 663.493h-228.223c-106.21-0.186-192.248-84.076-192.442-187.633-0.146-103.787 85.994-188.052 192.442-188.192h228.417v-16.486c0-181.049-109.751-288.105-295.489-288.105h-486.871c-185.782 0-295.535 107.057-295.535 288.105v394.32c0 181.045 109.753 287.682 295.535 287.682h486.682c185.732 0 295.483-106.637 295.483-287.682v-2.009zM282.385 663.914h304.54c22.754 0.094 41.154 18.17 41.057 40.404-0.097 22.187-18.685 40.123-41.44 40.030h-304.157c-22.612-0.093-40.96-17.983-41.056-40.077-0.096-22.187 18.3-40.263 41.056-40.357zM891.020 360.362h175.153c21.353 0 38.669 17.683 38.669 39.537v136.437c-0.049 21.811-17.316 39.539-38.669 39.586h-179.275c-58.368-0.188-105.515-48.64-105.423-108.345 0-6.985 0.69-13.975 2.016-20.825 11.269-51.262 56.218-87.328 107.531-86.391zM943.158 468.132c0-29.766-24.129-53.897-53.895-53.897s-53.895 24.131-53.895 53.897c0 29.765 24.129 53.895 53.895 53.895s53.895-24.13 53.895-53.895z" />
<glyph unicode="&#xe90a;" glyph-name="chart-line" d="M913.571 62.831c26.612 0 48.188 21.576 48.188 48.188s-21.576 48.188-48.188 48.188v-96.376zM198.776 874c0 26.613-21.574 48.188-48.188 48.188s-48.188-21.575-48.188-48.188h96.376zM194.44 119.772v0zM159.342 154.871v0zM274.196 382.81c-17.038-20.446-14.275-50.83 6.17-67.87 20.445-17.035 50.831-14.276 67.868 6.174l-74.038 61.696zM512 592.902l34.075 34.074c-9.574 9.574-22.733 14.678-36.258 14.065s-26.168-6.889-34.836-17.289l37.019-30.85zM672.629 432.274l-34.075-34.074c9.571-9.574 22.733-14.678 36.256-14.065 13.529 0.614 26.172 6.889 34.834 17.289l-37.015 30.85zM910.432 642.366c17.035 20.446 14.276 50.831-6.174 67.869-20.444 17.038-50.827 14.275-67.867-6.17l74.041-61.699zM913.571 159.208h-634.481v-96.376h634.481v96.376zM198.776 239.52v634.481h-96.376v-634.481h96.376zM279.090 159.208c-23.285 0-37.851 0.036-48.826 0.934-10.413 0.849-13.282 2.229-13.947 2.566l-43.754-85.871c16.515-8.415 33.481-11.415 49.853-12.752 15.81-1.289 34.979-1.253 56.674-1.253v96.376zM102.4 239.52c0-21.691-0.037-40.864 1.254-56.669 1.338-16.378 4.337-33.34 12.752-49.857l85.872 43.755c-0.339 0.663-1.717 3.536-2.567 13.944-0.897 10.975-0.934 25.546-0.934 48.827h-96.376zM216.317 162.708c-6.045 3.084-10.959 7.999-14.039 14.041l-85.872-43.755c12.32-24.178 31.978-43.839 56.157-56.157l43.754 85.871zM348.235 321.114l200.785 240.938-74.039 61.699-200.784-240.941 74.038-61.696zM709.644 401.425l200.788 240.941-74.041 61.699-200.782-240.941 74.035-61.699zM477.925 558.828l160.629-160.627 68.15 68.148-160.63 160.627-68.149-68.148z" />
<glyph unicode="&#xe90b;" glyph-name="close" horiz-adv-x="956" d="M918.842 881.003c17.326-17.329 17.326-45.425 0-62.753l-378.223-378.223 378.223-378.225c17.326-17.326 17.326-45.425 0-62.751-17.326-17.333-45.425-17.333-62.751 0l-378.225 378.222-378.222-378.222c-17.329-17.326-45.425-17.326-62.754 0s-17.329 45.425 0 62.751l378.222 378.225-378.222 378.223c-17.329 17.329-17.329 45.425 0 62.753s45.425 17.329 62.754 0l378.222-378.223 378.225 378.223c17.326 17.329 45.425 17.329 62.751 0z" />
<glyph unicode="&#xe90c;" glyph-name="dashboard" horiz-adv-x="967" d="M676.767 914.889h160.518c66.48 0 120.348-54.322 120.348-121.361v-161.876c0-67.040-53.868-121.362-120.348-121.362h-160.518c-66.475 0-120.346 54.322-120.346 121.362v161.876c0 67.040 53.871 121.361 120.346 121.361zM129.824 914.889h160.52c66.478 0 120.344-54.322 120.344-121.361v-161.876c0-67.040-53.866-121.362-120.344-121.362h-160.52c-66.478 0-120.345 54.322-120.345 121.362v161.876c0 67.040 53.867 121.361 120.345 121.361zM129.824 371.337h160.52c66.478 0 120.344-54.323 120.344-121.361v-161.872c0-66.998-53.866-121.361-120.344-121.361h-160.52c-66.478 0-120.345 54.363-120.345 121.361v161.872c0 67.038 53.867 121.361 120.345 121.361zM837.285 371.337h-160.523c-66.48 0-120.343-54.323-120.343-121.361v-161.872c0-66.998 53.863-121.361 120.343-121.361h160.523c66.475 0 120.343 54.363 120.343 121.361v161.872c0 67.038-53.868 121.361-120.343 121.361z" />
<glyph unicode="&#xe90d;" glyph-name="down" horiz-adv-x="1536" d="M985.325 56.935c2.058-36.702 33.48-64.787 70.184-62.729l355.748 19.948c33.997 1.906 61.071 29.153 62.761 63.156l17.92 361.197c1.823 36.714-26.46 67.955-63.181 69.777-36.71 1.822-67.953-26.464-69.775-63.179l-10.578-213.119-456.119 448.027c-13.433 13.193-31.825 20.082-50.62 18.956s-36.233-10.158-47.996-24.861l-192.626-240.775c-75.020 75.998-168.613 170.691-250.751 253.537-51.388 51.831-98.346 99.079-133.481 134.227-33.035 33.047-59.64 59.512-66.713 65.399-28.252 23.519-70.22 19.683-93.739-8.569s-19.682-70.22 8.569-93.739c-0.308 0.256 0.166-0.202 1.618-1.606 2.169-2.097 6.52-6.304 13.705-13.389 10.507-10.36 24.932-24.721 42.415-42.21 34.939-34.951 81.743-82.045 133.093-133.838 102.683-103.568 223.328-225.711 303.101-306.592 13.351-13.536 31.853-20.718 50.84-19.731 18.986 0.986 36.646 10.044 48.522 24.89l193.357 241.687 401.902-394.764-205.425-11.518c-36.702-2.058-64.787-33.48-62.729-70.182z" />
<glyph unicode="&#xe90e;" glyph-name="book-saved" horiz-adv-x="970" d="M484.967 53.555c-11.785 0-23.57 2.754-33.391 8.251-73.463 40.071-202.319 82.497-283.246 93.103l-11.392 1.574c-51.464 6.284-93.892 54.606-93.892 106.857v474.564c0 31.035 12.179 59.319 34.571 79.748s51.462 30.25 82.104 27.5c86.034-7.071 216.461-50.285 290.317-96.249l9.428-5.5c2.75-1.178 8.644-1.571 11.001 0l6.285 3.93c26.321 16.5 59.322 32.607 95.464 47.143 9.033 3.535 19.246 2.356 27.497-3.144s12.967-14.535 12.967-24.357v-105.283l32.606 21.606c9.82 6.679 22.781 6.679 32.606 0l32.606-21.606v150.067c0 14.143 10.213 26.323 23.962 29.073 11.393 1.964 22.787 3.535 33 4.321 0.787 0 3.929 0 4.716 0 28.677 2.357 58.142-7.465 80.141-27.893 22.393-20.428 34.568-48.712 34.568-79.748v-474.17c0-52.644-42.426-100.573-94.278-106.857l-12.967-1.574c-80.928-10.606-210.567-53.426-282.46-93.103-8.643-5.497-20.428-8.251-32.214-8.251zM169.9 787.010c-12.571 0-23.963-4.322-32.998-12.571-9.821-9.035-15.322-21.999-15.322-36.535v-474.564c0-23.18 20.036-45.573 42.429-48.715l11.785-1.574c88.392-11.781 223.926-56.174 302.496-99.387 3.535-1.574 8.641-1.967 10.605-1.18 78.961 43.606 214.889 88.393 303.675 100.174l13.355 1.574c22.393 2.754 42.431 25.535 42.431 48.715v474.171c0 14.535-5.503 27.106-15.322 36.535-9.825 9.035-23.574 13.357-37.716 12.571-1.175 0-4.716 0-5.497 0v-179.533c0-11-5.896-20.82-15.716-25.927s-21.213-4.715-30.251 1.57l-62.071 41.249-62.071-41.249c-9.033-5.893-20.426-6.678-30.251-1.57-9.426 5.107-15.71 14.927-15.71 25.927v115.105c-16.891-8.25-32.213-16.499-45.572-24.356l-6.285-3.928c-21.607-13.357-52.248-13.357-73.069-0.393l-9.428 5.892c-66.392 41.642-187.391 81.715-264.39 88-1.964 0-3.535 0-5.107 0zM485.056 86.587c-16.107 0-29.464 13.355-29.464 29.464v589.274c0 16.107 13.357 29.464 29.464 29.464s29.464-13.357 29.464-29.464v-589.274c0-16.503-13.357-29.464-29.464-29.464zM760.051 577.247c-5.891 0-11.393 1.572-16.497 5.108l-62.071 41.249-62.071-41.249c-9.038-5.893-20.426-6.678-30.251-1.57-9.426 5.107-15.716 14.927-15.716 25.927v160.283c0 12.179 7.464 22.786 18.464 27.5 54.213 21.606 113.535 38.499 163.43 46.356 8.639 1.572 17.284-1.18 23.962-6.68s10.213-13.75 10.213-22.393v-205.067c0-11-5.891-20.82-15.716-25.927-4.322-2.357-9.033-3.537-13.749-3.537zM681.483 688.425c5.497 0 11.388-1.572 16.497-5.108l32.606-21.606v114.318c-31.426-7.072-65.606-17.286-98.212-29.464v-84.855l32.606 21.606c5.109 3.536 11 5.108 16.503 5.108z" />
<glyph unicode="&#xe90f;" glyph-name="cfds" horiz-adv-x="983" d="M291.93 199.77c5.455 13.57-0.841 28.164-14.955 34.685-2.273 1.044-4.591 2.023-6.91 3.023l-3.614 1.548c-149.782 64.684-231.082 210.854-207.126 372.362 13.341 90.074 61.004 172.488 130.735 226.105 74.823 57.503 170.579 80.55 269.675 64.89 106.258-16.796 197.988-84.755 251.675-186.443 14.389-27.252 24.572-57.663 31.093-92.937 2.658-14.296 11.366-23.388 23.888-24.888 11.682-1.409 22.958 4.751 26.206 14.319 2.388 7.023 2.933 16.069 1.434 24.206-4.387 23.797-11.162 47.389-20.161 70.118-29.049 73.368-82.53 138.781-150.647 184.193-57.663 38.434-124.097 61.845-192.102 67.64-11.022 0.932-22.206 1.409-33.229 1.409-22.388 0-44.775-1.955-66.549-5.841-106.575-18.956-206.013-83.846-266.016-173.601-51.071-76.414-73.368-171.42-62.731-267.493 10.001-90.44 49.344-170.897 116.916-239.129 39.252-39.641 85.437-69.595 137.236-89.031 14.456-5.431 29.57 0.979 35.184 14.889v-0.025zM946.721 499.999c-36.798-0.59-73.892-0.5-109.756-0.385-18.276 0.045-36.528 0.115-54.8 0.070-18.342-0.045-29.753-10.297-29.753-26.776 0-16.433 11.411-26.73 29.798-26.841 14.23-0.094 28.684-0.070 42.684-0.070h0.434c9.224 0 18.452 0.020 27.705 0 2.363 0 4.522-0.205 6.795-0.41 1.069-0.090 2.093-0.18 3.183-0.274l24.183-1.794-15.344-18.772c-0.475-0.594-0.885-1.114-1.225-1.548-0.979-1.249-1.798-2.294-2.912-3.408l-20.046-20.115c-28.545-28.66-58.069-58.298-87.392-87.187-5.906-5.816-15.159-7.93-21.864-7.954-64.979-0.295-123.552-0.5-182.26 0.025h-0.569c-12.751 0-22.159-3.981-31.433-13.32-64.344-64.823-129.349-129.917-192.193-192.877-23.593-23.638-47.185-47.276-70.777-70.914l-0.932-0.93c-2.5-2.478-4.841-4.821-6.591-7.16-8.342-11.092-7.25-26.071 2.568-34.89 2.478-2.228 6.228-4.112 10.228-6.111 1.273-0.639 2.546-1.274 3.818-1.958h8.637c2.023 1.364 4.068 2.662 6.068 3.932l0.318 0.205c6.341 4.047 12.342 7.889 16.933 12.456 84.346 83.89 168.261 168.145 246.994 247.263 7.156 7.184 15.114 10.547 25.022 10.547 29.479-0.135 59.752-0.135 88.072-0.135h11.182c27.845 0 56.639 0 84.914-0.16 11.276-0.18 19.845 3.387 27.82 11.457 27.8 28.16 56.254 56.615 83.78 84.14l4.452 4.456c8.139 8.135 16.298 16.273 24.437 24.433 1.749 1.749 3.588 3.432 5.702 5.386 1.094 0.999 2.298 2.114 3.662 3.387l21.23 19.841v-40.456c0-6.615-0.025-13.23-0.045-19.821-0.070-15.045-0.139-30.593 0.201-45.933 0.274-12.026 5.001-19.685 14.914-24.138 11.137-5.001 20.476-3.842 28.59 3.523 2.638 2.384 4.911 6.705 7.344 11.248 0.885 1.663 1.704 3.207 2.544 4.706v185.786c-5.82 15.475-16.409 21.68-36.299 21.41l-0.020 0.066zM951.906 165.999c-14.864-2.707-22.409-13.55-22.409-32.231 0-11.751 0.045-23.478 0.111-35.23v-1.135c0.139-27.64 0.274-56.005-0.36-83.984-0.479-20.546 5.681-31.318 21.25-36.979h11.567c10.412 3.772 17.277 10.637 20.955 21v146.829c-4.727 11.657-13.93 24.842-31.113 21.729zM667.849 96.838c0.070 13.046 0.115 26.071 0.090 39.092 0 18.252-10.387 30.163-26.386 30.343-7.229 0.139-13.705-2.273-18.526-7.045-5.497-5.456-8.544-13.726-8.569-23.298 0-13.046 0.049-26.067 0.094-39.113 0.135-27.23 0.25-55.415-0.365-83.3-0.479-20.91 5.501-31.343 21.25-37.048h11.547c15.548 5.681 21.729 16.478 21.25 37.048-0.635 27.82-0.5 56.025-0.385 83.321zM825.373 98.681c0.045 12.411 0.111 24.818 0.090 37.229-0.025 18.252-10.387 30.183-26.411 30.343-7.205 0.16-13.66-2.273-18.522-7.045-5.526-5.456-8.569-13.73-8.569-23.298 0-13.046 0.045-26.071 0.090-39.117 0.135-27.271 0.25-55.48-0.365-83.276-0.479-20.89 5.501-31.343 21.25-37.048h11.547c15.548 5.681 21.729 16.478 21.25 37.069-0.635 27.754-0.5 55.914-0.36 83.145v1.999zM510.382 17.662v0.184c0 0.705 0.020 1.43 0 2.134-0.639 13.525-10.617 24.388-23.708 25.846-13.636 1.499-26.026-6.754-28.16-18.821-5.411-30.458-0.684-42.865 19.476-50.573h11.411c16.249 5.911 22.548 16.777 21.045 36.278-0.135 1.839-0.111 3.543-0.090 4.932l0.025 0.020zM504.144 451.281c8.704 30.138 3.383 62.751-14.594 89.457-19.501 29.004-47.297 43.959-84.959 45.755-25.956 1.228-44.048 13.865-50.912 35.548-8.25 26.047 3.91 53.503 28.298 63.868 26.729 11.341 53.003 1.296 66.983-25.615 7.885-15.206 23.024-20.979 36.819-14.046 13.431 6.75 18.182 22.501 11.297 37.434-8.659 18.797-21.365 33.593-37.732 43.98-1.884 1.205-4.477 2.341-7.205 3.568-6.726 2.978-15.090 6.705-19.681 14.637-4.547 7.887-3.842 16.955-3.273 24.252 0.229 3.068 0.455 5.955 0.295 8.273-1.024 14.637-11.862 24.956-26.365 25.070h-0.25c-14.615 0-25.547-10.455-26.592-25.41-0.387-5.705-0.682-11.251-0.068-16.319 2.068-16.842-8.546-23.683-16.683-27.365-33.093-14.933-55.799-45.48-60.754-81.687-5-36.48 8.841-72.323 37.002-95.847 17.979-15.025 40.48-22.91 68.823-24.114 27.48-1.159 48.071-21.070 50.070-48.39 1.933-26.341-15.569-49.365-41.636-54.776-23.366-4.841-45.254 6.636-58.528 30.659-5.614 10.138-14.501 15.958-24.433 15.958-4.159 0-8.296-1.044-12.273-3.092-13.41-6.885-17.956-22.639-10.819-37.433 10.387-21.545 23.842-36.229 40.002-43.663 22.32-10.273 31.229-25.182 29.775-49.82-0.341-5.636 1.795-11.182 5.978-15.639 5.091-5.407 12.637-8.634 20.183-8.634 12.090 0 22.387 7.569 25.045 18.407 1.819 7.389 1.659 16.273 1.548 24.117-0.184 11.158 4.747 18.817 15.114 23.388 29.204 12.931 50.913 37.548 59.572 67.527l-0.045-0.045z" />
<glyph unicode="&#xe910;" glyph-name="combo-arrow" horiz-adv-x="478" d="M459.465 701.932c-19.995-19.995-52.413-19.995-72.408 0l-120.127 120.127-120.127-120.127c-19.995-19.995-52.413-19.995-72.408 0s-19.995 52.413 0 72.408l156.331 156.331c19.995 19.995 52.412 19.995 72.408 0l156.331-156.331c19.995-19.995 19.995-52.413 0-72.408zM74.396 194.075c19.995 19.995 52.412 19.995 72.408 0l120.127-120.129 120.127 120.129c19.995 19.995 52.412 19.995 72.408 0s19.995-52.415 0-72.41l-156.331-156.331c-19.995-19.995-52.413-19.995-72.408 0l-156.331 156.331c-19.995 19.995-19.995 52.415 0 72.41z" />
<glyph unicode="&#xe911;" glyph-name="eft" d="M786.628 106.014c0.085 14.793 0.171 30.071 0.171 45.116v0.299c0 4.378 0 8.905-0.956 13.389-2.082 9.903-9.161 15.787-19.426 16.128-0.316 0-0.614 0-0.934 0-9.882 0-17.020-5.397-19.571-14.788-1.34-4.89-1.446-10.010-1.468-14.857-0.064-34.214-0.064-68.979-0.064-102.622 0-16.363 0-32.747 0-49.109 0-18.509-2.803-21.291-21.461-21.291h-659.328c-18.318 0-21.315 3.017-21.315 21.589 0 298.829 0 597.657 0 896.465 0 18.361 3.017 21.357 21.569 21.357h659.329c18.423 0 21.184-2.826 21.184-21.591v-80.009c0-71.934 0-146.333 0.064-219.5 0-5.738 0.128-10.88 1.596-15.896 2.679-9.117 9.754-14.344 19.422-14.344 0.469 0 0.956 0 1.425 0.042 9.711 0.489 16.384 5.972 18.786 15.386 0.998 3.91 1.084 8.012 1.084 11.879v32.471c0.064 89.466 0.107 181.992 0 272.988-0.043 38.677-22.208 60.862-60.779 60.862-110.652 0-221.325 0.021-331.979 0.021s-222.199 0-333.277-0.021c-37.996 0-60.692-22.823-60.692-61.032-0.021-352.912 0-639.67 0.042-902.415 0-4.612 0.149-10.688 1.381-16.619 4.399-21.419 18.509-35.721 43.161-43.733l0.637-0.213 698.151 0.213c30.942 10.411 44.864 32.725 43.802 70.234-0.939 33.131-0.747 66.897-0.555 99.537v0.064zM1023.676 711.358c-0.256 0.68-0.491 1.36-0.747 2.061-0.529 1.445-1.041 2.805-1.463 4.186-7.501 23.418-28.646 39.165-52.659 39.165-4.062 0-8.183-0.446-12.241-1.339-16.533-3.613-29.137-14.004-39.654-32.748-1.062-1.913-3.849-3.931-4.911-4.080-0.913 0.085-1.805 0.106-2.675 0.106-12.54 0-18.658-8.054-22.144-14.111-9.946-17.192-20.19-34.617-30.093-51.469l-5.419-9.223c-0.913-1.551-1.933-3.103-2.953-4.633-12.134 5.419-19.255 7.565-24.841 7.565-8.29 0-12.262-4.951-14.793-9.265-7.607-12.984-0.657-21.761 18.274-35.468-1.105-1.976-2.21-3.974-3.358-5.95l-31.364-54.381c-33.515-58.098-68.173-118.177-102.195-177.318-2.679-4.676-5.184-9.924-7.885-16.576-4.949-12.241-9.498-24.819-13.897-37.018-9.545-26.415-19.383-53.722-33.873-78.396-10.923-18.615-11.456-37.781-1.596-56.994 0.341-0.678 0.427-2.526 0.149-3.23-8.542-10.901-17.19-21.44-26.351-32.619-1.254-1.532-2.53-3.081-3.806-4.634-0.508 1.212-0.998 2.423-1.485 3.614-3.017 7.33-5.867 14.259-9.609 20.89-6.711 11.878-18.761 18.957-32.192 18.957-11.2 0-21.824-5.060-29.18-13.858-0.998-1.19-1.933-2.381-2.867-3.635-0.299 3.358-0.576 6.694-0.87 10.010-1.382 16.090-2.679 31.262-4.548 46.583-2.061 16.917-15.642 30.579-32.26 32.469-1.57 0.171-3.166 0.277-4.736 0.277-16.619 0-30.707-9.754-35.917-24.841-12.578-36.425-24.841-73.613-36.699-109.594l-5.036-15.279c-3.315-10.027-0.34-19.123 8.139-24.905 3.953-2.697 8.224-4.122 12.349-4.122 8.943 0 16.469 6.417 20.079 17.19 7.906 23.505 15.834 47.454 23.505 70.596 3.315 10.031 6.652 20.062 9.967 30.093 1.741-12.838 2.953-26.014 4.1-40.823 1.596-20.595 12.326-34.94 29.453-39.356 2.978-0.768 6.016-1.148 8.99-1.148 13.047 0 25.182 7.351 34.193 20.719 0.128 0.192 0.256 0.38 0.384 0.55l0.358-0.87c2.039-5.056 3.977-9.818 5.952-14.515 7.095-16.913 20.527-27.008 35.934-27.008 11.921 0 23.462 6.097 32.474 17.148 4.715 5.803 9.412 11.772 13.939 17.553 6.097 7.757 12.39 15.791 18.829 23.441 1.404 1.677 4.591 3.273 6.545 3.273 0.064 0 0.149 0 0.213 0 2.167-0.192 4.292-0.277 6.374-0.277 21.039 0 37.658 9.583 50.854 29.303 13.261 19.827 27.456 39.403 42.159 58.167 3.358 4.271 6.716 8.499 10.095 12.749 16.107 20.25 32.768 41.182 45.922 64.644 28.54 50.94 58.313 102.345 87.087 152.073 11.221 19.401 22.844 39.441 34.214 59.204 1.105 1.911 2.274 3.823 3.443 5.675 10.283-4.762 15.13-8.482 16.469-12.561 1.399-4.271-0.555-10.432-6.758-21.231-5.867-10.197-11.75-20.399-17.638-30.601-14.003-24.29-28.476-49.387-42.607-74.142-3.977-6.972-5.21-13.794-3.571-19.721 1.382-4.996 4.762-9.139 9.754-11.942 3.251-1.83 6.652-2.765 10.095-2.765 7.714 0 14.895 4.74 19.721 13.026 3.593 6.187 7.202 12.369 10.795 18.53 18.214 31.262 37.039 63.561 54.976 95.693 15.876 28.39 7.394 59.185-21.103 76.631-2.803 1.721-5.653 3.421-8.627 5.206l-0.785 0.468c3.059 5.313 6.076 10.604 9.097 15.875 8.943 15.64 17.404 30.431 26.351 45.306 6.396 10.668 11.366 22.951 0.934 34.256l13.154 28.37 0.401 0.85v19.529l-0.252 0.701-0.064-0.064zM683.153 190.946c-3.806 0.085-9.63 3.315-11.499 6.396-3.823 6.272-1.212 11.051 3.742 18.978 0.721 1.148 1.442 2.317 2.146 3.507l21.952-12.454c-0.661-1.19-1.276-2.381-1.873-3.55-4.271-8.222-7.010-12.877-14.131-12.877h-0.337zM760.653 289.591l-38.272-46.285-4.399 2.573-22.78 13.261 20.89 56.166 44.561-25.715zM916.041 551.531l-131.076-227.17-51.191 29.602 131.072 227.149 51.195-29.581zM966.784 639.381l-29.559-51.193-3.61 2.083-47.518 27.477 29.538 51.193 1.318-0.765 49.83-28.795zM967.403 713.547c4.036-0.021 10.18-3.421 12.177-6.737 3.614-5.971 1.169-10.455-3.507-17.85-0.913-1.445-1.826-2.89-2.701-4.42l-21.824 12.581c0.661 1.254 1.297 2.529 1.916 3.761 4.036 8.097 6.652 12.666 13.79 12.666h0.149zM204.035 816.251h105.914c97.903 0 195.762 0 293.665 0.021h3.315c3.081 0 6.673 0.042 10.223 0.637 9.86 1.658 16.192 8.692 16.956 18.828 0.789 10.391-4.484 18.275-14.089 21.102-5.12 1.509-10.645 1.721-15.872 1.721-72.614 0.064-145.207 0.064-212.829 0.064h-102.62c-10.413 0-20.847 0-31.26 0s-20.847 0-31.26 0c-18.488 0-33.555 0-47.389-0.064-18.616-0.064-26.224-7.735-26.33-26.457-0.064-13.324-0.042-26.883-0.021-39.994v-13.58c0.021-23.886 6.312-30.070 30.537-30.070h151.858c89.849 0 179.675 0 269.523 0.021 4.019 0 8.29 0.085 12.476 0.722 10.517 1.573 16.977 8.968 17.318 19.742 0.341 10.901-5.696 18.637-16.149 20.741-5.077 1.020-10.244 1.147-14.601 1.169-96.606 0.043-193.233 0.043-289.818 0.043h-118.346v25.373h8.798v-0.021zM99.32 242.513c-23.992-30.793-35.234-69.133-30.814-105.173 9.606-78.413 70.51-133.18 148.118-133.18 7.098 0 14.344 0.469 21.548 1.404 33.491 4.314 65.027 21.675 88.807 48.9 23.779 27.221 36.785 60.796 36.615 94.588-0.064 13.726-7.502 22.78-19.402 23.629-0.574 0.043-1.126 0.064-1.658 0.064-11.582 0-19.869-8.563-21.123-21.824-0.148-1.681-0.297-3.358-0.425-5.039-0.319-3.951-0.595-7.671-1.233-11.366-8.479-50.513-52.447-88.614-102.301-88.614-3.995 0-8.054 0.252-12.028 0.764-28.37 3.593-53.807 17.318-71.658 38.613-17.787 21.248-26.117 47.791-23.461 74.761 2.699 27.264 14.833 52.105 34.15 69.914 19.232 17.724 44.478 27.477 71.063 27.477 2.061 0 4.165-0.064 6.226-0.171 19.466-1.084 38.060-7.693 56.825-20.207 4.442-2.957 9.223-4.527 13.813-4.527 7.119 0 13.409 3.674 17.234 10.091 6.141 10.266 3.039 21.892-7.948 29.585-25.267 17.719-53.807 27.179-84.876 28.070h-0.553c-2.38-0.256-4.76-0.491-7.14-0.721-5.1-0.491-10.349-0.998-15.556-1.638-35.914-4.378-70.298-24.546-94.29-55.356l0.064-0.043zM669.538 603.326c-3.593 0.956-7.65 1.381-12.817 1.381-57.587 0.021-115.179 0.043-172.745 0.043-61.651 0-123.278 0-184.927-0.064-3.953 0-9.117-0.212-13.983-1.827-9.563-3.145-14.557-10.88-13.728-21.187 0.829-10.115 7.013-16.916 16.958-18.679 2.975-0.531 5.908-0.595 8.649-0.595 0.659 0 1.318 0 1.976 0 0.638 0 1.275 0 1.913 0 36.573 0 73.082 0 109.591 0h130.861c38.106 0 76.207 0 114.308 0h3.23c2.637 0 5.461 0.043 8.269 0.468 10.603 1.594 17.084 8.585 17.766 19.189 0.678 10.732-4.89 18.467-15.3 21.23l-0.021 0.043zM135.261 502.020c-10.519-2.21-16.469-9.647-16.342-20.42 0.127-10.82 6.29-18.108 16.873-19.998 4.484-0.811 8.968-0.87 13.558-0.87 31.494-0.021 62.988-0.043 94.481-0.043h123.977c33.491 0 66.961 0 100.454 0h2.889c2.381 0 4.928 0.043 7.458 0.294 12.305 1.318 20.041 9.203 20.19 20.531 0.149 11.516-7.142 19.422-19.507 21.163-3.149 0.448-6.272 0.448-9.289 0.448h-0.192c-46.368 0-92.738 0-139.107 0-60.926 0-121.831 0-182.778-0.043-5.164 0-9.053-0.341-12.644-1.084l-0.021 0.021zM556.676 723.041c-0.764 0-1.532 0-2.317 0-0.742 0-1.489 0-2.231 0-34.492 0-68.958 0-103.428 0h-117.963c-32.514 0-65.028 0-97.563-0.021-3.995 0-8.245-0.064-12.495-0.744-10.455-1.679-16.852-9.095-17.128-19.827-0.276-10.838 5.78-18.552 16.172-20.634 5.036-0.999 10.2-1.147 14.578-1.147 64.518-0.043 129.056-0.043 193.574-0.043h124.382c0.742 0 1.463 0 2.21 0 0.764 0 1.527 0 2.274 0 1.591 0 3.716 0.021 5.862 0.255 12.604 1.338 21.039 9.839 20.996 21.144-0.043 11.603-8.371 19.785-21.227 20.868-2.082 0.17-4.147 0.192-5.696 0.192v-0.043zM234.865 418.543c-33.555 0-63.88-0.085-92.696-0.256-4.611-0.021-13.345-1.468-16.809-6.694-3.464-5.205-6.396-13.705-5.079-20.911 1.658-9.075 9.478-14.494 20.911-14.494 11.709 0 23.397 0 35.064 0 10.413 0 20.826 0 31.26 0h16.979c7.438 0 14.854 0 22.292-0.021 8.416 0 16.831 0 25.246 0 13.048 0 23.779 0.021 33.767 0.064 14.174 0.064 23.588 8.077 23.95 20.382 0.17 5.798-1.743 10.923-5.525 14.852-4.335 4.463-10.88 6.95-18.467 6.972-26.16 0.064-49.344 0.107-70.893 0.107zM266.625 198.618c-1.934-1.724-3.719-3.571-5.461-5.333-0.595-0.597-1.169-1.212-1.764-1.809-12.644-12.749-25.289-25.498-38.272-38.613l-9.606-9.69c-2.508 2.551-4.994 5.060-7.438 7.543-7.884 7.97-15.322 15.514-22.972 23.036-5.823 5.739-12.113 8.755-18.17 8.755-5.015 0-9.839-2.082-13.898-6.012-4.080-3.951-6.29-8.841-6.375-14.11-0.106-6.229 2.741-12.476 8.181-18.086 10.392-10.688 21.485-22.037 33.045-32.981 8.203-7.778 17.723-11.878 27.541-11.878s19.572 4.207 27.86 12.156c9.159 8.798 18.233 17.98 26.989 26.842 3.867 3.908 7.714 7.795 11.581 11.686 1.807 1.805 3.613 3.593 5.44 5.397 4.25 4.186 8.628 8.521 12.793 12.983 9.053 9.732 9.521 22.037 1.148 30.622-3.995 4.105-8.989 6.272-14.429 6.272s-11.263-2.338-16.193-6.758v-0.021zM667.571 502.234c-3.337 0.593-7.014 0.87-11.558 0.892-17.045 0.021-34.065 0.043-51.11 0.043-17.041 0-33.894 0-50.854-0.064-4.463 0-9.199-0.171-13.747-1.297-9.289-2.295-14.729-8.99-15.279-18.85-0.341-5.952 1.399-11.179 5.013-15.066 4.143-4.484 10.479-6.929 18.3-7.057 6.733-0.128 13.982-0.171 22.822-0.171 5.611 0 11.243 0.021 16.849 0.043 4.318 0 8.631 0.043 12.945 0.043l3.866-0.043c1.745 0 3.507 0 5.248 0 1.766 0 3.529 0 5.274 0 2.103 0 4.228 0 6.332 0.021 4.122 0.043 8.243 0.064 12.369 0.064 10.581 0.021 21.525 0.064 32.32 0.683 11.157 0.636 18.214 8.286 18.445 19.994 0.213 11.221-6.076 18.786-17.254 20.809l0.021-0.043zM402.956 376.188c5.589 0 11.178 0 16.767 0s11.155 0 16.745 0h0.171c5.44 0 10.859 0 16.299 0s10.88 0 16.299 0c7.292 0 14.601 0 21.892 0.064 15.044 0.085 24.585 7.97 24.883 20.57 0.128 5.675-1.783 10.714-5.568 14.579-4.378 4.506-11.008 7.014-18.658 7.057-18.295 0.081-37.060 0.124-55.761 0.124s-37.318-0.043-56.167-0.124c-7.714-0.043-14.387-2.509-18.786-6.993-3.761-3.827-5.695-8.798-5.632-14.409 0.149-12.54 9.86-20.698 24.757-20.804 6.736-0.043 13.983-0.064 22.802-0.064h-0.042z" />
<glyph unicode="&#xe912;" glyph-name="fx" horiz-adv-x="1069" d="M1051.359 690.092c-58.163 51.67-117.177 104.375-174.24 155.344-22.773 20.332-45.546 40.665-68.314 60.997-19.879 17.741-32.679 17.711-52.678-0.091-37.95-33.806-75.905-67.643-113.824-101.48-43.378-38.684-86.728-77.367-130.137-115.99-14.692-13.077-18.717-24.509-13.41-38.226 5.485-14.236 16.215-20.516 34.963-20.241 13.717 0.183 27.345 0.214 41.214 0.214 9.817 0 19.723 0 29.905-0.061 10.365 0 20.881-0.061 31.642-0.061h6.099v-120.046c0-91.844 0-183.723 0-275.572 0-34.473 8.749-43.409 42.492-43.435 65.082-0.031 130.133-0.031 195.219 0 33.133 0 42.216 9.020 42.216 41.85 0 89.075 0 178.118 0 267.188v130.045h37.042c23.378 0 45.844 0 68.31 0 25.974 0.031 34.024 7.743 38.565 20.18 5.975 16.339-1.345 27.191-15.093 39.385h0.031zM860.44 253.262h-156.107v375.802h156.107v-375.802zM607.61 692.074l174.761 156.198 175.162-156.198h-349.923zM383.432 505.518c-3.323 7.070-9.236 12.772-18.015 15.302-18.138 5.274-35.483-12.804-46.579-24.812-10.73-11.585-21.674-22.893-32.801-34.113-25.027-25.271-49.932-50.692-75.020-75.936-3.018-3.014-6.005-6.064-9.023-9.082-13.84-13.9-27.679-27.799-41.519-41.672-13.962-13.989-27.923-27.951-41.885-41.944-34.477-34.509-70.112-70.175-105.046-105.414-8.2-8.259-12.834-17.070-13.443-25.484-0.579-8.107 2.5-15.547 9.145-22.127 18.321-18.138 37.769-4.759 47.707 4.844 1.341 1.282 2.652 2.622 3.963 3.931l59.809 59.904c50.054 50.145 100.108 100.29 150.162 150.466 32.922 33.013 65.022 67.157 99.072 98.981 13.291 12.404 21.917 29.050 13.473 47.064v0.093zM103.495 387.468c0.152 0 0.335 0 0.488 0 56.76 0.276 102.912 46.824 102.851 103.767-0.061 56.912-46.335 103.339-103.126 103.461h-0.244c-27.648 0-53.621-10.821-73.191-30.484-19.723-19.814-30.483-46.152-30.27-74.134 0.427-56.703 46.792-102.64 103.461-102.64l0.031 0.031zM103.342 533.637h0.092c22.802 0 41.854-18.565 42.463-41.396 0.305-11.251-4.115-22.439-12.132-30.667-8.017-8.263-19.053-12.987-30.27-13.018h-0.092c-11.34 0-22.040 4.572-30.179 12.867-8.048 8.228-12.528 19.416-12.285 30.667 0.518 22.861 19.54 41.517 42.403 41.547zM285.879 265.39c-0.183 0-0.366 0-0.518 0-56.73-0.272-102.791-46.85-102.73-103.825 0.092-56.943 46.366-103.339 103.157-103.402h0.152c27.618 0 53.621 10.881 73.221 30.635 19.753 19.875 30.484 46.214 30.24 74.106-0.488 56.641-46.884 102.485-103.553 102.485h0.031zM315.996 131.873c-8.109-8.17-18.747-12.653-29.965-12.653-0.122 0-0.274 0-0.396 0-11.218 0.125-22.223 4.942-30.148 13.232-7.956 8.321-12.315 19.541-11.919 30.787 0.792 22.742 19.814 41.094 42.463 41.094 0.122 0 0.275 0 0.396 0 22.833-0.214 41.732-18.993 42.098-41.886 0.183-11.246-4.39-22.403-12.498-30.573h-0.031zM901.187 147.029c-34.326 0.093-69.018 0.125-103.798 0.125s-69.258-0.031-103.798-0.125c-11.856 0-21.918-3.655-28.316-10.24-5.276-5.396-7.929-12.653-7.742-20.943 0.454-18.169 14.265-29.571 36.058-29.692 23.748-0.12 47.954-0.089 71.333-0.062 20.792 0 41.579 0 62.371 0 24.202-0.027 49.259-0.058 73.862 0.062 21.767 0.12 35.604 11.491 36.063 29.66 0.214 8.321-2.471 15.578-7.711 21.005-6.371 6.554-16.433 10.182-28.289 10.209h-0.031zM866.5 37.234c-22.835 0.151-45.911 0.245-69.049 0.245-23.133 0-46.182-0.062-69.196-0.214-10.792-0.062-20.151-3.629-26.339-10.031-5.365-5.547-8.107-12.862-7.894-21.121 0.459-17.742 13.869-29.389 34.233-29.665 15.516-0.209 31.366-0.151 46.641-0.12 14.082 0.062 28.164 0.062 42.251 0 16.152-0.062 32.83-0.089 49.228 0.12 20.364 0.276 33.81 11.892 34.264 29.634 0.214 8.321-2.498 15.636-7.863 21.183-6.157 6.371-15.516 9.937-26.308 10l0.031-0.031z" />
<glyph unicode="&#xe913;" glyph-name="messages" d="M430.753 13.84c-24.253 0-47.293 12.126-63.057 33.549l-48.504 64.674c0-0.404-2.022 0.808-2.83 0.808h-14.955c-138.24 0-223.933 37.592-223.933 223.933v161.684c0 170.173 103.883 214.636 191.192 222.316 9.701 1.213 21.019 1.617 32.741 1.617h258.694c146.324 0 223.933-77.609 223.933-223.933v-161.684c0-11.722-0.404-23.040-2.021-33.954-7.276-86.097-51.739-189.979-221.912-189.979h-16.168l-50.123-65.482c-15.764-21.423-38.804-33.549-63.057-33.549zM301.407 661.79c-9.297 0-18.19-0.404-26.678-1.213-93.777-8.084-136.623-59.419-136.623-162.089v-161.684c0-138.644 42.847-163.301 163.302-163.301h16.168c18.189 0 38.804-10.105 50.122-24.657l48.506-65.078c8.893-12.126 20.211-12.126 29.103 0l48.505 64.674c11.722 15.764 30.317 25.061 50.123 25.061h16.168c102.669 0 154.004 43.251 161.684 135.411 1.213 9.701 1.617 18.594 1.617 27.891v161.684c0 112.775-50.526 163.302-163.301 163.302h-258.694zM430.763 361.052c-22.636 0-40.421 18.189-40.421 40.421s18.189 40.422 40.421 40.422 40.421-18.189 40.421-40.422c0-22.232-17.785-40.421-40.421-40.421zM560.101 361.052c-22.638 0-40.423 18.189-40.423 40.421s18.189 40.422 40.423 40.422c22.232 0 40.421-18.189 40.421-40.422 0-22.232-18.189-40.421-40.421-40.421zM301.802 361.052c-22.636 0-40.421 18.189-40.421 40.421s18.189 40.422 40.421 40.422 40.421-18.189 40.421-40.422c0-22.232-18.189-40.421-40.421-40.421zM752.106 276.173c-8.084 0-16.168 3.234-21.827 9.297-6.467 6.467-9.297 15.764-8.084 24.657 1.213 8.488 1.617 17.381 1.617 26.678v161.684c0 112.775-50.526 163.302-163.301 163.302h-258.695c-9.297 0-18.188-0.404-26.677-1.213-8.893-1.213-18.19 2.022-24.657 8.085-6.467 6.467-10.106 15.359-9.297 24.252 7.276 87.309 52.143 191.192 222.316 191.192h258.695c146.324 0 223.933-77.609 223.933-223.933v-161.684c0-170.172-103.882-214.635-191.192-222.315-1.213 0-2.021 0-2.829 0zM306.667 722.421h253.439c146.324 0 223.933-77.609 223.933-223.933v-156.429c68.716 16.977 101.053 67.503 101.053 156.429v161.684c0 112.775-50.526 163.302-163.301 163.302h-258.694c-88.926 0-139.048-32.337-156.429-101.053z" />
<glyph unicode="&#xe914;" glyph-name="presention-chart" d="M758.568 217.158h-493.137c-93.777 0-147.537 53.76-147.537 147.537v489.095c0 16.573 13.743 30.316 30.316 30.316h727.579c16.573 0 30.316-13.743 30.316-30.316v-489.095c0-93.777-53.76-147.537-147.537-147.537zM178.526 823.474v-458.779c0-60.227 26.678-86.905 86.905-86.905h492.733c60.227 0 86.905 26.678 86.905 86.905v458.779h-666.543zM916.211 823.474h-808.421c-16.573 0-30.316 13.743-30.316 30.316s13.743 30.316 30.316 30.316h808.421c16.573 0 30.316-13.743 30.316-30.316s-13.743-30.316-30.316-30.316zM350.327 15.053c-11.318 0-21.828 6.063-27.083 16.573-7.68 14.956-1.616 33.145 13.744 40.825l144.707 72.354v102.669c0 16.573 13.743 30.316 30.316 30.316s30.316-13.743 30.316-30.316v-121.263c0-11.318-6.468-21.827-16.977-27.082l-161.684-80.842c-4.042-2.021-8.892-3.234-13.338-3.234zM673.684 15.047c-4.446 0-9.297 1.213-13.339 3.234l-161.686 80.842c-14.956 7.68-21.020 25.869-13.744 40.825 7.68 14.956 25.87 21.019 40.826 13.743l161.686-80.842c14.956-7.68 21.019-25.869 13.743-40.825-5.659-10.914-16.573-16.977-27.486-16.977zM330.102 459.684c-8.488 0-17.381 3.637-23.444 10.913-10.914 12.935-8.893 31.933 4.042 42.846l127.327 106.307c11.722 9.701 26.677 13.743 40.825 11.318 14.552-2.425 27.083-11.317 34.763-24.252l42.439-70.737 118.434 98.626c12.935 10.509 31.933 8.894 42.846-4.041s8.898-31.933-4.037-42.846l-127.332-106.307c-11.722-9.701-26.678-13.743-40.82-11.318-14.554 2.425-27.085 11.317-34.765 24.252l-42.442 70.737-118.434-98.626c-5.659-4.446-12.531-6.872-19.403-6.872z" />
<glyph unicode="&#xe915;" glyph-name="search-2" horiz-adv-x="967" d="M461.68 868.083c-215.706 0-390.569-174.864-390.569-390.569s174.863-390.571 390.569-390.571c215.707 0 390.567 174.865 390.567 390.571s-174.859 390.569-390.567 390.569zM0 477.515c0 254.979 206.701 461.68 461.68 461.68s461.678-206.701 461.678-461.68c0-254.977-206.7-461.682-461.678-461.682-254.979 0-461.68 206.706-461.68 461.682zM732.882 184.121c13.87 13.904 36.38 13.932 50.284 0.063l167.066-166.633c13.904-13.864 13.932-36.38 0.063-50.278-13.87-13.904-36.38-13.938-50.284-0.068l-167.060 166.633c-13.904 13.87-13.932 36.38-0.068 50.284z" />
<glyph unicode="&#xe916;" glyph-name="sorter" horiz-adv-x="1479" d="M346.245 912.505c28.881 28.881 75.707 28.881 104.588 0l244.921-244.917c28.881-28.881 28.882-75.707 0.001-104.589-28.881-28.881-75.708-28.881-104.589 0l-192.627 192.624-192.624-192.624c-28.881-28.881-75.707-28.881-104.588 0s-28.881 75.708 0 104.589l244.917 244.917zM398.509 934.167c40.845 0 73.956-33.111 73.956-73.956v-844.231c0-40.845-33.11-73.956-73.956-73.956-40.844 0-73.956 33.11-73.956 73.956v844.231c0 40.845 33.112 73.956 73.956 73.956zM795.271 313.664c28.881 28.882 75.708 28.882 104.589 0.001l192.627-192.624 192.621 192.624c28.888 28.881 75.708 28.881 104.596 0 28.877-28.881 28.877-75.708 0-104.589l-244.918-244.917c-28.886-28.881-75.711-28.882-104.592-0.001l-244.921 244.917c-28.881 28.881-28.882 75.708-0.001 104.589zM1092.449 934.167c40.845 0 73.956-33.111 73.956-73.956v-844.231c0-40.845-33.11-73.956-73.956-73.956-40.844 0-73.956 33.11-73.956 73.956v844.231c0 40.845 33.112 73.956 73.956 73.956z" />
<glyph unicode="&#xe917;" glyph-name="star" horiz-adv-x="1088" d="M801.158-15.034c-24.064 0-54.944 7.718-93.542 30.426l-135.77 80.371c-14.077 8.173-41.322 8.173-54.945 0l-136.225-80.371c-80.373-47.68-127.597-28.608-148.94-13.171-20.888 15.437-53.582 54.944-32.24 145.76l32.24 139.405c3.633 14.534-3.633 39.507-14.531 50.405l-112.613 112.612c-56.307 56.307-51.766 104.44-44.046 128.052s32.24 65.389 110.343 78.557l144.853 24.067c13.622 2.271 33.148 16.801 39.051 29.062l80.373 160.292c36.327 73.107 84.006 84.005 108.98 84.005s72.653-10.898 108.98-84.005l79.917-159.838c6.362-12.26 25.888-26.791 39.507-29.061l144.851-24.067c78.56-13.169 103.078-54.945 110.342-78.557 7.27-23.612 11.808-71.745-44.045-128.052l-112.614-113.067c-10.893-10.899-17.709-35.416-14.528-50.405l32.243-139.405c20.883-90.816-11.354-130.323-32.243-145.76-11.354-8.173-29.517-17.254-55.398-17.254zM544.147 170.234c22.25 0 44.5-5.446 62.209-15.891l135.769-80.378c39.507-23.61 64.48-23.61 74.016-16.8s16.352 30.88 6.362 75.379l-32.243 139.405c-8.627 37.69 5.453 86.275 32.698 113.974l112.608 112.613c22.253 22.25 32.243 44.046 27.699 59.031-4.992 14.985-25.882 27.245-56.755 32.24l-144.858 24.067c-34.963 5.903-73.107 34.056-88.998 65.843l-79.919 159.837c-14.531 29.062-32.694 46.317-48.587 46.317s-34.056-17.255-48.133-46.317l-80.373-159.837c-15.893-31.786-54.036-59.939-89-65.843l-144.399-24.067c-30.877-4.995-51.765-17.255-56.76-32.24s5.449-37.235 27.699-59.031l112.613-112.613c27.245-27.245 41.322-76.285 32.694-113.974l-32.24-139.405c-10.444-44.954-3.178-68.57 6.357-75.379s34.056-6.355 74.016 16.8l135.772 80.378c17.255 10.445 39.505 15.891 61.756 15.891z" />
<glyph unicode="&#xe918;" glyph-name="star-filled" d="M594.558 888.021l84.096-169.581c11.468-23.607 42.045-46.249 67.85-50.585l152.426-25.534c97.471-16.38 120.409-87.68 50.169-158.018l-118.497-119.478c-20.070-20.234-31.061-59.257-24.849-87.199l33.922-147.9c26.761-117.071-34.877-162.352-137.605-101.171l-142.868 85.272c-25.802 15.415-68.327 15.415-94.607 0l-142.866-85.272c-102.253-61.181-164.368-15.415-137.611 101.171l33.924 147.9c6.212 27.942-4.778 66.966-24.846 87.199l-118.498 119.478c-69.761 70.337-47.304 141.638 50.171 158.018l152.422 25.534c25.324 4.336 55.904 26.978 67.372 50.585l84.095 169.581c45.87 92.017 120.409 92.017 165.801 0z" />
<glyph unicode="&#xe919;" glyph-name="stocks" horiz-adv-x="983" d="M518.017 960h-33.251c-15.835 0-31.76-1.034-47.366-3.079-9.56-1.241-19.763-2.643-29.714-4.412-118.329-20.913-217.883-79.147-295.904-173.093-59.705-71.908-95.831-154.617-107.344-245.804-18.155-143.819 19.465-272.74 111.826-383.209 71.517-85.537 163.579-140.923 273.59-164.614 13.858-2.99 28.243-4.78 42.169-6.529 6.734-0.848 13.697-1.72 20.525-2.712 1.999-0.299 3.973-0.733 5.902-1.147 0.782-0.184 1.565-0.344 2.367-0.508h61.338c5.677 0.782 11.375 1.52 17.076 2.253 12.112 1.565 24.633 3.17 36.86 5.239 25.715 4.346 51.364 10.94 76.206 19.603 73.699 25.694 141.496 69.796 196.076 127.59 58.761 62.21 100.356 138.924 120.304 221.815 7.471 31.023 14.365 63.98 14.365 94.913v47.776h-465.023v465.92zM274.28 847.117c56.993 34.333 120.099 54.005 187.548 58.464l2.527 0.161v-63.060h-197.406l7.331 4.412v0.023zM140.807 730.327c1.448 1.908 2.804 3.746 4.114 5.539 2.804 3.838 5.424 7.446 8.48 10.778 3.539 3.861 7.009 8.158 10.365 12.295 8.664 10.709 17.626 21.809 29.255 27.715 9.836 4.987 22.499 3.953 34.747 2.942 4.941-0.414 9.951-0.804 14.8-0.827 50.857 0.046 101.714 0.046 152.571 0.023h69.287v-62.302h-326.537l2.919 3.815v0.023zM77.126 614.112c2.023 4.481 3.999 8.894 5.952 13.237 6.159 13.72 11.973 26.658 18.201 39.574 1.655 3.447 7.009 5.516 10.249 5.676 7.285 0.391 14.662 0.322 21.809 0.253 2.735-0.023 5.469-0.046 8.227-0.046h322.86v-62.049h-388.816l1.517 3.355zM61.2 556.291h403.205v-61.544h-411.156l7.952 61.544zM64.9 378.577c-0.575 0.139-1.287 0.324-2.252 0.553l-1.632 0.369-7.768 60.69h378.060l-2.183-3.604c-0.344-0.578-0.664-1.151-0.963-1.724-0.713-1.311-1.47-2.666-2.482-3.863l-5.747-6.824c-11.169-13.259-22.705-26.98-34.379-40.219-2.482-2.826-7.147-5.677-11.261-5.677-58.694-0.135-118.008-0.18-176.817-0.18-38.309 0-76.389 0-113.986 0.020h-15.903c-0.873 0-1.631 0.209-2.689 0.483v-0.025zM111.896 262.181c-3.172 0-8.572 1.491-10.066 4.641-6.504 13.537-12.594 27.095-19.051 41.435-1.908 4.252-3.838 8.524-5.791 12.87l-1.517 3.355h259.479l-7.584-9.191c-2.895-3.518-5.561-6.758-8.25-9.953-2.482-2.916-4.941-5.857-7.4-8.798-7.952-9.495-16.202-19.304-24.636-28.66-2.918-3.24-8.043-5.607-12.18-5.632-26.244-0.135-53.638-0.229-83.421-0.229-24.636 0-50.926 0.049-79.538 0.139l-0.046 0.025zM136.049 208.011h100.496l-49.179-58.073-51.317 58.073zM835.985 440.787h94.429l-0.299-2.642c-20.66-177.943-108.564-302.891-261.251-371.327-59.613-26.726-119.271-40.079-178.655-40.079-87.602 0-174.655 29.049-260.282 87.052l-2.183 1.495 19.534 23.073c13.191 15.581 25.992 30.7 38.815 45.822l47.571 56.074c52.788 62.21 107.369 126.534 160.892 189.94 6.504 7.696 13.074 10.846 22.68 10.846h0.115c106.222-0.299 214.209-0.274 318.636-0.274v0.020zM864.862 841.62h-51.982v-284.023h51.982v284.023zM748.9 783.28h-51.962v-226.019h51.962v226.019zM633.016 667.52h-51.937v-109.988h51.937v109.988z" />
<glyph unicode="&#xe91a;" glyph-name="circle-info" d="M499.017 23.096c228.638 0 413.951 185.313 413.951 413.952 0 228.592-185.318 413.953-413.951 413.953-228.589 0-413.952-185.363-413.952-413.953 0-228.634 185.361-413.952 413.952-413.952zM989.768 437.048c0-271.053-219.699-490.752-490.751-490.752-271.001 0-490.752 219.699-490.752 490.752 0 271.004 219.748 490.753 490.752 490.753 271.057 0 490.751-219.751 490.751-490.753zM499.338 212.966c-21.208 0-38.4 17.188-38.4 38.4v216.1c0 21.208 17.192 38.4 38.4 38.4s38.401-17.192 38.401-38.4v-216.1c0-21.212-17.193-38.4-38.401-38.4zM537.738 622.73c0-21.208-17.193-38.4-38.401-38.4h-0.683c-21.208 0-38.4 17.192-38.4 38.4s17.192 38.4 38.4 38.4h0.683c21.208 0 38.401-17.192 38.401-38.4z" />
<glyph unicode="&#xe91b;" glyph-name="tick" d="M993.28 854.674c-18.601 18.974-44.498 30.735-73.143 30.735s-54.542-11.761-73.126-30.718l-0.016-0.017-464.457-574.903-201.874 209.92c-19.023 19.54-45.582 31.661-74.971 31.661s-55.948-12.122-74.949-31.638l-0.022-0.023c-18.989-20.221-30.655-47.514-30.655-77.531s11.666-57.31 30.711-77.592l-0.056 0.060 283.794-292.571c18.685-18.794 44.555-30.425 73.143-30.425s54.458 11.632 73.138 30.42l0.005 0.005 529.554 658.286c19.996 20.208 32.35 48.012 32.35 78.702 0 29.198-11.182 55.784-29.497 75.71l0.073-0.080z" />
<glyph unicode="&#xe91c;" glyph-name="eye-close" d="M227.597 832.4c-4.255 4.675-9.388 8.466-15.109 11.157s-11.914 4.229-18.228 4.526c-12.753 0.6-25.221-3.89-34.663-12.483s-15.083-20.585-15.683-33.337c-0.6-12.752 3.89-25.221 12.483-34.662l64.4-70.4c-138-91.6-198-223.6-200.8-229.6-2.575-6.214-3.9-12.874-3.9-19.6s1.325-13.387 3.9-19.6c29.088-58.673 67.599-112.183 114-158.4 103.6-103.202 234-158.003 378-158.003 69.976-0.302 139.318 13.295 204.001 40.004l80.401-88.4c8.63-9.381 20.611-14.979 33.343-15.576s25.185 3.846 34.657 12.373c9.381 8.63 14.973 20.611 15.576 33.343 0.597 12.732-3.851 25.185-12.379 34.657l-639.998 704.002zM511.997 207.997c-118.4 0-222 42.803-307.6 127.602-33.744 33.394-62.808 71.204-86.4 112.401 21.2 37.2 75.2 119.6 168 177.2l360.402-396.398c-43.406-14.063-88.78-21.083-134.403-20.804zM1003.998 428.4c-1.599-3.2-35.999-79.603-112.401-156.403-4.392-4.58-9.677-8.215-15.519-10.689-5.842-2.48-12.134-3.738-18.478-3.709-9.432 0.165-18.603 3.072-26.396 8.38-7.799 5.302-13.875 12.766-17.488 21.476-3.607 8.71-4.597 18.284-2.844 27.546 1.758 9.267 6.178 17.818 12.726 24.599 32.154 32.319 59.864 68.774 82.398 108.402-23.592 41.197-52.656 79.007-86.397 112.4-85.601 84.8-189.201 127.6-307.601 127.6-13.2 0-26.8-0.4-40-1.6-6.266-0.602-12.588 0.053-18.597 1.931s-11.58 4.937-16.388 8.999c-4.808 4.062-8.755 9.046-11.608 14.656s-4.556 11.736-5.007 18.014c-1.11 12.677 2.86 25.275 11.035 35.026s19.889 15.856 32.564 16.974c15.6 1.2 32 2 48 2 144 0 274.401-54.8 378.001-158 46.399-46.215 84.912-99.725 114-158.4 2.577-6.214 3.897-12.874 3.897-19.6s-1.32-13.387-3.897-19.6z" />
<glyph unicode="&#xe91d;" glyph-name="calendar" horiz-adv-x="916" d="M275.479 944.785c19.347 0 35.032-15.684 35.032-35.032v-134.737c0-19.347-15.684-35.032-35.032-35.032s-35.032 15.684-35.032 35.032v134.737c0 19.347 15.684 35.032 35.032 35.032zM634.783 944.785c19.348 0 35.032-15.684 35.032-35.032v-134.737c0-19.347-15.683-35.032-35.032-35.032s-35.032 15.684-35.032 35.032v134.737c0 19.347 15.683 35.032 35.032 35.032zM38.342 591.332c0 19.347 15.684 35.032 35.032 35.032h763.509c19.348 0 35.032-15.684 35.032-35.032s-15.683-35.032-35.032-35.032h-763.509c-19.348 0-35.032 15.684-35.032 35.032zM129.924 756.793c-28.468-30.658-43.973-76.972-43.973-138.97v-381.753c0-62.001 15.504-108.312 43.973-138.973 28.032-30.186 73.637-50.559 145.557-50.559h359.296c71.923 0 117.528 20.372 145.559 50.559 28.467 30.661 43.973 76.972 43.973 138.973v381.753c0 61.998-15.506 108.312-43.973 138.97-28.031 30.188-73.636 50.56-145.559 50.56h-359.296c-71.92 0-117.526-20.372-145.557-50.56zM78.582 804.467c44.951 48.409 111.625 72.949 196.899 72.949h359.296c85.278 0 151.951-24.54 196.899-72.949 44.517-47.938 62.696-113.905 62.696-186.644v-381.753c0-72.742-18.179-138.709-62.696-186.643-44.948-48.414-111.621-72.952-196.899-72.952h-359.296c-85.274 0-151.948 24.538-196.899 72.952-44.515 47.934-62.694 113.901-62.694 186.643v381.753c0 72.739 18.18 138.706 62.694 186.644zM586.041 384.269c0 19.348 15.683 35.032 35.032 35.032h0.404c19.343 0 35.032-15.683 35.032-35.032s-15.689-35.032-35.032-35.032h-0.404c-19.348 0-35.032 15.683-35.032 35.032zM586.041 249.533c0 19.348 15.683 35.032 35.032 35.032h0.404c19.343 0 35.032-15.683 35.032-35.032s-15.689-35.032-35.032-35.032h-0.404c-19.348 0-35.032 15.683-35.032 35.032zM419.895 384.269c0 19.348 15.684 35.032 35.032 35.032h0.403c19.348 0 35.032-15.683 35.032-35.032s-15.684-35.032-35.032-35.032h-0.403c-19.348 0-35.032 15.683-35.032 35.032zM419.895 249.533c0 19.348 15.684 35.032 35.032 35.032h0.403c19.348 0 35.032-15.683 35.032-35.032s-15.684-35.032-35.032-35.032h-0.403c-19.348 0-35.032 15.683-35.032 35.032zM253.671 384.269c0 19.348 15.684 35.032 35.032 35.032h0.403c19.348 0 35.032-15.683 35.032-35.032s-15.684-35.032-35.032-35.032h-0.403c-19.348 0-35.032 15.683-35.032 35.032zM253.671 249.533c0 19.348 15.684 35.032 35.032 35.032h0.403c19.348 0 35.032-15.683 35.032-35.032s-15.684-35.032-35.032-35.032h-0.403c-19.348 0-35.032 15.683-35.032 35.032z" />
<glyph unicode="&#xe91e;" glyph-name="more2" horiz-adv-x="256" d="M217.844 814.998c0-53.019-42.98-96-96-96s-96 42.981-96 96c0 53.020 42.981 96 96 96s96-42.981 96-96zM217.844 430.998c0-53.019-42.98-96-96-96s-96 42.981-96 96c0 53.020 42.981 96 96 96s96-42.98 96-96zM217.844 46.995c0-53.018-42.98-96-96-96s-96 42.982-96 96c0 53.024 42.981 96 96 96s96-42.976 96-96z" />
<glyph unicode="&#xe91f;" glyph-name="drag" horiz-adv-x="1252" d="M1068.407 808.76c-14.444 14.441-37.854 14.441-52.298 0l-122.459-122.458c-14.438-14.441-14.438-37.853 0-52.295s37.854-14.441 52.292 0l96.313 96.312 96.313-96.312c14.444-14.441 37.854-14.441 52.298 0 14.438 14.441 14.438 37.854 0 52.295l-122.459 122.458zM1042.273 819.59c-20.423 0-36.978-16.555-36.978-36.978v-422.113c0-20.423 16.555-36.978 36.978-36.978s36.978 16.555 36.978 36.978v422.113c0 20.423-16.555 36.978-36.978 36.978zM980.782 232.004c-14.444 14.444-37.854 14.444-52.298 0l-96.313-96.307-96.307 96.307c-14.444 14.444-37.854 14.444-52.298 0-14.438-14.438-14.438-37.854 0-52.292l122.459-122.459c14.444-14.438 37.854-14.438 52.298 0l122.459 122.459c14.438 14.438 14.438 37.854 0 52.292zM832.188 542.257c-20.423 0-36.978-16.555-36.978-36.978v-422.113c0-20.423 16.555-36.978 36.978-36.978s36.978 16.555 36.978 36.978v422.113c0 20.423-16.555 36.978-36.978 36.978zM48.986 857.965c0 23.564 19.102 42.667 42.666 42.667h546.379c23.563 0 42.667-19.103 42.667-42.667s-19.103-42.667-42.667-42.667h-546.379c-23.564 0-42.666 19.103-42.666 42.667zM48.986 605.115c0 23.564 19.102 42.667 42.666 42.667h483.204c23.563 0 42.667-19.103 42.667-42.667s-19.103-42.667-42.667-42.667h-483.204c-23.564 0-42.666 19.103-42.666 42.667zM48.986 352.319c0 23.563 19.102 42.664 42.666 42.664h420.032c23.564 0 42.666-19.1 42.666-42.664 0-23.569-19.102-42.667-42.667-42.667h-420.031c-23.564 0-42.666 19.098-42.666 42.667zM48.986 99.425c0 23.563 19.102 42.667 42.666 42.667h356.858c23.565 0 42.667-19.103 42.667-42.667 0-23.569-19.102-42.667-42.667-42.667h-356.858c-23.564 0-42.666 19.098-42.666 42.667z" />
<glyph unicode="&#xe920;" glyph-name="withdraw" horiz-adv-x="1122" d="M930.138 572.292c-20.607 0-38.936-8.023-52.18-21.628l-0.527-0.526c-15.326-14.963-23.952-36.34-21.787-59.084l0.034-0.344h-0.005c3.126-37.497 38.61-68.154 80.56-68.154h98.938c12.893 0.673 22.153 10.898 22.153 22.548v104.639c0 11.648-9.26 21.877-22.153 22.55h-105.033zM836.291 591.751c24.318 24.834 57.69 39.056 93.847 39.056h105.652c0.346 0 0.692-0.006 1.044-0.019 43.774-1.563 79.004-36.949 79.004-81.046v-104.639c0-44.095-35.23-79.482-79.004-81.047-0.351-0.010-0.697-0.015-1.044-0.015h-99.557c-67.711 0-132.749 49.513-138.854 121.637-3.857 41.058 11.776 79.431 38.912 106.072zM324.678 900.020c-12.828 0-25.050-0.916-36.694-2.707l-0.806-0.113c-58.221-7.306-104.522-32.34-136.361-69.695-31.899-37.425-50.85-89.080-50.85-152.196v-101.588c0-16.158-13.099-29.257-29.257-29.257s-29.257 13.099-29.257 29.257v101.588c0 75.043 22.699 140.721 64.832 190.153 42.114 49.41 102.079 80.731 173.206 89.746 14.643 2.231 29.714 3.326 45.188 3.326h457.141c13.58 0 27.882-0.497 42.179-2.817 71.778-8.502 132.457-39.633 175.148-89.103 42.774-49.568 65.902-115.683 65.902-191.305v-73.651c0-16.158-13.102-29.257-29.257-29.257h-105.652c-20.607 0-38.936-8.023-52.18-21.628l-0.527-0.525c-15.326-14.963-23.952-36.34-21.787-59.084l0.034-0.344h-0.005c3.126-37.498 38.61-68.155 80.56-68.155h99.557c16.155 0 29.257-13.102 29.257-29.257v-73.655c0-82.837-27.741-154.141-78.414-204.815-50.668-50.668-121.973-78.409-204.815-78.409h-126.981c-16.16 0-29.257 13.097-29.257 29.257s13.097 29.257 29.257 29.257h126.981c69.544 0 125.221 23.055 163.44 61.274s61.274 93.896 61.274 163.435v44.398h-70.3c-67.716 0-132.749 49.513-138.854 121.639-3.857 41.057 11.776 79.43 38.912 106.070 24.318 24.834 57.69 39.057 93.847 39.057h76.395v44.394c0 63.552-19.29 115.533-51.688 153.076-32.344 37.481-79.35 62.436-138.308 69.292-0.478 0.056-0.956 0.123-1.434 0.202-9.845 1.641-20.68 2.141-33.285 2.141h-457.141zM152.066 279.913c16.159 0 29.257-13.097 29.257-29.257 0-65.546 61.857-120.076 152.585-120.076 90.092 0 152.077 54.935 152.077 120.076 0 16.16 13.097 29.257 29.257 29.257s29.257-13.097 29.257-29.257v-103.112c0-107.208-98.315-187.226-210.591-187.226-112.164 0-211.1 79.921-211.1 187.226v103.112c0 16.16 13.099 29.257 29.257 29.257zM184.292 122.573c13.609-56.866 72.686-103.741 149.617-103.741 76.938 0 135.756 46.928 149.181 103.946-39.131-32.407-92.917-50.712-149.181-50.712-56.475 0-110.404 18.154-149.617 50.508zM478.944 429.183c4.59-12.342 7.029-25.405 7.029-38.824v-7.124c-1.092-7.524-3.875-17.798-7.568-28.589-2.204-6.437-4.423-12.19-6.093-16.335-0.78-1.936-1.431-3.501-1.893-4.593-23.948-37.81-74.13-64.561-136.525-64.561-63.066 0-113.907 27.872-137.532 66.185-9.583 16.023-15.049 34.172-15.049 53.892 0 34.133 15.81 65.575 42.857 89.242 27.384 24.013 65.625 38.961 109.217 38.961 43.385 0 81.786-15.333 109.41-39.132l0.369-0.308c16.338-13.616 28.556-30.317 35.78-48.813zM485.973 263.305v-12.629c0-65.59-61.913-120.076-152.076-120.076-90.207 0-152.585 55.033-152.585 120.076v13.283c39.211-34.055 93.96-53.316 152.582-53.316 58.254 0 112.84 18.764 152.080 52.663zM533.689 449.868c-10.737 28.691-28.93 54.056-52.016 74.257l-0.17 0.147c-38.408 33.090-90.42 53.312-147.606 53.312-112.728 0-211.1-79.97-211.1-187.225v-139.683c0-108.666 101.179-178.59 211.1-178.59 109.963 0 210.593 69.452 210.593 178.59v129.214c0.322 3.174 0.502 6.31 0.502 9.343 0 21.304-3.984 41.706-11.303 60.635z" />
<glyph unicode="&#xe921;" glyph-name="deposit" horiz-adv-x="1071" d="M528.822 870.835c-102.181 0-196.838-35.853-272.050-95.805l-0.053-0.041c-100.002-79.35-163.096-202.197-163.096-339.356 0-81.599 22.844-158.729 62.988-223.828l0.254-0.41-0.003-0.005c75.039-126.152 213.128-210.958 371.96-210.958 109.973 0 209.836 40.234 285.798 108.6 0.093 0.084 0.186 0.168 0.279 0.251 0.172 0.149 0.344 0.293 0.517 0.442 33.368 27.983 62.534 62.525 85.239 101.446l0.382 0.633c40.141 65.098 62.985 142.229 62.985 223.828 0 240.456-194.746 435.202-435.2 435.202zM219.082 822.368c85.366 68.036 193.172 108.976 309.74 108.976 273.873 0 495.709-221.836 495.709-495.711 0-92.812-25.954-180.801-71.796-255.269-26.051-44.577-59.513-84.275-98.029-116.662-86.9-78.038-200.988-123.778-325.883-123.778-180.861 0-338.27 96.633-423.841 240.328-45.885 74.491-71.867 162.523-71.867 255.381 0 156.069 71.877 296.193 185.968 386.735zM325.398 438.044c0 16.71 13.545 30.255 30.255 30.255h346.765c16.705 0 30.255-13.545 30.255-30.255s-13.549-30.255-30.255-30.255h-346.765c-16.709 0-30.255 13.545-30.255 30.255zM528.822 638.162c16.71 0 30.255-13.545 30.255-30.255v-347.928c0-16.705-13.545-30.255-30.255-30.255s-30.255 13.549-30.255 30.255v347.928c0 16.709 13.545 30.255 30.255 30.255z" />
<glyph unicode="&#xe922;" glyph-name="transfer" horiz-adv-x="884" d="M38.295 752.275c0 16.709 13.545 30.255 30.254 30.255h640.379c93.459 0 169.365-75.9 169.365-169.36v-153.501c0-16.71-13.549-30.255-30.255-30.255-16.71 0-30.255 13.545-30.255 30.255v153.501c0 60.039-48.817 108.851-108.856 108.851h-640.379c-16.709 0-30.254 13.546-30.254 30.255zM236.248 919.94c11.815-11.815 11.815-30.972 0-42.786l-124.91-124.907 124.91-124.907c11.815-11.815 11.816-30.971 0-42.786s-30.971-11.816-42.786-0.001l-146.304 146.301c-5.674 5.673-8.862 13.369-8.862 21.393s3.188 15.72 8.862 21.394l146.304 146.3c11.815 11.815 30.971 11.815 42.786-0.001zM68.55 441.972c16.709 0 30.255-13.545 30.255-30.255v-153.493c0-60.044 48.815-108.861 108.854-108.861h640.381c16.705 0 30.255-13.545 30.255-30.255s-13.549-30.255-30.255-30.255h-640.381c-93.46 0-169.363 75.911-169.363 169.37v153.493c0 16.71 13.545 30.255 30.254 30.255zM680.485 286.725c11.818 11.813 30.971 11.813 42.789-0.005l146.302-146.306c5.674-5.674 8.862-13.368 8.862-21.392s-3.188-15.718-8.862-21.392l-146.302-146.302c-11.818-11.813-30.971-11.813-42.789 0-11.813 11.818-11.813 30.971 0 42.789l124.914 124.905-124.914 124.914c-11.813 11.818-11.813 30.971 0 42.789z" />
<glyph unicode="&#xe923;" glyph-name="watchlist" d="M498.679 631.829c15.317 0 27.733-12.416 27.733-27.733v-334.003c0-15.313-12.416-27.733-27.733-27.733-15.313 0-27.733 12.42-27.733 27.733v334.003c0 15.317 12.42 27.733 27.733 27.733zM303.849 437.103c0 15.313 12.416 27.733 27.733 27.733h334.321c15.317 0 27.733-12.42 27.733-27.733 0-15.317-12.416-27.733-27.733-27.733h-334.321c-15.317 0-27.733 12.416-27.733 27.733zM87.769 840.114c47.736 51.208 115.941 80.178 197.27 80.178h427.238c81.527 0 149.747-28.959 197.444-80.191 47.488-51.008 72.563-121.834 72.563-202.166v-402.538c0-80.333-25.075-151.159-72.563-202.167-47.697-51.23-115.917-80.192-197.444-80.192h-427.238c-81.529 0-149.748 28.962-197.445 80.192-47.489 51.008-72.563 121.835-72.563 202.167v402.538c0 80.367 25.203 151.188 72.738 202.179zM128.341 802.292c-36.371-39.016-57.843-95.506-57.843-164.358v-402.538c0-68.885 21.384-125.372 57.693-164.369 36.1-38.78 89.019-62.524 156.849-62.524h427.238c67.827 0 120.747 23.744 156.847 62.524 36.309 38.997 57.694 95.484 57.694 164.369v402.538c0 68.885-21.385 125.371-57.694 164.371-36.1 38.775-89.020 62.52-156.847 62.52h-427.238c-67.596 0-120.529-23.733-156.698-62.533z" />
<glyph unicode="&#xe924;" glyph-name="angle-down" horiz-adv-x="1536" d="M52.584 862.952c50.004 49.97 131.050 49.942 181.019-0.063l523.977-524.34 523.976 524.34c49.969 50.004 131.016 50.033 181.019 0.063 50.005-49.97 50.033-131.014 0.063-181.020l-614.518-614.944c-24.008-24.023-56.578-37.521-90.54-37.521-33.964 0-66.534 13.498-90.542 37.521l-614.517 614.944c-49.97 50.005-49.942 131.050 0.063 181.020z" />
<glyph unicode="&#xe925;" glyph-name="more" horiz-adv-x="3511" d="M835.918 468.898c0-230.832-187.127-417.959-417.959-417.959s-417.959 187.127-417.959 417.959c0 230.832 187.127 417.959 417.959 417.959s417.959-187.127 417.959-417.959zM2173.387 468.898c0-230.832-187.127-417.959-417.959-417.959s-417.959 187.127-417.959 417.959c0 230.832 187.127 417.959 417.959 417.959s417.959-187.127 417.959-417.959zM3510.848 468.898c0-230.832-187.127-417.959-417.959-417.959s-417.959 187.127-417.959 417.959c0 230.832 187.127 417.959 417.959 417.959s417.959-187.127 417.959-417.959z" />
<glyph unicode="&#xe926;" glyph-name="line" horiz-adv-x="910" d="M735.317 938.979c-49.772 0-90.305-40.533-90.305-90.304v-671.893c0-49.772 40.533-90.305 90.305-90.305h71.669c49.772 0 90.305 40.533 90.305 90.305v671.893c0 49.771-40.533 90.304-90.305 90.304h-71.669zM736.034 177.499v670.458h70.235v-670.458h-70.235zM322.514 705.786c0 49.771 40.533 90.304 90.304 90.304h71.667c49.772 0 90.303-40.533 90.303-90.304v-529.004c0-49.772-40.532-90.305-90.303-90.305h-71.667c-49.771 0-90.304 40.533-90.304 90.305v529.004zM413.536 705.068v-527.569h70.231v527.569h-70.231zM90.29 653.202c-49.771 0-90.304-40.533-90.304-90.304v-386.115c0-49.772 40.533-90.305 90.304-90.305h71.667c49.771 0 90.304 40.533 90.304 90.305v386.115c0 49.772-40.533 90.304-90.304 90.304h-71.667zM91.009 177.499v384.68h70.23v-384.68h-70.23zM45.497 43.127c-25.135 0-45.511-20.378-45.511-45.511 0-25.139 20.376-45.511 45.511-45.511h806.272c25.134 0 45.511 20.372 45.511 45.511 0 25.134-20.378 45.511-45.511 45.511h-806.272z" />
<glyph unicode="&#xe927;" glyph-name="tick2" horiz-adv-x="1451" d="M586.808-36.523l836.39 836.387c36.634 36.634 36.634 96.028 0 132.661s-96.026 36.633-132.659 0l-770.044-770.043-327.859 327.86c-36.634 36.634-96.027 36.634-132.661 0s-36.633-96.027 0-132.661l392.676-392.677c0.492-0.512 0.992-1.024 1.498-1.527 36.633-36.634 96.027-36.634 132.66 0z" />
<glyph unicode="&#xe928;" glyph-name="refresh" horiz-adv-x="1052" d="M538.553 785.568c-73.828 0-144.077-23.812-203.614-69.061l-0.003 0.002c-10.715-7.143-25-5.955-33.34 3.563-7.151 10.714-5.956 25.001 4.759 33.339 66.679 51.204 147.644 78.588 232.186 78.588 211.945 0 384.594-172.652 384.594-384.594 0-27.386-3.57-54.77-9.526-80.964l67.874 60.723c9.529 9.526 25 8.34 33.34-1.186 9.526-9.529 8.34-25.003-1.189-33.34l-120.257-109.545-108.356 110.731c-9.526 9.526-9.526 23.811 0 33.34 9.529 9.526 23.814 9.526 33.34 0l48.822-50.011c5.953 23.822 8.337 47.636 8.337 71.447 0 185.748-151.219 336.968-336.967 336.968zM96.806 472.417c-3.571-3.573-9.526-5.956-15.481-5.956v-0.006c-7.143 0-13.098 2.384-17.857 8.34-9.527 9.526-8.339 25 1.188 33.34l120.259 109.534 108.357-110.729c9.526-9.529 9.526-23.814 0-33.34-9.529-9.526-23.814-9.526-33.341 0l-50.009 50.008c-4.767-23.819-8.339-50.008-8.339-75.017 0-185.745 151.22-336.967 336.968-336.967 75.017 0 147.647 25.008 207.184 71.447 10.712 8.34 25 7.142 33.34-3.573 8.337-10.712 7.142-25-3.573-33.34-67.868-53.581-150.030-82.159-236.948-82.159-211.948 0-384.596 172.652-384.596 384.594 0 28.581 3.571 57.162 9.527 84.545l-66.677-60.723z" />
<glyph unicode="&#xe929;" glyph-name="info-filled" d="M512 960c-282.624 0-512-229.376-512-512s229.376-512 512-512c282.624 0 512 229.376 512 512s-229.376 512-512 512zM512 192c-28.16 0-51.2 23.040-51.2 51.2v204.8c0 28.16 23.040 51.2 51.2 51.2s51.2-23.040 51.2-51.2v-204.8c0-28.16-23.040-51.2-51.2-51.2zM563.2 601.6h-102.4v102.4h102.4v-102.4z" />
<glyph unicode="&#xe92a;" glyph-name="warning-filled" d="M512-64c282.624 0 512 229.376 512 512s-229.376 512-512 512c-282.624 0-512-229.376-512-512s229.376-512 512-512zM512 704c28.16 0 51.2-23.040 51.2-51.2v-204.8c0-28.16-23.040-51.2-51.2-51.2s-51.2 23.040-51.2 51.2v204.8c0 28.16 23.040 51.2 51.2 51.2zM460.8 294.4h102.4v-102.4h-102.4v102.4z" />
<glyph unicode="&#xe92b;" glyph-name="circle-error" horiz-adv-x="1084" d="M57.537 462.116c0 268.431 219.475 487.906 487.906 487.906 268.433 0 487.906-219.475 487.906-487.906s-219.473-487.903-487.906-487.903c-268.431 0-487.906 219.473-487.906 487.903zM545.443 877.74c-228.51 0-415.624-187.113-415.624-415.624s187.113-415.621 415.624-415.621c228.509 0 415.624 187.109 415.624 415.621 0 228.51-187.115 415.624-415.624 415.624zM545.406 678.963c19.96 0 36.141-16.181 36.141-36.141v-225.882c0-19.96-16.181-36.141-36.141-36.141s-36.141 16.181-36.141 36.141v225.882c0 19.96 16.181 36.141 36.141 36.141zM509.066 281.486c0 19.956 16.181 36.141 36.141 36.141h0.406c19.96 0 36.141-16.185 36.141-36.141 0-19.962-16.181-36.141-36.141-36.141h-0.406c-19.96 0-36.141 16.179-36.141 36.141z" />
<glyph unicode="&#xe92c;" glyph-name="arrow-right-small" horiz-adv-x="1664" d="M1087.359-25.11c-32.503 32.48-32.522 85.16-0.042 117.663l327.89 328.128-327.89 328.123c-32.48 32.503-32.462 85.182 0.041 117.663s85.183 32.462 117.663-0.041l386.66-386.933c32.474-32.486 32.474-85.134 0-117.622l-386.659-386.939c-32.48-32.503-85.16-32.522-117.663-0.042zM117.531 420.622c0 45.949 37.25 83.2 83.2 83.2h1332.837c45.952 0 83.2-37.251 83.2-83.2 0-45.951-37.248-83.2-83.2-83.2h-1332.837c-45.949 0-83.2 37.249-83.2 83.2z" />
<glyph unicode="&#xe92d;" glyph-name="arrow-right" horiz-adv-x="1109" d="M57.604 429.807c0 30.633 24.833 55.467 55.467 55.467h929.796c30.635 0 55.467-24.834 55.467-55.467s-24.832-55.467-55.467-55.467h-929.796c-30.633 0-55.467 24.833-55.467 55.467zM575.308 895.36c21.615 21.707 56.734 21.782 78.442 0.168l428.26-426.434c10.453-10.408 16.333-24.552 16.333-39.305s-5.879-28.896-16.333-39.305l-428.26-426.436c-21.707-21.615-56.827-21.547-78.442 0.162s-21.54 56.832 0.167 78.447l388.791 387.132-388.791 387.129c-21.707 21.615-21.782 56.734-0.167 78.441z" />
<glyph unicode="&#xe92e;" glyph-name="alarm" horiz-adv-x="1081" d="M24.667-18.421c0 23.569 19.102 42.667 42.666 42.667h948.151c23.563 0 42.667-19.098 42.667-42.667 0-23.563-19.103-42.667-42.667-42.667h-948.151c-23.564 0-42.666 19.103-42.666 42.667zM101.889 293.501c0 244.596 196.382 443.692 439.514 443.692 243.135 0 439.515-199.096 439.515-443.692v-311.91c0-23.563-19.103-42.667-42.667-42.667h-793.696c-23.565 0-42.667 19.103-42.667 42.667v311.91zM541.403 651.86c-195.164 0-354.181-160.046-354.181-358.358v-269.244h708.362v269.244c0 198.312-159.016 358.358-354.182 358.358zM541.417 926.859c23.564 0 42.667-19.102 42.667-42.667v-56.889c0-23.564-19.103-42.667-42.667-42.667s-42.667 19.103-42.667 42.667v56.889c0 23.564 19.103 42.667 42.667 42.667zM131.997 819.529c16.662 16.662 43.677 16.662 60.34 0l56.889-56.889c16.662-16.663 16.662-43.678 0-60.34s-43.678-16.663-60.34 0l-56.889 56.889c-16.663 16.662-16.663 43.677 0 60.34zM960.336 819.529c16.663-16.663 16.663-43.678 0-60.34l-56.889-56.889c-16.663-16.663-43.679-16.663-60.336 0-16.663 16.662-16.663 43.677 0 60.34l56.889 56.889c16.657 16.662 43.674 16.662 60.336 0z" />
<glyph unicode="&#xe92f;" glyph-name="document" horiz-adv-x="970" d="M159.845 824.162c-28.468-30.658-43.972-76.972-43.972-138.97v-449.122c0-62.001 15.504-108.312 43.972-138.973 28.032-30.186 73.638-50.559 145.557-50.559h359.298c71.923 0 117.528 20.372 145.559 50.559 28.467 30.661 43.973 76.972 43.973 138.973v449.122c0 61.998-15.506 108.312-43.973 138.97-28.031 30.188-73.636 50.56-145.559 50.56h-359.298c-71.919 0-117.526-20.372-145.557-50.56zM108.503 871.836c44.951 48.409 111.626 72.949 196.899 72.949h359.298c85.272 0 151.951-24.54 196.899-72.949 44.517-47.938 62.696-113.905 62.696-186.644v-449.122c0-72.742-18.179-138.709-62.696-186.643-44.948-48.408-111.627-72.952-196.899-72.952h-359.298c-85.273 0-151.948 24.544-196.899 72.952-44.514 47.934-62.694 113.901-62.694 186.643v449.122c0 72.738 18.179 138.706 62.694 186.644zM597.353 832.479c19.348 0 35.032-15.684 35.032-35.032v-89.825c0-30.056 24.738-54.793 54.795-54.793h89.821c19.348 0 35.032-15.684 35.032-35.032s-15.683-35.032-35.032-35.032h-89.821c-68.754 0-124.858 56.105-124.858 124.856v89.825c0 19.348 15.683 35.032 35.032 35.032zM270.349 415.669c0 19.346 15.684 35.031 35.032 35.031h179.649c19.347 0 35.032-15.684 35.032-35.031s-15.684-35.032-35.032-35.032h-179.649c-19.348 0-35.032 15.683-35.032 35.032zM270.349 236.070c0 19.348 15.684 35.032 35.032 35.032h359.298c19.348 0 35.032-15.683 35.032-35.032s-15.683-35.032-35.032-35.032h-359.298c-19.348 0-35.032 15.683-35.032 35.032z" />
<glyph unicode="&#xe930;" glyph-name="list-search" horiz-adv-x="973" d="M775.137 251.756c-57.021 0-103.25-46.228-103.25-103.25 0-57.027 46.223-103.255 103.25-103.255s103.255 46.228 103.255 103.255c0 57.021-46.228 103.25-103.255 103.25zM605.327 148.506c0 93.783 76.027 169.81 169.81 169.81 93.788 0 169.815-76.027 169.815-169.81 0-93.788-76.027-169.815-169.815-169.815-93.783 0-169.81 76.027-169.81 169.815zM828.38 52.572c12.995 12.995 34.068 12.995 47.063 0l42.665-42.67c13-12.995 13-34.068 0-47.063-12.995-13-34.068-13-47.063 0l-42.665 42.665c-13 13-13 34.068 0 47.068zM263.944 626.419c0 18.38 14.9 33.28 33.28 33.28h341.332c18.381 0 33.28-14.9 33.28-33.28s-14.899-33.28-33.28-33.28h-341.332c-18.38 0-33.28 14.9-33.28 33.28zM263.944 455.728c0 18.38 14.9 33.28 33.28 33.28h213.334c18.38 0 33.279-14.9 33.279-33.28 0-18.382-14.899-33.282-33.279-33.282h-213.334c-18.38 0-33.28 14.899-33.28 33.282zM263.944 285.036c0 18.381 14.9 33.28 33.28 33.28h213.334c18.38 0 33.279-14.899 33.279-33.28s-14.899-33.28-33.279-33.28h-213.334c-18.38 0-33.28 14.899-33.28 33.28zM158.965 801.116c-27.044-29.125-41.774-73.123-41.774-132.021v-426.668c0-58.895 14.73-102.897 41.774-132.019 26.63-28.677 69.956-48.031 138.279-48.031h213.333c18.38 0 33.279-14.904 33.279-33.28 0-18.381-14.899-33.28-33.279-33.28h-213.333c-81.010 0-144.351 23.311-187.054 69.299-42.289 45.542-59.559 108.211-59.559 177.311v426.668c0 69.102 17.271 131.77 59.559 177.312 42.703 45.988 106.044 69.301 187.054 69.301h341.332c81.009 0 144.353-23.313 187.054-69.301 42.291-45.542 59.561-108.211 59.561-177.312v-255.997c0-18.381-14.899-33.28-33.28-33.28s-33.28 14.899-33.28 33.28v255.997c0 58.898-14.73 102.896-41.774 132.021-26.629 28.679-69.955 48.032-138.281 48.032h-341.332c-68.324 0-111.649-19.354-138.279-48.032z" />
<glyph unicode="&#xe931;" glyph-name="minus" d="M897.712 420.796c0-28.277-22.922-51.2-51.2-51.2h-614.4c-28.277 0-51.2 22.923-51.2 51.2s22.923 51.2 51.2 51.2h614.4c28.278 0 51.2-22.922 51.2-51.2z" />
<glyph unicode="&#xe932;" glyph-name="plus" d="M516.837 779.196c28.277 0 51.2-22.922 51.2-51.2v-614.4c0-28.277-22.923-51.2-51.2-51.2s-51.2 22.923-51.2 51.2v614.4c0 28.278 22.923 51.2 51.2 51.2zM875.237 420.796c0-28.277-22.923-51.2-51.2-51.2h-614.4c-28.277 0-51.2 22.923-51.2 51.2s22.923 51.2 51.2 51.2h614.4c28.277 0 51.2-22.922 51.2-51.2z" />
<glyph unicode="&#xe933;" glyph-name="upload" horiz-adv-x="1075" d="M683.791 629.553c1.636-6.252 2.486-12.746 2.486-19.325v-6.1h50.829v6.1c0 35.622-14.945 69.612-41.201 93.686l-242.883 222.687c-23.444 21.482-54.077 33.4-85.885 33.4h-240.052c-70.177 0-127.085-56.908-127.085-127.085v-769.829c0-70.2 56.908-127.086 127.085-127.086h381.277v50.829h-381.277c-42.115 0-76.255 34.14-76.255 76.257v769.829c0 42.115 34.141 76.255 76.255 76.255h240.052c4.772 0 9.498-0.457 14.139-1.329v-151.182c0-70.198 56.909-127.107 127.086-127.107h175.429zM432.108 756.66v120.135l214.234-196.39h-137.979c-42.115 0-76.255 34.14-76.255 76.255zM787.981 124.457v294.5h-50.852v-294.5l-109.112 109.133-35.948-35.948 152.509-152.512c9.915-9.912 26.038-9.912 35.95 0l152.509 152.512-35.948 35.948-109.11-109.133zM762.552 546.043c-168.458 0-305.021-136.561-305.021-305.021 0-168.458 136.563-305.021 305.021-305.021s305.021 136.563 305.021 305.021c0 168.461-136.563 305.021-305.021 305.021zM762.552-13.169c-140.396 0-254.193 113.795-254.193 254.19 0 140.398 113.818 254.193 254.193 254.193 140.398 0 254.193-113.795 254.193-254.193 0-140.396-113.795-254.19-254.193-254.19z" />
<glyph unicode="&#xe934;" glyph-name="cloud" d="M281.984 874.112c63.967 55.159 145.551 85.623 230.016 85.888 172.16 0 315.072-128 330.624-293.056 101.888-14.4 181.376-99.712 181.376-204.416 0-114.944-95.872-206.528-212.032-206.528h-171.968c-8.486 0-16.627 3.372-22.628 9.372s-9.372 14.141-9.372 22.628c0 8.486 3.372 16.627 9.372 22.628s14.141 9.372 22.628 9.372h172.032c82.624 0 147.968 64.768 147.968 142.528 0 77.824-65.28 142.592-148.032 142.592h-32v32c0.064 142.080-118.976 258.88-267.968 258.88-69.128-0.276-135.882-25.244-188.224-70.4-48.448-41.728-73.792-92.032-73.792-131.52v-28.672l-28.48-3.136c-89.408-9.792-157.504-83.2-157.504-170.624 0-93.888 78.72-171.648 177.984-171.648h142.016c8.486 0 16.627-3.372 22.628-9.372s9.372-14.141 9.372-22.628c0-8.486-3.372-16.627-9.372-22.628s-14.141-9.372-22.628-9.372h-142.016c-132.672 0-241.984 104.576-241.984 235.648 0 112.832 81.024 206.272 188.288 229.952 9.152 55.232 44.672 110.272 93.696 152.512zM489.344 694.656c2.972 2.98 6.502 5.343 10.391 6.956 3.889 1.615 8.056 2.445 12.265 2.445s8.376-0.829 12.265-2.445c3.886-1.613 7.419-3.976 10.391-6.956l192-192c6.008-6.011 9.385-14.159 9.385-22.656 0-8.499-3.377-16.648-9.385-22.656-6.008-6.011-14.159-9.385-22.656-9.385s-16.648 3.374-22.656 9.385l-137.344 137.408v-562.752c0-8.489-3.372-16.627-9.372-22.628s-14.141-9.372-22.628-9.372c-8.486 0-16.627 3.372-22.628 9.372s-9.372 14.139-9.372 22.628v562.752l-137.344-137.408c-6.008-6.011-14.159-9.385-22.656-9.385s-16.648 3.374-22.656 9.385c-6.008 6.008-9.385 14.157-9.385 22.656 0 8.497 3.377 16.645 9.385 22.656l192 192z" />
<glyph unicode="&#xe935;" glyph-name="clock" horiz-adv-x="975" d="M487.619 33.524c-90.527 0-177.347 35.962-241.359 99.977-64.012 64.010-99.974 150.83-99.974 241.357s35.962 177.348 99.974 241.36c64.013 64.013 150.832 99.974 241.359 99.974s177.347-35.961 241.357-99.974c64.015-64.012 99.977-150.833 99.977-241.36s-35.962-177.347-99.977-241.357c-64.010-64.015-150.83-99.977-241.357-99.977zM487.619 813.715c-116.392 0-228.017-46.237-310.319-128.538s-128.538-193.927-128.538-310.32c0-116.39 46.237-228.016 128.538-310.316 82.302-82.305 193.927-128.541 310.319-128.541 116.39 0 228.016 46.236 310.321 128.541 82.3 82.3 128.536 193.926 128.536 310.316 0 116.393-46.236 228.018-128.536 310.32-82.305 82.301-193.931 128.538-310.321 128.538zM512 618.667h-73.143v-292.572l231.619-138.971 36.571 59.977-195.048 115.566v256zM286.72 843.46l-62.415 74.606-224.305-187.734 62.903-74.605 223.817 187.733zM975.238 729.844l-224.305 188.221-62.903-74.606 224.305-188.221 62.903 74.606z" />
<glyph unicode="&#xe936;" glyph-name="clear" d="M512 64c-211.68 0-384 172.32-384 384s172.32 384 384 384c211.68 0 384-172.32 384-384s-172.32-384-384-384zM512 928c-265.44 0-480-214.56-480-480s214.56-480 480-480c265.44 0 480 214.56 480 480s-214.56 480-480 480zM636.32 640l-124.32-124.32-124.32 124.32-67.68-67.68 124.32-124.32-124.32-124.32 67.68-67.68 124.32 124.32 124.32-124.32 67.68 67.68-124.32 124.32 124.32 124.32-67.68 67.68z" />
<glyph unicode="&#xe937;" glyph-name="edit" d="M640-10.667h-256c-231.68 0-330.667 98.987-330.667 330.667v256c0 231.68 98.987 330.667 330.667 330.667h85.333c17.493 0 32-14.507 32-32s-14.507-32-32-32h-85.333c-196.693 0-266.667-69.973-266.667-266.667v-256c0-196.693 69.973-266.667 266.667-266.667h256c196.693 0 266.667 69.973 266.667 266.667v85.333c0 17.493 14.507 32 32 32s32-14.507 32-32v-85.333c0-231.68-98.987-330.667-330.667-330.667zM362.67 205.227c-26.027 0-49.92 9.387-67.413 26.453-20.907 20.907-29.867 51.2-25.173 83.2l18.347 128.427c3.413 24.747 19.627 56.747 37.12 74.24l336.214 336.213c84.907 84.907 171.093 84.907 256 0 46.507-46.507 67.413-93.867 63.147-141.227-3.84-38.4-24.32-75.947-63.147-114.347l-336.213-336.213c-17.493-17.493-49.493-33.707-74.24-37.12l-128.428-18.347c-5.547-1.28-11.093-1.28-16.213-1.28zM706.991 808.533l-336.214-336.213c-8.107-8.107-17.493-26.88-19.2-37.973l-18.347-128.427c-1.707-12.373 0.853-22.613 7.253-29.013s16.64-8.96 29.013-7.253l128.428 18.347c11.093 1.707 30.293 11.093 37.973 19.2l336.213 336.213c27.733 27.733 42.24 52.48 44.373 75.52 2.56 27.733-11.947 57.173-44.373 90.027-68.267 68.267-115.2 49.067-165.12-0.427zM846.938 540.587c-2.987 0-5.973 0.427-8.533 1.28-112.213 31.573-201.387 120.747-232.96 232.96-4.693 17.067 5.12 34.56 22.187 39.68 17.067 4.693 34.56-5.12 39.253-22.187 25.6-90.88 97.707-162.987 188.587-188.587 17.067-4.693 26.88-22.613 22.187-39.68-3.84-14.507-16.64-23.467-30.72-23.467z" />
<glyph unicode="&#xe938;" glyph-name="angle-left" horiz-adv-x="683" d="M629.229 157.894c33.324-33.326 33.324-87.355 0-120.68s-87.355-33.324-120.68 0l-374.329 374.329c-33.325 33.324-33.325 87.355 0 120.68l374.329 374.329c33.324 33.325 87.355 33.325 120.68 0s33.324-87.355 0-120.679l-313.989-313.989 313.989-313.989z" />
<glyph unicode="&#xe939;" glyph-name="Union1" horiz-adv-x="683" d="M53.438 157.894c-33.325-33.326-33.325-87.355 0-120.68s87.355-33.324 120.68 0l374.329 374.329c33.324 33.324 33.324 87.355 0 120.68l-374.329 374.329c-33.324 33.325-87.355 33.325-120.68 0s-33.325-87.355 0-120.679l313.989-313.989-313.989-313.989z" />
<glyph unicode="&#xe93a;" glyph-name="phone" horiz-adv-x="853" d="M559.628-64h-285.768c-210.039 0-273.86 63.824-273.86 273.863v476.277c0 210.039 63.821 273.86 273.86 273.86h285.768c210.039 0 273.863-63.821 273.863-273.86v-476.277c0-210.039-63.824-273.863-273.863-273.863zM273.86 888.558c-170.508 0-202.419-32.387-202.419-202.419v-476.277c0-170.035 31.911-202.422 202.419-202.422h285.768c170.507 0 202.416 32.387 202.416 202.422v476.277c0 170.031-31.909 202.419-202.416 202.419h-285.768zM512 721.86h-190.512c-19.527 0-35.721 16.193-35.721 35.721s16.193 35.721 35.721 35.721h190.512c19.528 0 35.721-16.193 35.721-35.721s-16.193-35.721-35.721-35.721zM416.744 73.643c-60.487 0-109.544 49.061-109.544 109.545 0 60.49 49.057 109.545 109.544 109.545s109.544-49.055 109.544-109.545c0-60.484-49.056-109.545-109.544-109.545zM416.744 221.77c-20.956 0-38.102-17.146-38.102-38.104s17.146-38.104 38.102-38.104c20.956 0 38.102 17.146 38.102 38.104s-17.146 38.104-38.102 38.104z" />
<glyph unicode="&#xe93b;" glyph-name="user-check" horiz-adv-x="967" d="M170.988 686.14c0 151.249 122.611 273.86 273.861 273.86s273.863-122.611 273.863-273.86c0-151.249-122.613-273.861-273.863-273.861s-273.861 122.611-273.861 273.861zM444.849 888.558c-111.793 0-202.419-90.626-202.419-202.419s90.626-202.419 202.419-202.419c111.792 0 202.416 90.626 202.416 202.419s-90.623 202.419-202.416 202.419zM831.135 233.159c13.397-14.484 12.516-37.080-1.968-50.478l-101.45-93.827c-14.086-13.028-35.942-12.601-49.51 0.967l-47.15 47.15c-13.949 13.955-13.949 36.568 0 50.517 13.949 13.955 36.568 13.955 50.517 0l22.858-22.858 76.225 70.502c14.484 13.392 37.086 12.51 50.478-1.974zM444.844 269.397c-213.236 0-373.403-139.594-373.403-297.677 0-19.729-15.993-35.721-35.721-35.721s-35.721 15.991-35.721 35.721c0 210.557 206.568 369.118 444.844 369.118 44.513 0 87.827-5.484 128.806-15.718 5.001 4.79 10.223 9.353 15.662 13.67 38.855 30.959 88.047 49.675 141.306 49.675 124.985 0 226.23-101.245 226.23-226.236 0-42.263-11.793-82.421-32.711-116.491-11.913-20.315-27.182-38.463-44.823-53.356-39.771-35.59-91.893-56.383-148.696-56.383-82.495 0-154.345 44.078-193.444 109.614-20.965 34.094-32.79 74.303-32.79 116.617 0 35.721 8.261 69.632 23.082 99.789-26.652 4.824-54.324 7.378-82.621 7.378zM730.618 317.025c-36.272 0-69.939-12.709-96.808-34.128l-0.063-0.046c-35.487-28.166-57.924-71.777-57.924-120.622 0-29.019 8.124-56.354 22.312-79.36l0.296-0.489c26.664-44.823 75.702-74.94 132.187-74.94 39.179 0 74.513 14.29 101.365 38.457 0.307 0.279 0.62 0.552 0.939 0.819 11.571 9.705 21.771 21.766 29.73 35.402l0.449 0.751c14.182 23.006 22.306 50.341 22.306 79.36 0 85.532-69.262 154.795-154.789 154.795z" />
<glyph unicode="&#xe93c;" glyph-name="pin" horiz-adv-x="910" d="M336.782 500.338c-13.084 13.084-34.702 13.084-48.356 0-13.084-13.084-13.084-34.702 0-48.356l48.356 48.356zM383.999 405.333l-23.893-23.893c13.084-13.084 34.702-13.084 48.356 0l-23.893 23.893h-0.569zM597.902 570.88c13.084 13.084 13.084 34.702 0 48.356-13.084 13.084-34.703 13.084-48.356 0l48.356-48.356zM79.644 611.84c42.098 185.458 200.818 279.893 363.52 279.893s321.423-94.436 364.089-281.6l66.56 14.791c-50.631 224.142-242.347 335.076-430.649 335.076s-380.018-110.364-430.649-334.507l66.56-15.36 0.569 1.707zM807.822 611.84c50.062-222.436-87.609-414.151-216.747-538.738l47.218-49.493c133.12 128 295.253 343.609 236.089 603.022l-66.56-14.791zM591.076 73.102c-81.921-79.076-211.627-79.076-294.685 0l-47.218-49.493c108.658-104.676 280.462-104.676 389.121 0l-47.218 48.924v0.569zM296.391 73.102c-130.276 122.88-267.947 315.164-217.316 537.6l-66.56 14.791c-58.596-259.413 102.969-475.591 235.52-603.591l47.218 48.924 1.138 2.276zM289.564 453.12l71.111-71.111 48.356 48.356-71.111 71.111-48.356-48.356zM409.031 382.009l189.441 189.44-48.356 48.356-189.44-189.44 48.356-48.356z" />
</font>
</defs>
</svg>
