<svg width="25" height="25" viewBox="0 0 25 25" xmlns="http://www.w3.org/2000/svg">
<path fill="#fff"  class="icon-partner" fillRule="evenodd" clipRule="evenodd" d="M6.93997 8.14109C7.00997 8.13109 7.07997 8.13109 7.14997 8.14109C8.69997 8.09109 9.92997 6.82109 9.92997 5.26109C9.92997 3.66109 8.63997 2.37109 7.03997 2.37109C5.44997 2.37109 4.15997 3.66109 4.15997 5.26109C4.15997 6.82109 5.38997 8.09109 6.93997 8.14109ZM17.82 8.14109C17.89 8.13109 17.96 8.13109 18.03 8.14109C19.58 8.09109 20.81 6.82109 20.82 5.26109C20.82 3.66109 19.52 2.37109 17.93 2.37109C16.33 2.37109 15.04 3.67109 15.04 5.26109C15.04 6.82109 16.27 8.09109 17.82 8.14109ZM17.15 15.9111C18.6 16.1011 20.17 15.8211 21.29 15.0711C22.86 14.0211 22.86 12.3111 21.28 11.2711C20.15 10.5211 18.58 10.2411 17.1 10.4411C17.52 11.2711 17.74 12.2211 17.74 13.2211C17.73 14.1811 17.53 15.0911 17.15 15.9111ZM7.64 15.9411C7.25999 15.1111 7.05 14.1911 7.05 13.2211C7.05 12.2111 7.27 11.2611 7.68 10.4211C6.25999 10.2611 4.75 10.5511 3.68 11.2711C2.1 12.3211 2.1 14.0311 3.68 15.0811C4.76 15.7911 6.23 16.0911 7.64 15.9411ZM12.62 16.2411C12.54 16.2311 12.45 16.2311 12.36 16.2411C10.52 16.1811 9.04999 14.6711 9.04999 12.8111C9.05999 10.9111 10.59 9.37109 12.5 9.37109C14.4 9.37109 15.94 10.9111 15.94 12.8111C15.93 14.6711 14.47 16.1811 12.62 16.2411ZM9.36999 21.9811C7.85999 20.9811 7.85999 19.3211 9.36999 18.3111C11.1 17.1611 13.92 17.1611 15.63 18.3111C17.14 19.3111 17.14 20.9711 15.63 21.9811C13.91 23.1311 11.09 23.1311 9.36999 21.9811Z" />
</svg>
