<svg xmlns="http://www.w3.org/2000/svg" width="39.141" height="35.228" viewBox="0 0 39.141 35.228">
  <path id="dvr_FILL0_wght400_GRAD0_opsz48" d="M89.784-818.815a1.564,1.564,0,0,0,1.151-.464,1.56,1.56,0,0,0,.465-1.15,1.564,1.564,0,0,0-.464-1.151,1.56,1.56,0,0,0-1.15-.465,1.564,1.564,0,0,0-1.151.464,1.56,1.56,0,0,0-.465,1.15,1.564,1.564,0,0,0,.464,1.151A1.56,1.56,0,0,0,89.784-818.815Zm0-7.828a1.564,1.564,0,0,0,1.151-.464,1.56,1.56,0,0,0,.465-1.15,1.564,1.564,0,0,0-.464-1.151,1.56,1.56,0,0,0-1.15-.465,1.564,1.564,0,0,0-1.151.464,1.56,1.56,0,0,0-.465,1.15,1.564,1.564,0,0,0,.464,1.151A1.56,1.56,0,0,0,89.784-826.643Zm3.915,7.682h17.614V-821.9H93.7Zm0-7.828h17.614v-2.936H93.7Zm-1.468,22.017v-3.914h-9.3a2.816,2.816,0,0,1-2.055-.881A2.816,2.816,0,0,1,80-811.622v-25.442a2.816,2.816,0,0,1,.881-2.055A2.816,2.816,0,0,1,82.936-840h33.27a2.816,2.816,0,0,1,2.055.881,2.816,2.816,0,0,1,.881,2.055v25.442a2.816,2.816,0,0,1-.881,2.055,2.816,2.816,0,0,1-2.055.881h-9.3v3.914Zm-9.3-6.85h33.27v-25.442H82.936Zm0,0v0Z" transform="translate(-80 840)" fill="#6c757d"></path>
</svg>