<svg xmlns="http://www.w3.org/2000/svg" width="20" height="20" viewBox="0 0 20 20" fill="none">
<path fillRule="evenodd" clipRule="evenodd" d="M5.15466 0H14.184C17.4743 0 19.33 1.86427 19.33 5.15466V14.1754C19.33 17.4657 17.4743 19.33 14.184 19.33H5.15466C1.86427 19.33 0 17.4657 0 14.1754V5.15466C0 1.86427 1.86427 0 5.15466 0ZM3.59091 5V8.16667V9.16667V13C3.59091 13.2667 3.67955 13.5 3.85682 13.7C4.03409 13.9 4.24091 14 4.47727 14H14.5227C14.7591 14 14.9659 13.9 15.1432 13.7C15.3205 13.5 15.4091 13.2667 15.4091 13V9.16667V8.16667V5C15.4091 4.73333 15.3205 4.5 15.1432 4.3C14.9659 4.1 14.7591 4 14.5227 4H4.47727C4.24091 4 4.03409 4.1 3.85682 4.3C3.67955 4.5 3.59091 4.73333 3.59091 5ZM14.5227 5V8.16667H11.8275L11.0807 6.45C11.0413 6.36111 10.9852 6.29722 10.9126 6.25833C10.8399 6.21944 10.7635 6.2 10.6836 6.2C10.6036 6.2 10.5267 6.21944 10.4528 6.25833C10.379 6.29722 10.3223 6.36111 10.283 6.45L8.34773 10.3L7.53523 8.43333C7.49583 8.34444 7.4396 8.27778 7.36654 8.23333C7.29346 8.18889 7.21674 8.16667 7.13636 8.16667H4.47727V5H14.5227ZM4.47727 13V9.16667H6.85568L7.91932 11.5667C7.95871 11.6556 8.01534 11.7222 8.0892 11.7667C8.16307 11.8111 8.24033 11.8333 8.321 11.8333C8.40168 11.8333 8.47869 11.8111 8.55203 11.7667C8.62538 11.7222 8.68038 11.6556 8.71704 11.5667L10.6523 7.75L11.1545 8.9C11.1915 8.98889 11.2469 9.05556 11.3207 9.1C11.3946 9.14444 11.4722 9.16667 11.5534 9.16667H14.5227V13H4.47727ZM3 15V16H16V15H3Z" fill="#ffffff"/>
</svg>